<svg width="164" height="40" viewBox="0 0 164 40" fill="none" xmlns="http://www.w3.org/2000/svg">
<g clip-path="url(#clip0_73_2397)">
<path d="M48.104 28.2463H59.7714V24.7341H52.2509V11.5049H48.104V28.2463Z" fill="white"/>
<path d="M66.6841 25.9048C65.0207 25.9048 64.1538 24.4531 64.1538 22.2755C64.1538 20.098 65.0207 18.6229 66.6841 18.6229C68.3475 18.6229 69.2378 20.098 69.2378 22.2755C69.2378 24.4531 68.3475 25.9048 66.6841 25.9048ZM66.7075 28.6209C70.5732 28.6209 73.1035 25.8814 73.1035 22.2755C73.1035 18.6697 70.5732 15.9302 66.7075 15.9302C62.8652 15.9302 60.2881 18.6697 60.2881 22.2755C60.2881 25.8814 62.8652 28.6209 66.7075 28.6209Z" fill="white"/>
<path d="M79.795 32.3906C81.5756 32.3906 83.1453 31.9926 84.1996 31.056C85.1602 30.1897 85.7928 28.8784 85.7928 27.0755V16.258H82.1379V17.5458H82.091C81.3882 16.5389 80.3105 15.9067 78.7173 15.9067C75.7419 15.9067 73.6802 18.3887 73.6802 21.9009C73.6802 25.577 76.187 27.5906 78.8813 27.5906C80.3339 27.5906 81.2476 27.0053 81.9505 26.2092H82.0442V27.4033C82.0442 28.855 81.3648 29.698 79.7482 29.698C78.483 29.698 77.8505 29.1594 77.6396 28.5272H73.9379C74.3127 31.0326 76.4916 32.3906 79.795 32.3906ZM79.7716 24.7575C78.3425 24.7575 77.4053 23.5867 77.4053 21.7838C77.4053 19.9575 78.3425 18.7867 79.7716 18.7867C81.3648 18.7867 82.2082 20.1448 82.2082 21.7604C82.2082 23.4463 81.435 24.7575 79.7716 24.7575Z" fill="white"/>
<path d="M93.3076 25.9048C91.6442 25.9048 90.7773 24.4531 90.7773 22.2755C90.7773 20.098 91.6442 18.6229 93.3076 18.6229C94.9711 18.6229 95.8613 20.098 95.8613 22.2755C95.8613 24.4531 94.9711 25.9048 93.3076 25.9048ZM93.331 28.6209C97.1968 28.6209 99.7266 25.8814 99.7266 22.2755C99.7266 18.6697 97.1968 15.9302 93.331 15.9302C89.4888 15.9302 86.9116 18.6697 86.9116 22.2755C86.9116 25.8814 89.4888 28.6209 93.331 28.6209Z" fill="white"/>
<path d="M100.842 28.2463H104.661V16.2581H100.842V28.2463ZM100.842 14.5956H104.661V11.5049H100.842V14.5956Z" fill="white"/>
<path d="M106.318 32.2033H110.137V27.0053H110.184C110.933 28.0121 112.034 28.6209 113.581 28.6209C116.72 28.6209 118.805 26.1389 118.805 22.2521C118.805 18.6463 116.861 15.9067 113.674 15.9067C112.034 15.9067 110.863 16.6326 110.043 17.7097H109.973V16.258H106.318V32.2033ZM112.597 25.6706C110.957 25.6706 110.02 24.336 110.02 22.3926C110.02 20.4492 110.863 18.9741 112.526 18.9741C114.166 18.9741 114.94 20.3321 114.94 22.3926C114.94 24.4297 114.049 25.6706 112.597 25.6706Z" fill="white"/>
<path d="M125.023 28.6209C128.162 28.6209 130.482 27.2628 130.482 24.6404C130.482 21.5731 127.998 21.0345 125.89 20.6833C124.367 20.4023 123.008 20.2853 123.008 19.4423C123.008 18.6931 123.734 18.3419 124.671 18.3419C125.726 18.3419 126.452 18.6697 126.592 19.7467H130.107C129.919 17.3819 128.092 15.9067 124.695 15.9067C121.86 15.9067 119.517 17.218 119.517 19.7467C119.517 22.5565 121.743 23.1184 123.828 23.4697C125.421 23.7506 126.874 23.8677 126.874 24.9448C126.874 25.7175 126.147 26.1389 124.999 26.1389C123.734 26.1389 122.938 25.5536 122.797 24.3594H119.189C119.306 27.0053 121.508 28.6209 125.023 28.6209Z" fill="white"/>
<path d="M135.669 28.5976C137.332 28.5976 138.387 27.942 139.253 26.7712H139.324V28.2463H142.979V16.2581H139.16V22.9546C139.16 24.3829 138.363 25.3664 137.051 25.3664C135.833 25.3664 135.247 24.6405 135.247 23.3293V16.2581H131.452V24.1254C131.452 26.7946 132.904 28.5976 135.669 28.5976Z" fill="white"/>
<path d="M144.64 28.2463H148.459V21.5263C148.459 20.098 149.162 19.0911 150.357 19.0911C151.505 19.0911 152.044 19.8404 152.044 21.1282V28.2463H155.862V21.5263C155.862 20.098 156.542 19.0911 157.76 19.0911C158.908 19.0911 159.447 19.8404 159.447 21.1282V28.2463H163.266V20.4492C163.266 17.7565 161.907 15.9067 159.189 15.9067C157.643 15.9067 156.354 16.5623 155.417 18.0141H155.37C154.761 16.7263 153.566 15.9067 151.997 15.9067C150.263 15.9067 149.115 16.7263 148.365 17.9672H148.295V16.258H144.64V28.2463Z" fill="white"/>
<path d="M24.8051 1.92879L20.9658 0.900635L17.7303 12.9685L14.8092 2.07355L10.9698 3.10171L14.1258 14.8729L6.2649 7.01671L3.45426 9.82568L12.0767 18.443L1.33882 15.5675L0.310059 19.4046L12.0425 22.5465C11.9082 21.9674 11.8371 21.3641 11.8371 20.7442C11.8371 16.3563 15.3963 12.7992 19.7868 12.7992C24.1773 12.7992 27.7365 16.3563 27.7365 20.7442C27.7365 21.3601 27.6663 21.9597 27.5337 22.5353L38.1963 25.3907L39.225 21.5536L27.4459 18.3992L38.1845 15.5235L37.1557 11.6865L25.3771 14.8406L33.238 6.98446L30.4273 4.17549L21.9245 12.6733L24.8051 1.92879Z" fill="white"/>
<path d="M27.5231 22.5798C27.1939 23.9707 26.499 25.2201 25.5454 26.2212L33.27 33.9413L36.0807 31.1323L27.5231 22.5798Z" fill="white"/>
<path d="M25.4673 26.302C24.5022 27.2871 23.2827 28.0222 21.915 28.401L24.7259 38.8849L28.5652 37.8567L25.4673 26.302Z" fill="white"/>
<path d="M21.7718 28.4394C21.1373 28.6024 20.4722 28.6891 19.7868 28.6891C19.0525 28.6891 18.3414 28.5896 17.6664 28.4033L14.853 38.8968L18.6924 39.9249L21.7718 28.4394Z" fill="white"/>
<path d="M17.5305 28.3647C16.1837 27.967 14.9858 27.2225 14.0405 26.2346L6.29688 33.9736L9.10751 36.7826L17.5305 28.3647Z" fill="white"/>
<path d="M13.9761 26.1661C13.047 25.172 12.3702 23.9392 12.048 22.5698L1.35059 25.4345L2.37934 29.2716L13.9761 26.1661Z" fill="white"/>
</g>
<defs>
<clipPath id="clip0_73_2397">
<rect width="164" height="40" fill="white"/>
</clipPath>
</defs>
</svg>
