<svg width="164" height="40" viewBox="0 0 164 40" fill="none" xmlns="http://www.w3.org/2000/svg">
<g clip-path="url(#clip0_247_112)">
<path d="M47.7573 28.0911H59.4946V24.5789H51.929V11.3496H47.7573V28.0911Z" fill="#2C2C2C"/>
<path d="M66.4485 25.7498C64.7751 25.7498 63.903 24.2981 63.903 22.1205C63.903 19.943 64.7751 18.4678 66.4485 18.4678C68.1219 18.4678 69.0175 19.943 69.0175 22.1205C69.0175 24.2981 68.1219 25.7498 66.4485 25.7498ZM66.472 28.4659C70.3609 28.4659 72.9063 25.7264 72.9063 22.1205C72.9063 18.5147 70.3609 15.7751 66.472 15.7751C62.6067 15.7751 60.0142 18.5147 60.0142 22.1205C60.0142 25.7264 62.6067 28.4659 66.472 28.4659Z" fill="#2C2C2C"/>
<path d="M79.6373 32.2356C81.4285 32.2356 83.0077 31.8376 84.0683 30.901C85.0346 30.0346 85.6709 28.7234 85.6709 26.9205V16.1029H81.9942V17.3907H81.9471C81.24 16.3839 80.1558 15.7517 78.5531 15.7517C75.5599 15.7517 73.4858 18.2337 73.4858 21.7459C73.4858 25.422 76.0077 27.4356 78.7181 27.4356C80.1794 27.4356 81.0986 26.8502 81.8056 26.0541H81.8999V27.2483C81.8999 28.7 81.2164 29.5429 79.5902 29.5429C78.3175 29.5429 77.6811 29.0044 77.469 28.3722H73.7451C74.1222 30.8776 76.3141 32.2356 79.6373 32.2356ZM79.6137 24.6024C78.176 24.6024 77.2333 23.4317 77.2333 21.6288C77.2333 19.8024 78.176 18.6317 79.6137 18.6317C81.2164 18.6317 82.0649 19.9898 82.0649 21.6054C82.0649 23.2912 81.2871 24.6024 79.6137 24.6024Z" fill="#2C2C2C"/>
<path d="M93.2312 25.7498C91.5578 25.7498 90.6857 24.2981 90.6857 22.1205C90.6857 19.943 91.5578 18.4678 93.2312 18.4678C94.9046 18.4678 95.8002 19.943 95.8002 22.1205C95.8002 24.2981 94.9046 25.7498 93.2312 25.7498ZM93.2547 28.4659C97.1436 28.4659 99.6893 25.7264 99.6893 22.1205C99.6893 18.5147 97.1436 15.7751 93.2547 15.7751C89.3895 15.7751 86.7969 18.5147 86.7969 22.1205C86.7969 25.7264 89.3895 28.4659 93.2547 28.4659Z" fill="#2C2C2C"/>
<path d="M100.811 28.0911H104.653V16.1028H100.811V28.0911ZM100.811 14.4403H104.653V11.3496H100.811V14.4403Z" fill="#2C2C2C"/>
<path d="M106.319 32.0483H110.161V26.8502H110.208C110.962 27.8571 112.07 28.4659 113.626 28.4659C116.784 28.4659 118.882 25.9839 118.882 22.0971C118.882 18.4912 116.925 15.7517 113.72 15.7517C112.07 15.7517 110.892 16.4776 110.067 17.5546H109.996V16.1029H106.319V32.0483ZM112.636 25.5156C110.986 25.5156 110.043 24.181 110.043 22.2376C110.043 20.2941 110.892 18.819 112.565 18.819C114.215 18.819 114.993 20.1771 114.993 22.2376C114.993 24.2746 114.097 25.5156 112.636 25.5156Z" fill="#2C2C2C"/>
<path d="M125.137 28.4659C128.295 28.4659 130.628 27.1078 130.628 24.4854C130.628 21.4181 128.13 20.8795 126.009 20.5283C124.477 20.2473 123.11 20.1302 123.11 19.2873C123.11 18.5381 123.84 18.1868 124.783 18.1868C125.844 18.1868 126.574 18.5146 126.716 19.5917H130.251C130.063 17.2268 128.224 15.7517 124.807 15.7517C121.955 15.7517 119.598 17.0629 119.598 19.5917C119.598 22.4015 121.837 22.9634 123.935 23.3146C125.537 23.5956 126.999 23.7127 126.999 24.7898C126.999 25.5624 126.268 25.9839 125.113 25.9839C123.84 25.9839 123.039 25.3985 122.898 24.2044H119.268C119.386 26.8502 121.601 28.4659 125.137 28.4659Z" fill="#2C2C2C"/>
<path d="M135.846 28.4425C137.519 28.4425 138.58 27.7869 139.452 26.6162H139.523V28.0913H143.199V16.103H139.358V22.7996C139.358 24.2279 138.556 25.2113 137.236 25.2113C136.011 25.2113 135.422 24.4855 135.422 23.1742V16.103H131.604V23.9703C131.604 26.6396 133.065 28.4425 135.846 28.4425Z" fill="#2C2C2C"/>
<path d="M144.871 28.0912H148.713V21.3712C148.713 19.9429 149.42 18.9361 150.622 18.9361C151.777 18.9361 152.319 19.6854 152.319 20.9732V28.0912H156.161V21.3712C156.161 19.9429 156.844 18.9361 158.07 18.9361C159.225 18.9361 159.767 19.6854 159.767 20.9732V28.0912H163.608V20.2941C163.608 17.6015 162.241 15.7517 159.507 15.7517C157.952 15.7517 156.656 16.4073 155.713 17.859H155.666C155.053 16.5712 153.851 15.7517 152.272 15.7517C150.528 15.7517 149.373 16.5712 148.619 17.8122H148.548V16.1029H144.871V28.0912Z" fill="#2C2C2C"/>
<path fill-rule="evenodd" clip-rule="evenodd" d="M8.4987 3.79649C7.09374 4.77245 5.82328 5.92635 4.7204 7.2253C9.22726 6.80962 14.9531 7.48837 21.6007 10.7905C28.6994 14.3165 34.4156 14.4357 38.3939 13.6734C38.0329 12.5876 37.5784 11.5441 37.0401 10.5521C32.4861 11.0293 26.6479 10.3977 19.844 7.01806C15.5234 4.87191 11.7149 3.98785 8.4987 3.79649ZM34.3799 6.79042C30.7836 2.79857 25.5573 0.286377 19.7403 0.286377C18.032 0.286377 16.3746 0.503067 14.7945 0.91026C16.9345 1.49036 19.2079 2.33905 21.6007 3.52761C26.5821 6.00201 30.8829 6.79872 34.3799 6.79042ZM39.2444 17.4845C34.4383 18.4273 27.8016 18.2337 19.844 14.2809C12.4045 10.5855 6.48327 10.632 2.48979 11.5137C2.28366 11.5591 2.08238 11.6069 1.88596 11.6567C1.36312 12.7864 0.945765 13.9743 0.646311 15.2078C0.966144 15.1229 1.29664 15.0423 1.63763 14.9669C6.48242 13.8974 13.3277 13.9438 21.6007 18.0533C29.0403 21.7487 34.9614 21.7022 38.955 20.8205C39.0918 20.7904 39.2266 20.7591 39.3592 20.7269C39.3737 20.4193 39.381 20.1098 39.381 19.7985C39.381 19.0156 39.3347 18.2434 39.2444 17.4845ZM38.7179 24.8447C33.9585 25.6713 27.5151 25.3541 19.844 21.5437C12.4045 17.8483 6.48327 17.8948 2.48979 18.7765C1.60335 18.9721 0.805928 19.2105 0.102487 19.4621C0.100569 19.574 0.0996094 19.6862 0.0996094 19.7985C0.0996094 30.5748 8.89304 39.3107 19.7403 39.3107C28.8311 39.3107 36.4794 33.175 38.7179 24.8447Z" fill="#2C2C2C"/>
</g>
<defs>
<clipPath id="clip0_247_112">
<rect width="164" height="40" fill="white"/>
</clipPath>
</defs>
</svg>
