<svg width="166" height="40" viewBox="0 0 166 40" fill="none" xmlns="http://www.w3.org/2000/svg">
<g clip-path="url(#clip0_247_101)">
<path d="M50.0708 28.6079H61.7416V25.0957H54.2188V11.8665H50.0708V28.6079Z" fill="#2C2C2C"/>
<path d="M68.6561 26.2666C66.9922 26.2666 66.1251 24.8149 66.1251 22.6374C66.1251 20.4598 66.9922 18.9847 68.6561 18.9847C70.32 18.9847 71.2106 20.4598 71.2106 22.6374C71.2106 24.8149 70.32 26.2666 68.6561 26.2666ZM68.6796 28.9827C72.5464 28.9827 75.0774 26.2432 75.0774 22.6374C75.0774 19.0315 72.5464 16.292 68.6796 16.292C64.8362 16.292 62.2583 19.0315 62.2583 22.6374C62.2583 26.2432 64.8362 28.9827 68.6796 28.9827Z" fill="#2C2C2C"/>
<path d="M81.7704 32.7525C83.5515 32.7525 85.1217 32.3544 86.1763 31.4178C87.1371 30.5515 87.7699 29.2403 87.7699 27.4373V16.6198H84.114V17.9076H84.0671C83.364 16.9008 82.286 16.2686 80.6924 16.2686C77.7161 16.2686 75.6538 18.7505 75.6538 22.2627C75.6538 25.9388 78.1614 27.9525 80.8564 27.9525C82.3094 27.9525 83.2234 27.3671 83.9265 26.571H84.0202V27.7651C84.0202 29.2168 83.3406 30.0598 81.7236 30.0598C80.458 30.0598 79.8253 29.5212 79.6144 28.889H75.9116C76.2866 31.3944 78.466 32.7525 81.7704 32.7525ZM81.747 25.1193C80.3174 25.1193 79.38 23.9486 79.38 22.1456C79.38 20.3193 80.3174 19.1486 81.747 19.1486C83.3406 19.1486 84.1843 20.5066 84.1843 22.1222C84.1843 23.8081 83.4109 25.1193 81.747 25.1193Z" fill="#2C2C2C"/>
<path d="M95.2875 26.2666C93.6236 26.2666 92.7565 24.8149 92.7565 22.6374C92.7565 20.4598 93.6236 18.9847 95.2875 18.9847C96.9514 18.9847 97.8415 20.4598 97.8415 22.6374C97.8415 24.8149 96.9514 26.2666 95.2875 26.2666ZM95.3109 28.9827C99.1773 28.9827 101.708 26.2432 101.708 22.6374C101.708 19.0315 99.1773 16.292 95.3109 16.292C91.4675 16.292 88.8896 19.0315 88.8896 22.6374C88.8896 26.2432 91.4675 28.9827 95.3109 28.9827Z" fill="#2C2C2C"/>
<path d="M102.824 28.6079H106.644V16.6196H102.824V28.6079ZM102.824 14.9572H106.644V11.8665H102.824V14.9572Z" fill="#2C2C2C"/>
<path d="M108.301 32.5651H112.121V27.3671H112.168C112.918 28.3739 114.019 28.9827 115.566 28.9827C118.707 28.9827 120.792 26.5007 120.792 22.6139C120.792 19.0081 118.847 16.2686 115.66 16.2686C114.019 16.2686 112.848 16.9944 112.027 18.0715H111.957V16.6198H108.301V32.5651ZM114.582 26.0325C112.941 26.0325 112.004 24.6978 112.004 22.7544C112.004 20.811 112.848 19.3359 114.512 19.3359C116.152 19.3359 116.925 20.6939 116.925 22.7544C116.925 24.7915 116.035 26.0325 114.582 26.0325Z" fill="#2C2C2C"/>
<path d="M127.012 28.9827C130.152 28.9827 132.472 27.6247 132.472 25.0022C132.472 21.9349 129.988 21.3964 127.879 21.0451C126.355 20.7642 124.996 20.6471 124.996 19.8042C124.996 19.0549 125.723 18.7037 126.66 18.7037C127.715 18.7037 128.441 19.0315 128.582 20.1086H132.097C131.91 17.7437 130.082 16.2686 126.684 16.2686C123.848 16.2686 121.504 17.5798 121.504 20.1086C121.504 22.9183 123.731 23.4803 125.816 23.8315C127.41 24.1125 128.863 24.2295 128.863 25.3066C128.863 26.0793 128.137 26.5008 126.988 26.5008C125.723 26.5008 124.926 25.9154 124.785 24.7212H121.176C121.293 27.3671 123.496 28.9827 127.012 28.9827Z" fill="#2C2C2C"/>
<path d="M137.661 28.9591C139.325 28.9591 140.379 28.3035 141.246 27.1328H141.317V28.6079H144.973V16.6196H141.153V23.3162C141.153 24.7445 140.356 25.7279 139.043 25.7279C137.825 25.7279 137.239 25.0021 137.239 23.6908V16.6196H133.442V24.4869C133.442 27.1562 134.895 28.9591 137.661 28.9591Z" fill="#2C2C2C"/>
<path d="M146.635 28.6081H150.455V21.8881C150.455 20.4598 151.158 19.4529 152.353 19.4529C153.501 19.4529 154.04 20.2022 154.04 21.49V28.6081H157.86V21.8881C157.86 20.4598 158.54 19.4529 159.759 19.4529C160.907 19.4529 161.446 20.2022 161.446 21.49V28.6081H165.266V20.811C165.266 18.1183 163.907 16.2686 161.188 16.2686C159.641 16.2686 158.352 16.9242 157.415 18.3759H157.368C156.759 17.0881 155.564 16.2686 153.993 16.2686C152.259 16.2686 151.111 17.0881 150.361 18.329H150.291V16.6198H146.635V28.6081Z" fill="#2C2C2C"/>
<path fill-rule="evenodd" clip-rule="evenodd" d="M19.6285 39.3398C30.4144 39.3398 39.1579 30.6039 39.1579 19.8276C39.1579 9.05133 30.4144 0.31543 19.6285 0.31543C8.84272 0.31543 0.0991211 9.05133 0.0991211 19.8276C0.0991211 30.6039 8.84272 39.3398 19.6285 39.3398ZM22.6429 15.3911C24.3075 13.7278 24.3075 11.0311 22.6429 9.36778C20.9781 7.70448 18.279 7.70448 16.6142 9.36778C14.9495 11.0311 14.9495 13.7278 16.6142 15.3911L19.6285 18.4027L22.6429 15.3911ZM24.069 22.8393C25.7338 24.5026 28.4328 24.5026 30.0976 22.8393C31.7623 21.176 31.7623 18.4793 30.0976 16.816C28.4328 15.1528 25.7338 15.1528 24.069 16.816L21.0547 19.8277L24.069 22.8393ZM22.6429 30.2875C24.3075 28.6242 24.3075 25.9275 22.6429 24.2642L19.6285 21.2526L16.6142 24.2642C14.9495 25.9275 14.9495 28.6242 16.6142 30.2875C18.279 31.9508 20.9781 31.9508 22.6429 30.2875ZM9.15943 22.8393C7.4947 21.176 7.4947 18.4793 9.15943 16.816C10.8242 15.1528 13.5233 15.1528 15.1881 16.816L18.2024 19.8277L15.1881 22.8393C13.5233 24.5026 10.8242 24.5026 9.15943 22.8393Z" fill="#2C2C2C"/>
</g>
<defs>
<clipPath id="clip0_247_101">
<rect width="166" height="40" fill="white"/>
</clipPath>
</defs>
</svg>
