<svg width="130" height="130" viewBox="0 0 130 130" fill="none" xmlns="http://www.w3.org/2000/svg">
<circle cx="65" cy="65" r="65" fill="#EECE38"/>
<path d="M70.0327 19.8238C69.3404 19.747 68.7311 19.5796 68.2047 19.3217C67.6873 19.0648 67.2614 18.7228 66.9268 18.2957C66.6013 17.8696 66.3711 17.3635 66.2364 16.7772C66.1017 16.1909 66.0749 15.535 66.156 14.8094C66.2401 14.057 66.4131 13.4051 66.6749 12.8538C66.9468 12.2945 67.2895 11.8337 67.7032 11.4715C68.1268 11.1014 68.6109 10.8422 69.1553 10.694C69.7008 10.5369 70.2972 10.4943 70.9445 10.5661C71.4569 10.6229 71.9169 10.742 72.3244 10.9232C72.732 11.1045 73.0745 11.3375 73.3522 11.6222C73.6298 11.9069 73.8345 12.2335 73.9663 12.6018C74.0981 12.9701 74.1394 13.3737 74.0904 13.8126L72.2323 14.0689C72.2843 13.6847 72.2434 13.3583 72.1096 13.0895C71.9758 12.8207 71.7816 12.6042 71.5269 12.4399C71.2812 12.2766 71.0055 12.178 70.6999 12.1441C70.4391 12.1152 70.1724 12.14 69.8997 12.2186C69.627 12.2971 69.3737 12.4459 69.1399 12.6648C68.9071 12.8747 68.7062 13.1653 68.5373 13.5365C68.3694 13.8988 68.2544 14.3576 68.1923 14.913C68.1122 15.6296 68.1505 16.2233 68.3073 16.6941C68.464 17.1649 68.7146 17.5283 69.0592 17.7842C69.4038 18.04 69.8053 18.1934 70.2638 18.2443C70.7403 18.2972 71.1289 18.2405 71.4296 18.0744C71.7313 17.8993 71.9587 17.657 72.1116 17.3475C72.2645 17.038 72.366 16.7001 72.416 16.3338L74.0986 16.7926C74.0446 17.2763 73.9266 17.7212 73.7447 18.1272C73.5638 18.5243 73.3119 18.8636 72.9892 19.1452C72.6665 19.4268 72.2569 19.6308 71.7604 19.757C71.2738 19.8754 70.6979 19.8976 70.0327 19.8238Z" fill="#2C2C2C"/>
<path d="M79.0562 21.7934C78.3787 21.5668 77.8273 21.2351 77.402 20.7981C76.9796 20.3526 76.7104 19.8205 76.5944 19.2018C76.4813 18.5745 76.5571 17.8678 76.8219 17.0817C77.0868 16.2956 77.4527 15.6907 77.9199 15.267C78.3956 14.8462 78.9339 14.5937 79.5348 14.5094C80.1472 14.4195 80.7835 14.4849 81.4438 14.7057C82.1127 14.9294 82.6598 15.2598 83.0851 15.6967C83.519 16.1365 83.7925 16.6701 83.9056 17.2974C84.0302 17.9189 83.9601 18.6228 83.6953 19.4089C83.4247 20.2121 83.0473 20.8226 82.563 21.2406C82.0872 21.6615 81.5446 21.9126 80.9352 21.994C80.3343 22.0782 79.708 22.0114 79.0562 21.7934ZM79.5825 20.4435C79.9084 20.5525 80.2087 20.5674 80.4835 20.4881C80.7668 20.4118 81.0161 20.2384 81.2312 19.9681C81.4577 19.6921 81.6459 19.332 81.7955 18.8876C81.9538 18.4177 82.0234 17.9989 82.0041 17.6312C81.9963 17.2578 81.9011 16.9455 81.7186 16.6943C81.5389 16.4346 81.269 16.2445 80.9088 16.124C80.5915 16.0179 80.2912 16.003 80.0078 16.0794C79.7245 16.1558 79.471 16.3277 79.2473 16.5951C79.0322 16.8654 78.8483 17.227 78.6958 17.6799C78.4511 18.4062 78.407 19.0046 78.5633 19.4752C78.7282 19.9487 79.068 20.2714 79.5825 20.4435Z" fill="#2C2C2C"/>
<path d="M84.8432 23.774L86.9883 20.0905L88.4183 17.6349L89.8032 18.4355L88.6746 20.3465L88.8859 20.4686C89.26 20.0597 89.6256 19.7552 89.9826 19.5552C90.3519 19.352 90.7245 19.26 91.1003 19.2792C91.4806 19.2907 91.8663 19.4095 92.2575 19.6356C92.9695 20.0473 93.3602 20.6066 93.4295 21.3136C93.5112 22.0173 93.2457 22.8954 92.6328 23.9478L90.7465 27.1869L89.0564 26.2098L90.8338 23.1578C91.2061 22.5186 91.3823 22.0005 91.3625 21.6035C91.3473 21.1987 91.1558 20.89 90.788 20.6774C90.4829 20.501 90.1679 20.4491 89.8432 20.5219C89.523 20.5869 89.2128 20.7514 88.9126 21.0155C88.6202 21.2841 88.3498 21.6227 88.1013 22.0314L86.5214 24.7443L84.8432 23.774Z" fill="#2C2C2C"/>
<path d="M94.5465 30.4184C93.9329 29.9131 93.6122 29.3801 93.5845 28.8194C93.5695 28.2574 93.853 27.6256 94.435 26.9239L96.4232 24.5271L95.6388 23.8812L96.6192 22.7417L97.1317 23.1637C97.3676 23.3463 97.5695 23.4424 97.7375 23.4521C97.9124 23.4675 98.0916 23.393 98.2751 23.2283L98.9971 22.6127L99.8547 23.3189L98.8433 24.5382L100.224 25.675L99.2125 26.8943L97.8319 25.7574L95.9389 28.0396C95.7314 28.2897 95.638 28.5226 95.6585 28.7383C95.6848 28.9471 95.8165 29.1491 96.0536 29.3443C96.1861 29.4534 96.3231 29.5428 96.4647 29.6127C96.6133 29.6882 96.7588 29.7321 96.9013 29.7442L95.7516 31.1302C95.4848 31.0274 95.2521 30.9118 95.0536 30.7833C94.855 30.6549 94.686 30.5332 94.5465 30.4184Z" fill="#2C2C2C"/>
<path d="M98.2544 33.9371C97.9914 33.6394 97.8161 33.3249 97.7284 32.9936C97.6407 32.6624 97.6491 32.3308 97.7537 31.999C97.8643 31.674 98.086 31.3656 98.4187 31.0738C98.7175 30.8119 99.0132 30.6487 99.3058 30.5843C99.6043 30.5267 99.9103 30.5525 100.224 30.6619C100.537 30.7712 100.872 30.9458 101.228 31.1856C101.585 31.4255 101.966 31.7212 102.373 32.0728C102.617 32.2671 102.819 32.4204 102.978 32.5328C103.138 32.6451 103.281 32.7053 103.409 32.7134C103.537 32.7216 103.665 32.6691 103.794 32.5559C103.991 32.3833 104.095 32.1664 104.105 31.9052C104.121 31.6508 104.001 31.3781 103.744 31.0871C103.577 30.8977 103.384 30.7481 103.167 30.6385C102.956 30.5357 102.725 30.4858 102.475 30.4891C102.238 30.4931 101.993 30.5637 101.74 30.7009L100.958 29.0994C101.316 28.9178 101.666 28.8091 102.008 28.7734C102.357 28.7318 102.695 28.7597 103.022 28.8571C103.362 28.9554 103.688 29.1134 104.001 29.3313C104.314 29.5492 104.614 29.8206 104.9 30.1454C105.355 30.6596 105.64 31.1536 105.757 31.6272C105.88 32.1076 105.837 32.5838 105.627 33.0558C105.424 33.5218 105.048 33.996 104.498 34.4782L103.581 35.282C103.35 35.4844 103.112 35.6992 102.867 35.9262C102.634 36.1541 102.398 36.385 102.159 36.6188C101.926 36.8467 101.703 37.0783 101.489 37.3138L100.342 36.0146C100.507 35.8336 100.69 35.6376 100.889 35.4268C101.095 35.21 101.311 34.9907 101.537 34.7688L101.394 34.6064C101.051 34.7506 100.691 34.8266 100.312 34.8344C99.9392 34.849 99.5749 34.7843 99.2188 34.6403C98.8626 34.4963 98.5412 34.2619 98.2544 33.9371ZM99.8618 33.6084C99.9753 33.737 100.112 33.851 100.272 33.9507C100.44 34.0443 100.621 34.1133 100.817 34.1577C101.019 34.2089 101.232 34.2257 101.458 34.2081C101.683 34.1905 101.911 34.1348 102.141 34.0409L102.927 33.3341L103.092 33.6033C102.903 33.5657 102.709 33.4895 102.511 33.3747C102.326 33.2608 102.142 33.1277 101.96 32.9756C101.783 32.8303 101.603 32.6879 101.42 32.5485C101.237 32.4091 101.058 32.2956 100.884 32.2079C100.71 32.1202 100.54 32.0774 100.373 32.0795C100.213 32.0757 100.048 32.1483 99.8785 32.2971C99.6748 32.4757 99.5716 32.6863 99.5689 32.9288C99.5789 33.1721 99.6765 33.3986 99.8618 33.6084Z" fill="#2C2C2C"/>
<path d="M104.399 42.131C104.086 41.6038 103.889 41.0965 103.81 40.6092C103.73 40.1219 103.752 39.6637 103.875 39.2346C104.003 38.8133 104.218 38.4242 104.521 38.0672C104.832 37.7056 105.217 37.3892 105.676 37.118C106.158 36.8331 106.637 36.6393 107.112 36.5367C107.595 36.4295 108.063 36.4204 108.516 36.5093C108.968 36.5983 109.389 36.7845 109.779 37.0678C110.173 37.359 110.52 37.7565 110.82 38.2605C111.124 38.7722 111.299 39.2608 111.345 39.7263C111.395 40.1995 111.335 40.6382 111.165 41.0423C111.003 41.4418 110.745 41.7936 110.389 42.0978L108.991 40.8337C109.238 40.6665 109.415 40.4781 109.522 40.2685C109.641 40.062 109.693 39.8482 109.677 39.627C109.661 39.4059 109.586 39.1829 109.452 38.9581C109.323 38.741 109.167 38.5763 108.985 38.4641C108.802 38.3518 108.591 38.2881 108.35 38.2729C108.122 38.2609 107.873 38.2928 107.603 38.3687C107.337 38.4523 107.053 38.5837 106.749 38.7629C106.329 39.0111 106.003 39.2768 105.772 39.56C105.549 39.8386 105.424 40.1324 105.397 40.4414C105.383 40.7536 105.473 41.0725 105.667 41.3981C105.851 41.7082 106.059 41.9157 106.29 42.0205C106.525 42.133 106.761 42.1768 106.999 42.1517C107.244 42.1221 107.479 42.0569 107.702 41.9561L108.271 43.6006C107.954 43.7566 107.622 43.853 107.276 43.8898C106.929 43.9266 106.586 43.8885 106.245 43.7754C105.905 43.6623 105.577 43.4735 105.262 43.2091C104.954 42.9401 104.667 42.5807 104.399 42.131Z" fill="#2C2C2C"/>
<path d="M107.823 49.1651C107.53 48.4274 107.508 47.8063 107.756 47.302C108.015 46.8027 108.569 46.3858 109.419 46.0515L112.322 44.9094L111.948 43.9663L113.359 43.4403L113.603 44.0564C113.721 44.3298 113.851 44.5111 113.994 44.6004C114.139 44.6981 114.332 44.7191 114.573 44.6632L115.503 44.4715L115.912 45.5026L114.436 46.0836L115.093 47.7434L113.617 48.3244L112.959 46.6645L110.195 47.752C109.892 47.8712 109.697 48.0302 109.611 48.229C109.533 48.4244 109.55 48.6647 109.663 48.9497C109.726 49.109 109.803 49.2533 109.893 49.3825C109.987 49.5202 110.093 49.6286 110.212 49.7078L108.533 50.3682C108.349 50.1498 108.202 49.9366 108.09 49.7286C107.978 49.5206 107.889 49.3327 107.823 49.1651Z" fill="#2C2C2C"/>
<path d="M110.512 60.6068C110.459 60.0686 110.47 59.5785 110.545 59.1365C110.611 58.7044 110.732 58.3212 110.909 57.9871C111.094 57.652 111.325 57.3668 111.602 57.1315C111.887 56.8953 112.214 56.705 112.582 56.5604C112.95 56.4248 113.359 56.335 113.809 56.2911L119.225 55.7625L119.416 57.7134L114.069 58.2355C113.61 58.2803 113.234 58.3894 112.942 58.5628C112.66 58.7443 112.461 58.9856 112.345 59.2867C112.23 59.5968 112.195 59.9761 112.239 60.4246C112.284 60.8821 112.393 61.2518 112.566 61.5337C112.739 61.8157 112.982 62.0139 113.293 62.1284C113.613 62.2421 114.003 62.2765 114.462 62.2316L119.809 61.7096L120 63.6471L114.585 64.1758C113.414 64.29 112.473 64.0514 111.76 63.4598C111.057 62.8674 110.641 61.9164 110.512 60.6068Z" fill="#2C2C2C"/>
<path d="M110.502 70.3163C110.555 69.8415 110.648 69.4165 110.78 69.0412C110.913 68.6658 111.081 68.3443 111.283 68.0764C111.494 67.8185 111.73 67.6179 111.992 67.4744C112.261 67.3409 112.556 67.2691 112.876 67.259L113.277 68.813C113.066 68.826 112.862 68.8988 112.665 69.0312C112.468 69.1727 112.304 69.3723 112.176 69.6302C112.047 69.888 111.961 70.2096 111.918 70.5948C111.875 70.9889 111.899 71.3044 111.991 71.5413C112.092 71.7791 112.255 71.9104 112.479 71.9352C112.65 71.954 112.792 71.9061 112.905 71.7916C113.017 71.6861 113.122 71.5163 113.221 71.2824C113.319 71.0574 113.418 70.7737 113.52 70.4312C113.639 70.0997 113.763 69.7642 113.891 69.4248C114.028 69.0952 114.194 68.7916 114.388 68.5138C114.582 68.245 114.819 68.0353 115.1 67.8849C115.379 67.7434 115.721 67.695 116.126 67.7396C116.567 67.7881 116.936 67.9467 117.234 68.2153C117.531 68.4838 117.745 68.852 117.875 69.3197C118.014 69.7974 118.048 70.3498 117.978 70.9769C117.914 71.5592 117.776 72.0609 117.565 72.482C117.355 72.9031 117.086 73.2362 116.758 73.4812C116.43 73.7352 116.045 73.8832 115.603 73.9252L115.294 72.2861C115.521 72.284 115.724 72.2202 115.902 72.0947C116.079 71.9781 116.22 71.8123 116.326 71.5973C116.441 71.3833 116.515 71.1239 116.549 70.8193C116.59 70.4431 116.56 70.1405 116.458 69.9117C116.355 69.6918 116.2 69.5704 115.994 69.5476C115.823 69.5288 115.676 69.5806 115.553 69.7031C115.43 69.8256 115.319 70.0083 115.219 70.2512C115.128 70.4951 115.028 70.7833 114.918 71.1158C114.808 71.4572 114.684 71.7927 114.547 72.1222C114.42 72.4527 114.264 72.7484 114.08 73.0093C113.897 73.2702 113.67 73.4674 113.4 73.6009C113.131 73.7344 112.794 73.7788 112.389 73.7342C111.921 73.6827 111.535 73.5132 111.23 73.2257C110.925 72.9472 110.708 72.5606 110.581 72.066C110.454 71.5714 110.428 70.9882 110.502 70.3163Z" fill="#2C2C2C"/>
<path d="M112.294 82.4538L113.766 81.476L114.482 83.2624L114.58 83.2705L115.472 81.5683L116.915 82.6601L115.397 83.91L115.424 83.9923L117.335 84.3066L116.688 86.0141L115.045 84.9915L114.966 85.0483L115.29 86.9478L113.474 86.8426L113.929 84.9907L113.845 84.9446L112.128 85.8017L111.671 84.0981L113.605 83.9298L113.639 83.8413L112.294 82.4538Z" fill="#2C2C2C"/>
<path d="M101.764 92.6756C102.175 92.1158 102.624 91.6728 103.111 91.3466C103.593 91.0277 104.102 90.8301 104.641 90.7538C105.174 90.6849 105.729 90.7383 106.306 90.914C106.883 91.0897 107.468 91.3934 108.059 91.825C108.671 92.2725 109.152 92.7467 109.502 93.2477C109.853 93.7612 110.083 94.2868 110.192 94.8247C110.303 95.3751 110.288 95.9224 110.145 96.4665C110.01 97.016 109.75 97.5525 109.365 98.0759C109.06 98.4903 108.728 98.8283 108.367 99.0901C108.006 99.3518 107.633 99.5317 107.247 99.6297C106.86 99.7277 106.474 99.7418 106.088 99.6721C105.702 99.6025 105.33 99.4371 104.973 99.176L105.675 97.4431C105.984 97.6795 106.288 97.8069 106.589 97.8252C106.889 97.8435 107.175 97.7836 107.444 97.6454C107.709 97.5145 107.932 97.3255 108.114 97.0783C108.269 96.8675 108.38 96.6247 108.448 96.35C108.515 96.0752 108.512 95.7823 108.438 95.4713C108.371 95.1655 108.219 94.8472 107.98 94.5164C107.748 94.1908 107.406 93.8629 106.954 93.5325C106.37 93.1063 105.834 92.8436 105.347 92.7444C104.859 92.6452 104.418 92.6807 104.023 92.8509C103.629 93.021 103.296 93.2915 103.023 93.6623C102.739 94.0475 102.595 94.4115 102.59 94.754C102.592 95.1019 102.689 95.4191 102.883 95.7054C103.076 95.9917 103.319 96.2477 103.613 96.4734L102.375 97.6984C101.981 97.4107 101.653 97.0871 101.39 96.7277C101.135 96.3735 100.965 95.9869 100.881 95.5678C100.797 95.1487 100.823 94.6932 100.961 94.2014C101.1 93.7221 101.368 93.2135 101.764 92.6756Z" fill="#2C2C2C"/>
<path d="M95.5534 99.5004C96.0872 99.027 96.65 98.7148 97.2419 98.5639C97.8397 98.4198 98.437 98.4512 99.0336 98.6581C99.6362 98.8717 100.214 99.2882 100.768 99.9076C101.321 100.527 101.666 101.144 101.803 101.758C101.934 102.379 101.886 102.97 101.661 103.531C101.436 104.105 101.063 104.623 100.543 105.085C100.015 105.552 99.456 105.861 98.8642 106.012C98.2656 106.169 97.665 106.141 97.0623 105.927C96.459 105.726 95.8806 105.316 95.3273 104.697C94.7619 104.064 94.4174 103.434 94.2938 102.808C94.1633 102.187 94.214 101.593 94.4457 101.026C94.6707 100.464 95.0399 99.9558 95.5534 99.5004ZM96.4681 100.626C96.2113 100.854 96.0492 101.106 95.9818 101.383C95.9077 101.666 95.9349 101.967 96.0636 102.288C96.1916 102.621 96.4119 102.962 96.7247 103.312C97.0555 103.683 97.3858 103.951 97.7157 104.117C98.0449 104.295 98.3642 104.368 98.6737 104.335C98.9892 104.308 99.2888 104.169 99.5726 103.918C99.8226 103.696 99.9847 103.444 100.059 103.161C100.133 102.878 100.109 102.573 99.9872 102.247C99.8585 101.927 99.6348 101.588 99.316 101.231C98.8048 100.659 98.3053 100.324 97.8177 100.225C97.3234 100.133 96.8735 100.266 96.4681 100.626Z" fill="#2C2C2C"/>
<path d="M90.9573 103.525L93.1067 107.206L94.5397 109.66L93.1558 110.462L92.0484 108.539L91.8373 108.661C92.0086 109.187 92.0931 109.655 92.0907 110.063C92.085 110.483 91.9807 110.851 91.7779 111.167C91.5796 111.49 91.2849 111.765 90.894 111.992C90.1825 112.405 89.5013 112.466 88.8505 112.176C88.1965 111.898 87.5624 111.233 86.9482 110.182L85.058 106.945L86.7469 105.966L88.5279 109.016C88.9009 109.654 89.2654 110.063 89.6214 110.243C89.9819 110.43 90.3459 110.417 90.7134 110.204C91.0183 110.027 91.2195 109.78 91.3168 109.463C91.4188 109.154 91.4289 108.804 91.3473 108.413C91.2579 108.027 91.0965 107.625 90.8633 107.208L89.2801 104.497L90.9573 103.525Z" fill="#2C2C2C"/>
<path d="M80.3515 108.633C81.0963 108.353 81.7199 108.34 82.2222 108.594C82.7193 108.86 83.1292 109.419 83.4517 110.27L84.5535 113.18L85.5056 112.822L86.012 114.235L85.3899 114.469C85.1138 114.583 84.9299 114.71 84.838 114.85C84.7378 114.994 84.7138 115.186 84.7662 115.426L84.9444 116.356L83.9034 116.748L83.3429 115.268L81.6672 115.898L81.1067 114.418L82.7824 113.788L81.7333 111.018C81.6184 110.714 81.4618 110.518 81.2636 110.428C81.0687 110.348 80.8273 110.361 80.5395 110.469C80.3787 110.53 80.2328 110.604 80.1017 110.692C79.9621 110.783 79.8517 110.887 79.7704 111.004L79.1333 109.322C79.3552 109.142 79.5715 108.998 79.7819 108.89C79.9924 108.782 80.1823 108.696 80.3515 108.633Z" fill="#2C2C2C"/>
<path d="M75.4182 110.096C75.8083 110.017 76.1694 110.022 76.5013 110.112C76.8333 110.201 77.1175 110.374 77.3541 110.629C77.5817 110.887 77.7395 111.232 77.8275 111.665C77.9064 112.054 77.901 112.39 77.8112 112.675C77.7125 112.962 77.5375 113.213 77.2861 113.429C77.0347 113.646 76.7158 113.848 76.3295 114.036C75.9432 114.224 75.4957 114.407 74.987 114.583C74.6963 114.697 74.4623 114.794 74.2851 114.876C74.1079 114.958 73.9839 115.052 73.9132 115.158C73.8425 115.264 73.8242 115.401 73.8583 115.569C73.9104 115.825 74.0474 116.023 74.2695 116.162C74.4827 116.303 74.7799 116.335 75.1612 116.258C75.4094 116.208 75.6354 116.116 75.8391 115.983C76.0339 115.852 76.1923 115.678 76.3142 115.46C76.429 115.253 76.4897 115.006 76.4961 114.72L78.2793 114.843C78.2589 115.243 78.1791 115.599 78.0396 115.912C77.902 116.234 77.7093 116.512 77.4615 116.746C77.2066 116.99 76.9063 117.194 76.5608 117.355C76.2152 117.517 75.8297 117.641 75.4041 117.726C74.7303 117.862 74.1581 117.863 73.6877 117.728C73.2084 117.595 72.8157 117.32 72.5096 116.903C72.2053 116.496 71.9805 115.934 71.8351 115.219L71.5928 114.026C71.5318 113.726 71.4636 113.413 71.3884 113.088C71.306 112.773 71.2228 112.455 71.1387 112.131C71.0563 111.817 70.966 111.509 70.8677 111.207L72.57 110.863C72.6451 111.096 72.7246 111.352 72.8086 111.629C72.8945 111.915 72.9776 112.211 73.0582 112.517L73.271 112.474C73.3162 112.106 73.4299 111.757 73.6118 111.426C73.7849 111.096 74.0228 110.814 74.3257 110.578C74.6285 110.342 74.9927 110.181 75.4182 110.096ZM74.9029 111.648C74.7345 111.682 74.567 111.743 74.4004 111.832C74.2357 111.93 74.0852 112.052 73.9489 112.199C73.8038 112.348 73.6827 112.524 73.5856 112.727C73.4885 112.931 73.4234 113.156 73.3902 113.401L73.6135 114.432L73.2969 114.441C73.4242 114.296 73.5872 114.166 73.7856 114.053C73.9769 113.95 74.1843 113.857 74.4076 113.775C74.6221 113.695 74.8357 113.611 75.0483 113.522C75.261 113.433 75.4488 113.336 75.6118 113.229C75.7748 113.123 75.8969 112.997 75.9782 112.852C76.0612 112.716 76.0803 112.537 76.0355 112.316C75.9816 112.051 75.8499 111.857 75.6403 111.734C75.4236 111.621 75.1778 111.592 74.9029 111.648Z" fill="#2C2C2C"/>
<path d="M65.2274 111.316C65.8424 111.308 66.3818 111.391 66.8456 111.565C67.3093 111.739 67.6971 111.986 68.0091 112.306C68.3119 112.627 68.5433 113.007 68.703 113.446C68.8629 113.895 68.9464 114.385 68.9536 114.917C68.9612 115.475 68.8912 115.986 68.7436 116.447C68.5962 116.918 68.371 117.327 68.0681 117.673C67.7652 118.02 67.3935 118.291 66.9528 118.486C66.5031 118.681 65.9843 118.783 65.3964 118.791C64.7994 118.799 64.2871 118.706 63.8593 118.514C63.4224 118.321 63.0705 118.051 62.8034 117.703C62.5365 117.364 62.3592 116.966 62.2715 116.507L64.0685 115.929C64.0906 116.226 64.1664 116.473 64.2957 116.669C64.4161 116.875 64.5764 117.026 64.7767 117.122C64.9771 117.219 65.2084 117.265 65.4707 117.262C65.724 117.258 65.9449 117.206 66.1335 117.104C66.3221 117.003 66.4829 116.852 66.6159 116.652C66.74 116.461 66.8363 116.229 66.905 115.958C66.9647 115.687 66.9922 115.376 66.9874 115.024C66.9808 114.537 66.9119 114.124 66.7806 113.783C66.6495 113.451 66.456 113.197 66.2003 113.02C65.9357 112.852 65.6135 112.771 65.2336 112.776C64.8718 112.781 64.5878 112.857 64.3818 113.004C64.1666 113.151 64.0108 113.333 63.9142 113.551C63.8178 113.778 63.7576 114.013 63.7338 114.257L62.0195 113.928C62.0419 113.576 62.1233 113.242 62.2638 112.924C62.4042 112.607 62.6085 112.329 62.8767 112.091C63.1449 111.853 63.4725 111.664 63.8596 111.524C64.2469 111.392 64.7028 111.323 65.2274 111.316Z" fill="#2C2C2C"/>
<path d="M57.3576 110.772C58.1453 110.886 58.6972 111.175 59.0133 111.64C59.3192 112.112 59.4064 112.799 59.2749 113.7L58.8258 116.777L59.8329 116.923L59.5893 118.404L58.9313 118.309C58.6346 118.275 58.412 118.297 58.2634 118.376C58.1058 118.453 57.9916 118.61 57.9206 118.845L57.6248 119.745L56.5237 119.586L56.7522 118.02L54.9797 117.764L55.2082 116.198L56.9806 116.455L57.4082 113.525C57.4551 113.204 57.4135 112.957 57.2834 112.783C57.1521 112.618 56.9342 112.514 56.6299 112.47C56.4598 112.445 56.2961 112.439 56.1387 112.453C55.9723 112.465 55.8251 112.503 55.697 112.567L55.9567 110.787C56.2383 110.737 56.4974 110.715 56.7341 110.722C56.9707 110.729 57.1785 110.746 57.3576 110.772Z" fill="#2C2C2C"/>
<path d="M46.0521 107.406C46.5469 107.628 46.9681 107.881 47.3157 108.166C47.6587 108.438 47.9319 108.734 48.1351 109.052C48.3345 109.379 48.4678 109.721 48.5349 110.077C48.5982 110.442 48.6014 110.819 48.5443 111.208C48.479 111.594 48.3534 111.992 48.1676 112.403L45.9326 117.346L44.1388 116.541L46.3459 111.66C46.5354 111.241 46.6274 110.862 46.6217 110.523C46.6041 110.189 46.4931 109.897 46.2886 109.647C46.0759 109.393 45.7634 109.174 45.351 108.989C44.9304 108.8 44.5543 108.71 44.2227 108.72C43.891 108.729 43.5979 108.84 43.3434 109.052C43.0851 109.272 42.8612 109.591 42.6717 110.01L40.4645 114.892L38.6831 114.092L40.9181 109.149C41.4011 108.081 42.0774 107.386 42.947 107.065C43.8129 106.751 44.8479 106.865 46.0521 107.406Z" fill="#2C2C2C"/>
<path d="M37.6821 102.604C38.069 102.886 38.3927 103.178 38.6532 103.48C38.9137 103.781 39.11 104.086 39.2421 104.395C39.3615 104.705 39.4185 105.009 39.413 105.307C39.3948 105.606 39.3105 105.897 39.16 106.178L37.608 105.75C37.7017 105.561 37.7399 105.349 37.7226 105.113C37.698 104.872 37.6056 104.631 37.4454 104.392C37.2852 104.152 37.0481 103.918 36.7342 103.689C36.413 103.455 36.1264 103.318 35.8744 103.28C35.6172 103.249 35.4217 103.324 35.2882 103.506C35.1867 103.644 35.1577 103.79 35.2011 103.945C35.2373 104.094 35.3325 104.27 35.4869 104.471C35.6339 104.668 35.8311 104.896 36.0784 105.154C36.3078 105.422 36.5381 105.696 36.7694 105.976C36.988 106.258 37.1697 106.553 37.3145 106.859C37.4519 107.161 37.5162 107.47 37.5073 107.787C37.4911 108.099 37.3628 108.419 37.1224 108.746C36.8606 109.103 36.5387 109.343 36.1566 109.466C35.7745 109.59 35.3475 109.591 34.8757 109.47C34.3912 109.352 33.8934 109.106 33.3824 108.733C32.9079 108.388 32.5399 108.019 32.2783 107.627C32.0168 107.235 31.861 106.837 31.811 106.432C31.7536 106.021 31.8167 105.615 32.0001 105.213L33.5807 105.762C33.469 105.96 33.4235 106.167 33.4442 106.383C33.4575 106.594 33.5314 106.798 33.6658 106.997C33.7949 107.203 33.9836 107.396 34.2318 107.577C34.5384 107.801 34.8167 107.925 35.0667 107.951C35.3093 107.972 35.4921 107.898 35.615 107.731C35.7165 107.593 35.7445 107.44 35.6991 107.273C35.6537 107.106 35.5502 106.919 35.3885 106.712C35.2215 106.512 35.0207 106.281 34.786 106.021C34.544 105.755 34.3137 105.481 34.0951 105.199C33.8711 104.924 33.6914 104.642 33.5559 104.354C33.4204 104.065 33.3617 103.771 33.3799 103.471C33.3981 103.172 33.5273 102.859 33.7677 102.531C34.0455 102.153 34.3854 101.904 34.7875 101.784C35.1822 101.658 35.6265 101.664 36.1202 101.801C36.6139 101.937 37.1346 102.205 37.6821 102.604Z" fill="#2C2C2C"/>
<path d="M26.2179 98.1088L26.3391 99.868L24.4274 99.6005L24.3715 99.6816L25.4123 101.297L23.745 102.004L23.4091 100.071L23.3241 100.053L22.1017 101.55L20.9349 100.143L22.6413 99.2295L22.6312 99.1325L20.815 98.4707L21.8082 96.9515L23.196 98.2642L23.2779 98.2143L23.3832 96.3037L25.0943 96.754L24.2808 98.511L24.3413 98.584L26.2179 98.1088Z" fill="#2C2C2C"/>
<path d="M22.5242 83.9235C22.8078 84.5573 22.9711 85.1657 23.0141 85.7486C23.0534 86.3232 22.9727 86.8623 22.7722 87.3659C22.568 87.8612 22.2462 88.3151 21.8067 88.7274C21.3673 89.1397 20.813 89.4946 20.1438 89.7919C19.4498 90.1002 18.7979 90.2812 18.1881 90.3351C17.5663 90.3843 16.9941 90.3228 16.4712 90.1504C15.9365 89.9736 15.4673 89.6886 15.0636 89.2956C14.6516 88.9062 14.313 88.4152 14.0478 87.8225C13.8378 87.3533 13.7082 86.8977 13.659 86.4558C13.6098 86.0138 13.6382 85.6015 13.7443 85.2189C13.8504 84.8362 14.0295 84.4951 14.2817 84.1956C14.534 83.896 14.8625 83.6563 15.2673 83.4765L16.4291 84.9439C16.0702 85.0935 15.8082 85.2937 15.6432 85.5447C15.4781 85.7956 15.3889 86.0721 15.3755 86.3741C15.3584 86.6679 15.4125 86.9547 15.5378 87.2346C15.6446 87.4733 15.801 87.69 16.007 87.8847C16.2129 88.0794 16.4698 88.2218 16.7776 88.312C17.0771 88.4059 17.4303 88.4316 17.8372 88.389C18.2357 88.3501 18.6911 88.2168 19.2033 87.9893C19.8643 87.6956 20.3589 87.3624 20.6873 86.9895C21.0157 86.6167 21.2035 86.2175 21.2507 85.7919C21.2979 85.3663 21.2276 84.9436 21.0397 84.5238C20.8445 84.0875 20.5989 83.7821 20.3029 83.6077C19.9987 83.4369 19.674 83.3641 19.3286 83.3892C18.9833 83.4143 18.6395 83.498 18.2971 83.6403L17.8431 81.962C18.2893 81.7638 18.7341 81.6402 19.1777 81.5912C19.613 81.5458 20.0341 81.5906 20.4412 81.7256C20.8482 81.8605 21.232 82.1094 21.5925 82.4723C21.941 82.8306 22.2516 83.3143 22.5242 83.9235Z" fill="#2C2C2C"/>
<path d="M19.6632 75.1473C19.8091 75.8443 19.8001 76.4861 19.6364 77.0725C19.4638 77.6608 19.1388 78.161 18.6614 78.5732C18.1752 78.9873 17.5247 79.2789 16.71 79.4482C15.8953 79.6174 15.1865 79.6082 14.5835 79.4204C13.9787 79.2238 13.4881 78.8884 13.1116 78.4142C12.7245 77.933 12.4598 77.3527 12.3177 76.6733C12.1736 75.9851 12.1835 75.3478 12.3472 74.7614C12.5091 74.1661 12.8332 73.6615 13.3194 73.2474C13.795 72.8264 14.4401 72.5313 15.2548 72.362C16.0872 72.1891 16.8068 72.2053 17.4134 72.4107C18.0182 72.6073 18.5098 72.9471 18.888 73.4302C19.2645 73.9044 19.5229 74.4767 19.6632 75.1473ZM18.2281 75.3764C18.1579 75.0411 18.0191 74.7753 17.8117 74.5791C17.6025 74.3739 17.3264 74.2471 16.9836 74.1987C16.6301 74.1432 16.2232 74.1633 15.7627 74.259C15.2756 74.3602 14.8777 74.5119 14.5689 74.7141C14.2494 74.9094 14.0269 75.149 13.9015 75.4328C13.7672 75.7185 13.7389 76.0466 13.8164 76.4172C13.8848 76.7437 14.0235 77.0094 14.2328 77.2146C14.442 77.4197 14.719 77.5509 15.0636 77.6082C15.4064 77.6566 15.8125 77.6321 16.2818 77.5346C17.0345 77.3783 17.5752 77.114 17.9039 76.7419C18.2308 76.361 18.3388 75.9058 18.2281 75.3764Z" fill="#2C2C2C"/>
<path d="M18.4565 69.1648L14.1824 69.1875L11.333 69.2026L11.3245 67.6073L13.5498 67.609L13.5485 67.3657C13.0052 67.2514 12.5565 67.0916 12.2026 66.8861C11.8396 66.6717 11.5713 66.3983 11.3977 66.0657C11.215 65.7332 11.1224 65.3416 11.12 64.891C11.1156 64.0708 11.4018 63.4519 11.9785 63.0342C12.5461 62.6076 13.4405 62.391 14.6617 62.3846L18.4202 62.3646L18.4306 64.3114L14.8892 64.3302C14.1474 64.3341 13.6098 64.4451 13.2763 64.6632C12.9337 64.8813 12.7635 65.2022 12.7658 65.6258C12.7677 65.9773 12.8823 66.2741 13.1098 66.5163C13.3282 66.7585 13.6277 66.9417 14.0083 67.0658C14.3888 67.181 14.8188 67.2418 15.2983 67.2483L18.4462 67.2316L18.4565 69.1648Z" fill="#2C2C2C"/>
<path d="M19.2916 57.4237C19.1651 58.2068 18.8663 58.7523 18.3951 59.0601C17.9164 59.3577 17.2261 59.4341 16.324 59.2895L13.2429 58.7955L13.0812 59.7965L11.5985 59.5314L11.7041 58.8774C11.7426 58.5823 11.7235 58.3601 11.6468 58.2109C11.5716 58.0528 11.4163 57.9366 11.1809 57.8623L10.2824 57.5539L10.4592 56.4594L12.0266 56.7107L12.3111 54.9488L13.8785 55.2002L13.594 56.9621L16.5278 57.4325C16.8493 57.484 17.0982 57.4463 17.2744 57.3194C17.4417 57.191 17.5498 56.9756 17.5987 56.673C17.626 56.504 17.634 56.3409 17.6227 56.1839C17.6129 56.018 17.5771 55.8708 17.5154 55.7422L19.2971 56.0279C19.3433 56.3092 19.3611 56.5676 19.3506 56.8033C19.34 57.039 19.3203 57.2458 19.2916 57.4237Z" fill="#2C2C2C"/>
<path d="M20.4648 52.4487C20.3396 52.8251 20.1556 53.1347 19.9128 53.3773C19.6701 53.62 19.3785 53.7801 19.0383 53.8576C18.7008 53.9265 18.3217 53.8915 17.901 53.7525C17.5232 53.6277 17.2326 53.4557 17.0291 53.2366C16.8285 53.0089 16.6965 52.7327 16.633 52.4078C16.5696 52.083 16.5518 51.7068 16.5797 51.2793C16.6076 50.8517 16.6712 50.3742 16.7705 49.8468C16.8158 49.5389 16.8468 49.288 16.8637 49.0942C16.8805 48.9003 16.8602 48.7465 16.8028 48.6325C16.7454 48.5186 16.6352 48.4347 16.472 48.3808C16.223 48.2986 15.9828 48.3189 15.7513 48.4419C15.5226 48.5562 15.3471 48.7973 15.2247 49.1652C15.145 49.4048 15.1125 49.6456 15.1272 49.8879C15.1447 50.1216 15.218 50.3452 15.3471 50.5587C15.4704 50.7609 15.6552 50.9359 15.9015 51.0837L14.9084 52.5645C14.5705 52.3485 14.2998 52.1024 14.0962 51.8262C13.8841 51.5473 13.7377 51.2425 13.6571 50.912C13.5707 50.5702 13.5429 50.2097 13.5738 49.8305C13.6046 49.4514 13.6884 49.0565 13.825 48.6459C14.0414 47.9957 14.3252 47.5007 14.6765 47.161C15.0306 46.8127 15.4651 46.6097 15.9799 46.5518C16.4861 46.4912 17.087 46.5757 17.7825 46.8054L18.9416 47.1883C19.2336 47.2848 19.5398 47.3812 19.8603 47.4776C20.1751 47.5626 20.4942 47.649 20.8176 47.7368C21.1324 47.8218 21.4458 47.8969 21.7577 47.9619L21.2111 49.6045C20.9707 49.5536 20.7089 49.4956 20.4256 49.4305C20.1337 49.3625 19.8347 49.2875 19.5284 49.2053L19.4601 49.4106C19.758 49.6325 20.0059 49.9043 20.2038 50.226C20.4045 50.5392 20.5324 50.8853 20.5873 51.2643C20.6423 51.6433 20.6015 52.0381 20.4648 52.4487ZM19.3687 51.232C19.4228 51.0695 19.4525 50.8942 19.4579 50.706C19.4548 50.5151 19.423 50.3242 19.3626 50.1333C19.3051 49.9339 19.2118 49.7416 19.0828 49.5566C18.9537 49.3715 18.7904 49.2036 18.5928 49.0529L17.5839 48.7339L17.7337 48.4558C17.7969 48.6381 17.8287 48.8432 17.8291 49.0712C17.8237 49.2879 17.8012 49.5131 17.7615 49.7468C17.7247 49.9721 17.6922 50.1987 17.6639 50.4268C17.6357 50.6548 17.6274 50.8657 17.6392 51.0595C17.651 51.2533 17.6999 51.4214 17.7859 51.5638C17.8634 51.7033 18.0094 51.8085 18.2241 51.8794C18.4817 51.9645 18.7162 51.947 18.9277 51.827C19.1334 51.6956 19.2804 51.4972 19.3687 51.232Z" fill="#2C2C2C"/>
<path d="M24.4696 43.0308C24.1703 43.5663 23.8294 43.991 23.4469 44.3048C23.0644 44.6187 22.656 44.8306 22.2219 44.9405C21.7922 45.0424 21.3462 45.0529 20.8842 44.9719C20.4142 44.8865 19.9461 44.7145 19.4798 44.4557C18.9898 44.1839 18.5807 43.8692 18.2525 43.5117C17.9164 43.1498 17.6729 42.7516 17.5223 42.3173C17.3716 41.8829 17.3211 41.4268 17.3708 40.9488C17.4249 40.463 17.595 39.9642 17.8811 39.4524C18.1715 38.9327 18.5071 38.536 18.8878 38.2624C19.273 37.9809 19.6835 37.8115 20.1193 37.7542C20.5472 37.6925 20.9826 37.738 21.4252 37.8908L21.0332 39.7314C20.7636 39.6024 20.5111 39.5448 20.2756 39.5586C20.0366 39.5601 19.8252 39.6233 19.6415 39.7483C19.4577 39.8733 19.302 40.05 19.1744 40.2784C19.0512 40.4988 18.9868 40.7159 18.9813 40.9295C18.9758 41.1431 19.027 41.3572 19.1349 41.5718C19.2392 41.7741 19.3923 41.9725 19.5942 42.1671C19.8005 42.3537 20.0577 42.5326 20.3659 42.7036C20.7927 42.9404 21.187 43.087 21.549 43.1434C21.903 43.1954 22.2207 43.155 22.5019 43.0223C22.7797 42.8772 23.0111 42.6393 23.1959 42.3086C23.372 41.9937 23.4474 41.7105 23.4221 41.4593C23.4013 41.2001 23.3203 40.9746 23.179 40.7828C23.0299 40.5865 22.8552 40.4174 22.655 40.2754L23.795 38.9581C24.0901 39.1528 24.3407 39.3898 24.5468 39.6693C24.753 39.9488 24.8928 40.2636 24.9663 40.6139C25.0397 40.9641 25.0411 41.3414 24.9704 41.7458C24.8918 42.1458 24.7249 42.5741 24.4696 43.0308Z" fill="#2C2C2C"/>
<path d="M28.8371 36.5499C28.3452 37.1736 27.8184 37.5061 27.2564 37.5476C26.693 37.5764 26.0521 37.3095 25.3337 36.7471L22.8799 34.8257L22.2511 35.623L21.0837 34.6745L21.4945 34.1536C21.6718 33.9142 21.7633 33.7107 21.7689 33.5431C21.7801 33.3685 21.7009 33.1918 21.5312 33.0131L20.8957 32.3091L21.5832 31.4375L22.8314 32.4149L23.9381 31.0117L25.1863 31.9891L24.0796 33.3922L26.416 35.2217C26.6721 35.4221 26.9081 35.5095 27.124 35.4837C27.3328 35.4523 27.5323 35.3162 27.7223 35.0752C27.8285 34.9406 27.9149 34.8019 27.9814 34.6591C28.0536 34.5093 28.094 34.3633 28.1027 34.221L29.5216 35.332C29.425 35.6003 29.3148 35.8349 29.1908 36.0359C29.0668 36.2369 28.9489 36.4082 28.8371 36.5499Z" fill="#2C2C2C"/>
<path d="M37.399 28.4393C36.96 28.7574 36.5304 28.9962 36.11 29.1558C35.7023 29.3175 35.3093 29.4072 34.9308 29.425C34.5471 29.4356 34.1833 29.3815 33.8395 29.2629C33.4904 29.1369 33.1602 28.9527 32.849 28.7101C32.5451 28.4622 32.2601 28.1561 31.9941 27.7916L28.7944 23.4067L30.3857 22.2539L33.5456 26.5841C33.8169 26.9559 34.1015 27.2233 34.3994 27.3863C34.6993 27.5368 35.0089 27.5855 35.3281 27.5326C35.6547 27.4743 36.0009 27.3127 36.3667 27.0477C36.7398 26.7773 37.0046 26.4964 37.1609 26.2049C37.3172 25.9133 37.3661 25.6049 37.3077 25.2795C37.2439 24.9468 37.0763 24.5946 36.805 24.2228L33.6452 19.8927L35.2255 18.7478L38.4252 23.1327C39.1168 24.0803 39.387 25.0101 39.2359 25.9219C39.0795 26.8264 38.4672 27.6655 37.399 28.4393Z" fill="#2C2C2C"/>
<path d="M45.7332 23.5754C45.2955 23.7703 44.8806 23.9056 44.4885 23.9814C44.0965 24.0572 43.7333 24.0758 43.3989 24.0371C43.0691 23.9865 42.7759 23.885 42.5193 23.7327C42.2673 23.5685 42.0561 23.3516 41.8857 23.0819L43.0283 21.9513C43.1462 22.1259 43.3123 22.2642 43.5265 22.3663C43.7489 22.4647 44.0043 22.504 44.2927 22.4842C44.5811 22.4644 44.9028 22.3755 45.2579 22.2174C45.6213 22.0556 45.8823 21.8753 46.0408 21.6764C46.1956 21.4692 46.2269 21.2628 46.1346 21.0571C46.0645 20.9007 45.9513 20.8031 45.7951 20.764C45.6472 20.7213 45.4469 20.7166 45.1944 20.7501C44.9502 20.7799 44.6541 20.8376 44.3061 20.9234C43.9591 20.9891 43.6061 21.0525 43.2471 21.1136C42.8926 21.1628 42.5459 21.174 42.207 21.1472C41.8763 21.1167 41.5748 21.0189 41.3026 20.8538C41.0387 20.685 40.8237 20.4155 40.6576 20.0452C40.4768 19.642 40.4273 19.2445 40.5092 18.8526C40.5911 18.4608 40.8016 18.0907 41.1408 17.7422C41.4845 17.3819 41.9454 17.0731 42.5235 16.8157C43.0603 16.5767 43.5643 16.4412 44.0354 16.4092C44.5065 16.3771 44.931 16.4399 45.3088 16.5975C45.6949 16.7514 46.0177 17.0074 46.2775 17.3656L45.0149 18.4608C44.8979 18.2661 44.7401 18.1241 44.5415 18.0348C44.3512 17.9418 44.1362 17.9043 43.8965 17.9221C43.6531 17.9318 43.3911 17.9991 43.1103 18.1241C42.7634 18.2785 42.5167 18.4575 42.3701 18.6609C42.2318 18.8607 42.2051 19.0552 42.29 19.2445C42.3601 19.4008 42.4792 19.5008 42.6474 19.5444C42.8156 19.588 43.03 19.5912 43.2908 19.5541C43.5479 19.5087 43.8481 19.4491 44.1915 19.3752C44.5431 19.2977 44.8961 19.2343 45.2505 19.1851C45.6013 19.1277 45.936 19.1119 46.2548 19.1378C46.5736 19.1637 46.8589 19.2588 47.1109 19.423C47.3629 19.5873 47.5719 19.8545 47.738 20.2248C47.9299 20.6527 47.9785 21.0704 47.8837 21.4778C47.7973 21.8816 47.5721 22.2632 47.2082 22.6226C46.8443 22.9821 46.3526 23.2997 45.7332 23.5754Z" fill="#2C2C2C"/>
<path d="M55.35 15.8977L53.7589 15.1257L54.9444 13.6077L54.9017 13.519L52.977 13.6127L53.1934 11.8205L55.0429 12.4938L55.1007 12.4292L54.407 10.627L56.2127 10.3203L56.1574 12.2497L56.2468 12.2894L57.7278 11.0504L58.5547 12.6654L56.7208 13.21L56.7234 13.3056L58.3334 14.3488L57.0888 15.6024L55.9654 14.0241L55.8718 14.04L55.35 15.8977Z" fill="#2C2C2C"/>
<circle cx="65" cy="65" r="35" fill="#2C2C2C"/>
<path d="M64.9999 45C53.9721 45 45 53.9719 45 64.9998C45 76.0279 53.9719 85 64.9999 85C76.0279 85 85 76.0281 85 64.9998C85 53.9719 76.0281 45 64.9999 45ZM46.1273 65.1837C53.0937 67.4435 59.1892 70.5597 64.5831 74.3463C63.3118 74.8411 62.1001 75.3561 60.9519 75.8794C55.6075 71.4707 49.2349 68.9833 46.3664 68.0116C46.2179 67.0893 46.1365 66.1452 46.1273 65.1837ZM46.5736 69.0941C49.497 70.1225 55.1311 72.4295 59.9881 76.3269C58.9361 76.8258 57.9443 77.3288 57.0123 77.8253C53.8793 75.1889 49.8268 73.2344 47.579 72.2624C47.1546 71.248 46.8165 70.1888 46.5736 69.0941ZM53.407 79.8848C51.2459 78.1978 49.4595 76.0517 48.1974 73.5938C50.3896 74.6045 53.5506 76.2489 56.1019 78.318C55.1257 78.857 54.2269 79.3833 53.407 79.8848ZM79.5729 76.9828C72.3999 78.3334 65.9098 81.3345 61.7555 83.5952C61.3569 83.5258 60.9626 83.4433 60.5728 83.3494C64.8012 80.9604 72.1693 77.3783 80.3127 76.0226C80.0757 76.3506 79.8296 76.6712 79.5729 76.9828ZM81.8936 73.4115C71.1383 74.3555 61.1647 79.8342 57.2701 82.2185C56.9394 82.0696 56.6143 81.9106 56.2943 81.7436C60.133 79.4975 64.2308 77.4155 68.4661 75.7862C74.4038 73.5017 78.4187 72.8294 82.3068 72.5288C82.1765 72.8271 82.0387 73.1215 81.8936 73.4115ZM83.7575 67.1008C75.17 64.6173 66.6076 65.6093 61.2003 66.776C61.2888 66.8295 61.8121 67.3085 61.9357 67.523C62.0583 67.5119 66.5956 66.785 69.1426 66.6171C73.5267 66.3285 78.5772 66.5773 83.6259 68.0599C83.5822 68.3267 83.5339 68.5917 83.4791 68.8543C77.0458 67.8425 70.1885 68.623 64.9549 69.9104C65.1617 70.1665 65.3036 70.4671 65.3728 70.792C70.4578 69.5608 77.0597 68.8251 83.2592 69.7878C83.2303 69.8981 83.2005 70.0079 83.1696 70.1174C76.6322 70.5604 70.7133 72.0684 65.6655 73.9361C65.5279 73.8379 65.3904 73.7424 65.253 73.6457C65.286 73.0564 64.9791 72.4998 64.4395 72.2236C65.1864 71.3794 64.7474 70.0111 63.6256 69.7672C63.7271 68.6496 62.613 67.8132 61.5665 68.2336C61.5236 68.0526 61.2343 67.2358 60.3998 67.1088C59.8715 67.0284 59.3092 67.1876 58.9477 67.6235C58.8388 67.5329 58.32 67.1392 57.5991 67.3297C57.1856 67.439 56.8261 67.6694 56.6045 68.1963C56.5303 68.2521 55.6626 67.9816 55.4667 67.8865C55.4667 67.8865 55.9142 67.8076 56.1071 67.8143C56.5048 67.0382 57.3654 66.5518 58.3001 66.6926C58.1518 66.3915 57.8989 66.1405 57.5641 66.0027C58.0112 64.9143 57.0204 63.7857 55.8867 64.0809C55.7723 63.0205 54.5788 62.4547 53.6854 63.0397C52.9947 62.2241 51.6833 62.4301 51.277 63.4186C51.2729 63.4296 51.2699 63.4405 51.2655 63.4516C50.1944 62.7035 48.7654 63.6765 49.0607 64.9438C48.9567 64.9629 48.8573 64.9978 48.7604 65.0394C48.523 64.9559 48.2874 64.8759 48.0536 64.7981C48.1764 64.6944 48.3065 64.6001 48.4499 64.5294C48.46 64.2343 48.5328 63.9443 48.6676 63.6745C48.6599 63.648 48.6663 63.6267 48.6983 63.6165C49.1648 62.7485 50.153 62.369 51.0357 62.6472C51.2472 62.3765 51.5224 62.1695 51.8336 62.0387L51.6823 61.3857C51.4875 61.3982 51.295 61.449 51.189 61.3035C51.0597 61.1247 51.1154 61.18 52.5581 57.587C52.64 57.383 52.5972 57.4644 56.6891 56.7043C56.5389 56.5453 56.3417 56.4747 56.145 56.4855C56.0636 56.0219 55.5788 55.7549 55.1521 55.9551C54.722 55.5117 54.0231 55.574 53.6622 56.0562C53.1814 55.9094 52.7133 56.3033 52.7545 56.8082C52.1552 56.7705 51.78 57.4659 52.1465 57.9663C51.648 58.1673 51.4073 58.7091 51.5665 59.2204C51.3533 59.2238 51.1455 59.2967 50.9746 59.4317C50.4834 58.5408 49.1667 58.8636 49.1217 59.8824C48.4281 59.4677 47.3751 59.939 47.6085 61.1222C47.1759 61.1222 46.8762 61.5555 47.0194 61.9747C46.7867 61.917 46.5578 61.9592 46.3525 62.0698C47.7641 53.0486 55.5884 46.1245 64.9997 46.1245C74.2626 46.1245 81.9884 52.8315 83.5759 61.6442C83.4165 61.2164 83.1139 60.8581 82.7168 60.6578C82.7956 59.6252 82.0762 58.6851 81.0823 58.6516C81.0849 58.6411 81.0849 58.6304 81.0898 58.6214C81.623 57.713 81.2514 56.5986 80.3369 56.3845C79.9585 56.296 79.583 56.3558 79.2587 56.5245C79.0877 55.895 78.5923 55.4622 77.9886 55.2376C77.6538 55.113 77.1615 55.2275 77.0255 55.2328L78.1996 56.9306C78.4802 57.3363 78.1928 57.8909 77.6994 57.8954C77.3782 57.8984 77.1193 58.1596 77.1193 58.4808V60.7345C77.1193 60.9912 77.1191 60.8525 77.0793 61.1916C76.9322 61.1569 76.6843 61.1685 76.5377 61.1361V57.7194H68.6956V60.7349C68.5649 60.7326 68.276 60.7323 67.947 60.7338V60.6106C67.947 60.1779 67.2942 60.179 67.2942 60.6106V60.7379C67.1144 60.7394 66.9443 60.7413 66.8028 60.743C66.6691 60.7448 65.3108 60.8003 64.9708 60.8225V60.6106C64.9708 60.1779 64.318 60.179 64.318 60.6106V60.8691C63.8103 60.9098 63.3491 60.9556 62.9404 61.0017V57.5698L65.5427 53.218L68.3553 56.9537H77.4431L74.0575 52.2084H64.4884L61.2343 57.3365H61.9308V61.1297C61.9278 61.1301 61.9244 61.1307 61.9212 61.1312C61.5551 61.1832 61.2556 61.2314 61.0235 61.2717L60.7344 59.7155L55.9714 60.6003L56.4302 63.07L56.4326 63.1126L56.1572 63.1638C56.217 63.2584 56.2708 63.3571 56.3145 63.4611C56.4326 63.4651 56.5498 63.4797 56.6649 63.5042C56.9844 63.6554 57.3475 63.8683 57.608 64.1441C61.1032 63.4247 64.6394 63.0432 67.9985 63.0432C72.3934 63.0432 76.383 63.6705 79.9164 64.913C80.9097 65.2621 82.5168 65.9412 83.811 66.5494C83.796 66.7339 83.778 66.9174 83.7575 67.1008ZM75.1241 62.6872C74.4064 62.5601 73.6752 62.453 72.9303 62.3662V60.5478C72.9303 59.781 73.4215 59.1593 74.0273 59.1593C74.6329 59.1593 75.1241 59.781 75.1241 60.5478V62.6872ZM71.6149 58.4078V60.8858C71.1252 60.8436 70.6436 60.8106 70.1732 60.7863V58.4078H71.6149ZM67.3483 61.3048V61.9359H66.5588V61.3212C66.8157 61.3135 67.0793 61.308 67.3483 61.3048ZM67.9228 61.3009C68.1755 61.3009 68.4341 61.3039 68.696 61.3086V61.8671L68.6873 61.9357H67.9228V61.3009ZM65.9844 61.3425V61.9359H64.971V61.3977C65.2939 61.3765 65.6317 61.3575 65.9844 61.3425ZM64.3182 61.4457V61.9359H62.9406V61.5801C63.3472 61.5332 63.8084 61.4863 64.3182 61.4457ZM61.9308 62.4695C61.7079 62.4967 61.4851 62.5259 61.262 62.5559L61.1284 61.8366C61.2995 61.8069 61.5091 61.7728 61.7536 61.7364L61.9308 62.4695ZM58.0965 62.166L57.2206 62.3285L56.9371 60.8026L57.8127 60.6398L58.0965 62.166ZM83.1165 65.2109C83.4066 64.9959 83.5309 64.665 83.4662 64.3438C83.4071 64.0508 83.2315 63.8282 82.8782 63.7343C82.9641 63.5466 83.1362 63.2489 82.9259 62.8906C82.5753 62.2931 82.0601 62.4689 81.8658 62.5113C81.8529 62.3236 81.857 61.9009 81.4346 61.6787C81.2001 61.5553 80.8823 61.5495 80.5187 61.7672C80.2347 61.402 79.9019 61.3058 79.6201 61.369C79.1895 61.4657 79.0704 61.8137 78.9956 62.0109C78.9154 61.9579 78.7491 61.8429 78.6767 61.8092C78.354 61.6611 78.0115 61.7462 77.7871 61.9582C77.4399 62.2865 77.5456 62.6624 77.5814 62.8499C77.3939 62.8771 77.214 62.8854 77.004 63.0726C76.8157 63.0286 76.6251 62.9875 76.4346 62.9459C76.4346 62.9459 76.5874 62.5747 76.9841 62.5128C76.9329 61.5733 77.935 60.9393 78.7577 61.3802C79.1786 60.7201 80.0992 60.6299 80.6387 61.1796C81.3356 60.8646 82.1532 61.2689 82.3177 62.0237C82.9191 61.9828 83.4716 62.3926 83.5866 63.0113C83.5866 63.0113 83.6904 63.0503 83.792 63.2598C84.0165 64.1331 83.9126 64.7649 83.8652 65.584C83.6179 65.4565 83.3685 65.332 83.1165 65.2109Z" fill="#EECE38"/>
<path d="M66.4122 57.3369H64.9702V59.849H66.4122V57.3369Z" fill="#EECE38"/>
<path d="M54.5326 60.5762L53.6572 60.7388L53.9406 62.2647L54.816 62.1021L54.5326 60.5762Z" fill="#EECE38"/>
<path d="M59.5967 54.0152C60.6065 54.0152 61.4252 53.1968 61.4252 52.1865C61.4252 51.1765 60.6065 50.3579 59.5967 50.3579C58.5863 50.3579 57.7676 51.1765 57.7676 52.1865C57.7676 53.1968 58.5863 54.0152 59.5967 54.0152Z" fill="#EECE38"/>
<path d="M58.7543 56.7498L52.9619 57.8936L51.7583 60.8907L51.8575 60.884C51.9756 60.875 52.084 60.9564 52.1111 61.073L52.3215 61.9817C52.4121 61.969 52.5035 61.96 52.5967 61.96C52.6007 61.96 52.604 61.9604 52.6078 61.9604L52.4497 61.1094L53.5396 58.1726L55.6252 60.0816C55.6276 60.0812 55.6293 60.0795 55.6312 60.0791L61.1438 59.0555L58.7543 56.7498Z" fill="#EECE38"/>
</svg>
