<svg width="250" height="250" viewBox="0 0 250 250" fill="none" xmlns="http://www.w3.org/2000/svg">
<circle cx="125" cy="125" r="125" fill="#EECE38"/>
<path d="M132.441 31.6458C131.238 31.542 130.177 31.1736 129.259 30.5407C128.342 29.8929 127.649 28.995 127.179 27.8471C126.726 26.6855 126.571 25.2729 126.714 23.6091C126.82 22.3761 127.071 21.2977 127.465 20.3739C127.875 19.4365 128.429 18.6537 129.126 18.0255C129.824 17.3973 130.649 16.9446 131.6 16.6675C132.567 16.3917 133.659 16.3064 134.878 16.4114C135.799 16.4909 136.621 16.6741 137.344 16.9609C138.084 17.2343 138.705 17.5871 139.206 18.0195C139.722 18.4531 140.105 18.9576 140.355 19.5328C140.606 20.0932 140.71 20.7083 140.667 21.3781L137.192 22.1109C137.225 21.56 137.123 21.0873 136.888 20.6929C136.669 20.2849 136.344 19.9651 135.915 19.7335C135.503 19.4884 135.021 19.3421 134.472 19.2947C133.699 19.2281 133.03 19.35 132.465 19.6604C131.915 19.9572 131.469 20.4499 131.125 21.1386C130.796 21.8286 130.586 22.7084 130.493 23.778C130.424 24.5801 130.437 25.2922 130.533 25.914C130.646 26.5223 130.84 27.0405 131.118 27.4685C131.395 27.8965 131.748 28.2337 132.175 28.4801C132.619 28.7129 133.153 28.8563 133.777 28.9101C134.401 28.9639 134.944 28.9135 135.406 28.7588C135.884 28.6054 136.266 28.339 136.553 27.9597C136.855 27.5817 137.039 27.0888 137.107 26.481L134.522 26.2581L134.741 23.7179L140.869 24.2464L140.623 27.0986L140.2 32.0008L137.771 31.7913L138.023 28.0866L137.6 28.0501C137.288 28.8912 136.905 29.599 136.452 30.1734C135.999 30.733 135.448 31.1419 134.797 31.4C134.147 31.6433 133.362 31.7252 132.441 31.6458Z" fill="#2C2C2C"/>
<path d="M147.85 34.2088C146.894 33.9733 146.072 33.6324 145.384 33.1863C144.695 32.7401 144.151 32.2067 143.751 31.586C143.351 30.9653 143.096 30.2573 142.985 29.4621C142.888 28.6704 142.954 27.8114 143.182 26.8848C143.407 25.9728 143.743 25.1725 144.189 24.484C144.653 23.7845 145.201 23.2131 145.832 22.7699C146.478 22.3302 147.2 22.0476 147.999 21.922C148.813 21.8 149.675 21.8515 150.587 22.0763C151.514 22.3047 152.287 22.6566 152.907 23.1319C153.545 23.5963 154.015 24.1806 154.318 24.8848C154.638 25.5781 154.798 26.3623 154.797 27.2375C154.811 28.1162 154.649 29.0823 154.313 30.1357L145.35 27.9952L145.8 26.1711L152.749 27.792L151.318 28.3608C151.595 27.6765 151.694 27.0867 151.616 26.5915C151.557 26.0854 151.373 25.6792 151.064 25.3728C150.771 25.07 150.406 24.8651 149.972 24.758C149.465 24.6331 148.983 24.66 148.524 24.8387C148.08 25.0209 147.685 25.3459 147.339 25.8135C146.994 26.2811 146.728 26.8913 146.543 27.6441C146.25 28.8312 146.291 29.7551 146.665 30.4156C147.055 31.0797 147.647 31.51 148.443 31.7062C148.834 31.8026 149.173 31.8322 149.458 31.7952C149.747 31.7436 149.991 31.6578 150.19 31.5378C150.406 31.4069 150.583 31.2508 150.72 31.0696C150.856 30.8883 150.979 30.7035 151.087 30.5151L153.988 31.9214C153.744 32.414 153.436 32.8526 153.065 33.2371C152.711 33.6108 152.286 33.9051 151.787 34.12C151.289 34.335 150.714 34.4544 150.064 34.4783C149.413 34.5021 148.675 34.4123 147.85 34.2088Z" fill="#2C2C2C"/>
<path d="M159.264 37.8658C157.951 37.3746 157.116 36.6719 156.757 35.7577C156.404 34.8296 156.51 33.6114 157.074 32.1032L158.704 27.7463L157.154 27.1663L158.168 24.5845L159.257 24.9921C159.737 25.1558 160.115 25.2097 160.391 25.1536C160.681 25.1028 160.924 24.8993 161.121 24.5432L161.95 23.1579L163.856 23.8711L162.939 26.3219L165.599 27.3174L164.572 30.0614L161.912 29.066L160.384 33.1506C160.201 33.6394 160.179 34.0373 160.319 34.3443C160.473 34.6566 160.787 34.9015 161.262 35.0792C161.527 35.1785 161.789 35.2446 162.047 35.2776C162.306 35.3106 162.53 35.3069 162.72 35.2667L161.56 38.3668C161.061 38.3392 160.618 38.2689 160.23 38.1557C159.851 38.0617 159.529 37.9651 159.264 37.8658Z" fill="#2C2C2C"/>
<path d="M168.553 41.7219L176.079 29.0234L179.177 30.8593L171.651 43.5578L168.553 41.7219ZM172.753 38.1013L174.247 35.5809L181.654 39.971L180.16 42.4915L172.753 38.1013ZM176.037 32.5602L177.599 29.9243L185.699 34.7249L184.137 37.3608L176.037 32.5602Z" fill="#2C2C2C"/>
<path d="M179.194 48.3602L182.541 43.9653L186.349 38.9655L188.698 40.7541L186.312 43.9975L186.668 44.2686C187.383 43.5015 188.043 42.9546 188.648 42.6281C189.253 42.3015 189.855 42.1881 190.453 42.288C191.052 42.3878 191.672 42.6816 192.312 43.1695C192.407 43.2417 192.509 43.329 192.619 43.4312C192.74 43.5424 192.869 43.6686 193.005 43.8097L190.568 46.7888C190.45 46.5494 190.288 46.332 190.081 46.1366C189.882 45.9294 189.7 45.7626 189.534 45.6361C189.071 45.2838 188.606 45.0701 188.139 44.9951C187.671 44.9201 187.202 44.9942 186.733 45.2173C186.263 45.4405 185.786 45.8083 185.302 46.3206L182.077 50.5554L179.194 48.3602Z" fill="#2C2C2C"/>
<path d="M190.235 58.07C189.528 57.3857 188.989 56.6775 188.619 55.9454C188.248 55.2134 188.046 54.4785 188.013 53.741C187.98 53.0034 188.115 52.263 188.42 51.5199C188.734 50.7872 189.224 50.078 189.887 49.3923C190.541 48.7173 191.233 48.1945 191.965 47.824C192.718 47.4532 193.479 47.2351 194.248 47.1698C195.027 47.1148 195.794 47.2341 196.547 47.5275C197.311 47.8314 198.031 48.3099 198.706 48.9632C199.392 49.6268 199.883 50.3199 200.179 51.0427C200.497 51.765 200.609 52.5066 200.516 53.2673C200.444 54.0277 200.188 54.7858 199.747 55.5417C199.317 56.308 198.691 57.0616 197.87 57.8026L191.202 51.4427L192.509 50.0927L197.698 54.9901L196.175 54.7619C196.758 54.3095 197.141 53.8498 197.323 53.3829C197.526 52.9156 197.572 52.472 197.46 52.052C197.358 51.6425 197.146 51.2821 196.825 50.9711C196.45 50.6081 196.019 50.3885 195.533 50.3121C195.058 50.2461 194.553 50.3281 194.019 50.5583C193.485 50.7885 192.948 51.1822 192.409 51.7393C191.559 52.6179 191.129 53.4369 191.121 54.1962C191.123 54.9659 191.418 55.6359 192.008 56.2062C192.297 56.4862 192.574 56.682 192.84 56.7937C193.115 56.8946 193.369 56.9431 193.601 56.9393C193.854 56.9352 194.085 56.8892 194.295 56.8015C194.504 56.7137 194.703 56.6155 194.891 56.507L196.691 59.1822C196.232 59.485 195.745 59.7091 195.231 59.8546C194.737 59.9998 194.221 60.0398 193.683 59.9748C193.144 59.9099 192.587 59.7239 192.013 59.417C191.438 59.11 190.846 58.6611 190.235 58.07Z" fill="#2C2C2C"/>
<path d="M198.509 67.3245C198.02 66.7033 197.637 66.0947 197.357 65.4985C197.067 64.9116 196.879 64.3477 196.795 63.8067C196.723 63.2566 196.742 62.7386 196.853 62.2528C196.974 61.7788 197.189 61.3533 197.5 60.9763L200.069 62.3983C199.923 62.6462 199.823 62.9528 199.768 63.3179C199.726 63.6739 199.774 64.0725 199.912 64.5138C200.05 64.955 200.313 65.4218 200.7 65.914C201.069 66.3828 201.419 66.6954 201.751 66.8519C202.104 67.0108 202.409 66.9889 202.667 66.7861C202.854 66.6386 202.941 66.4472 202.926 66.2119C202.933 65.9791 202.862 65.6839 202.714 65.3264C202.577 64.9597 202.379 64.5272 202.12 64.0291C201.864 63.51 201.62 62.9712 201.39 62.4127C201.159 61.8543 200.993 61.2929 200.89 60.7285C200.797 60.1758 200.829 59.6381 200.987 59.1155C201.157 58.5836 201.511 58.1057 202.051 57.6817C202.637 57.2208 203.26 56.9769 203.922 56.9497C204.604 56.9251 205.304 57.1149 206.02 57.5191C206.745 57.9349 207.445 58.5706 208.117 59.4262C208.726 60.1997 209.161 60.9578 209.422 61.7005C209.693 62.4549 209.793 63.1729 209.722 63.8547C209.652 64.5364 209.406 65.1654 208.987 65.7418L206.434 64.0509C206.643 63.8105 206.768 63.5227 206.808 63.1878C206.869 62.8553 206.835 62.5115 206.708 62.1565C206.602 61.804 206.401 61.4402 206.106 61.0652C205.746 60.6081 205.395 60.3059 205.051 60.1587C204.717 60.0232 204.433 60.0476 204.199 60.232C204.011 60.3795 203.917 60.5859 203.917 60.8514C203.939 61.1194 204.032 61.4438 204.199 61.8248C204.366 62.2057 204.573 62.6499 204.821 63.1573C205.086 63.6881 205.33 64.2269 205.551 64.7736C205.793 65.3229 205.952 65.8621 206.027 66.3913C206.122 66.9231 206.088 67.4339 205.923 67.9239C205.77 68.4047 205.424 68.8571 204.885 69.2811C204.276 69.7604 203.609 70.0098 202.884 70.0294C202.181 70.0515 201.453 69.8371 200.699 69.386C199.967 68.9375 199.237 68.2503 198.509 67.3245Z" fill="#2C2C2C"/>
<path d="M203.26 73.1334L209.694 69.3828L217.153 65.0352L218.966 68.146L215.817 69.9819C215.559 70.1321 215.275 70.2807 214.963 70.4276C214.672 70.5799 214.364 70.7167 214.037 70.8379C213.719 70.9719 213.39 71.1033 213.051 71.232C212.732 71.366 212.412 71.4835 212.091 71.5842L212.35 72.0287C213.099 71.8336 213.791 71.7323 214.425 71.725C215.06 71.7177 215.64 71.8542 216.165 72.1345C216.691 72.4148 217.153 72.8963 217.551 73.579C218.257 74.7899 218.364 75.9356 217.872 77.0162C217.38 78.0968 216.258 79.1478 214.506 80.169L209.173 83.2776L207.349 80.1474L212.179 77.3316C213.21 76.7309 213.89 76.136 214.22 75.5469C214.562 74.9502 214.557 74.3492 214.204 73.7438C213.926 73.2672 213.549 72.9606 213.073 72.8242C212.596 72.6877 212.062 72.6886 211.469 72.8269C210.89 72.9576 210.284 73.207 209.653 73.5749L205.074 76.2443L203.26 73.1334Z" fill="#2C2C2C"/>
<path d="M213.313 93.6432L227.263 88.8184L228.447 92.2426L214.497 97.0674L213.313 93.6432ZM223.034 85.7608L225.867 84.7812L229.851 96.3009L227.018 97.2805L223.034 85.7608Z" fill="#2C2C2C"/>
<path d="M216.502 106.394C216.266 105.225 216.283 104.141 216.553 103.144C216.826 102.161 217.364 101.322 218.166 100.627C218.969 99.9329 220.05 99.4483 221.409 99.1738C222.769 98.8993 223.946 98.9277 224.94 99.2592C225.95 99.5877 226.765 100.161 227.387 100.978C228.023 101.793 228.459 102.785 228.695 103.954C228.931 105.123 228.914 106.207 228.644 107.204C228.374 108.202 227.838 109.048 227.035 109.743C226.247 110.434 225.173 110.917 223.814 111.192C222.425 111.472 221.225 111.441 220.213 111.098C219.2 110.755 218.382 110.167 217.757 109.335C217.151 108.514 216.732 107.534 216.502 106.394ZM219.089 105.986C219.195 106.512 219.401 106.927 219.705 107.23C220.025 107.531 220.45 107.718 220.983 107.794C221.515 107.869 222.147 107.832 222.877 107.685C223.652 107.528 224.283 107.302 224.771 107.006C225.273 106.706 225.625 106.339 225.826 105.903C226.044 105.478 226.096 104.981 225.981 104.411C225.878 103.899 225.665 103.486 225.343 103.171C225.038 102.867 224.619 102.678 224.087 102.603C223.555 102.528 222.916 102.566 222.171 102.716C220.972 102.958 220.118 103.359 219.607 103.919C219.099 104.493 218.926 105.182 219.089 105.986Z" fill="#2C2C2C"/>
<path d="M218.161 118.993C218.111 118.01 218.313 117.134 218.766 116.364C219.235 115.609 219.921 114.999 220.823 114.535C221.739 114.07 222.846 113.805 224.141 113.739C225.347 113.677 226.421 113.801 227.363 114.112C228.304 114.422 229.053 114.913 229.61 115.587C230.168 116.275 230.473 117.14 230.527 118.183C230.565 118.927 230.462 119.559 230.22 120.079C229.979 120.614 229.591 121.067 229.058 121.438C228.539 121.807 227.883 122.117 227.09 122.367L227.116 122.88C227.603 122.766 228.067 122.653 228.51 122.54C228.967 122.428 229.395 122.331 229.794 122.251C230.193 122.186 230.542 122.146 230.84 122.13L234.727 121.932L234.911 125.55L224.547 126.08L218.852 126.37L218.7 123.4L222.182 123.177L222.158 122.708C221.271 122.589 220.536 122.373 219.953 122.059C219.369 121.746 218.93 121.328 218.635 120.805C218.355 120.297 218.197 119.693 218.161 118.993ZM221.131 120.14C221.154 120.587 221.27 120.962 221.48 121.265C221.69 121.582 221.957 121.83 222.279 122.008C222.602 122.185 222.944 122.31 223.306 122.381C223.668 122.452 224.013 122.479 224.34 122.462L224.787 122.439C225.085 122.424 225.373 122.372 225.652 122.283C225.946 122.194 226.224 122.067 226.484 121.905C226.745 121.757 226.967 121.574 227.15 121.356C227.348 121.137 227.499 120.883 227.604 120.594C227.709 120.319 227.754 120.026 227.738 119.713C227.713 119.222 227.55 118.805 227.249 118.462C226.963 118.133 226.57 117.884 226.069 117.716C225.568 117.562 224.99 117.502 224.335 117.536C223.665 117.57 223.082 117.697 222.585 117.916C222.104 118.135 221.731 118.438 221.467 118.824C221.218 119.21 221.106 119.649 221.131 120.14Z" fill="#2C2C2C"/>
<path d="M218.13 131.615C218.188 130.977 218.368 130.409 218.668 129.913C218.981 129.432 219.396 129.074 219.912 128.836C220.428 128.599 221.049 128.514 221.777 128.581C222.445 128.642 222.983 128.819 223.39 129.111C223.811 129.419 224.125 129.829 224.333 130.342C224.554 130.872 224.714 131.493 224.813 132.206C224.928 132.92 225.012 133.714 225.067 134.587C225.099 135.054 225.131 135.432 225.165 135.719C225.212 136.023 225.303 136.256 225.438 136.418C225.573 136.58 225.781 136.674 226.063 136.7C226.434 136.734 226.766 136.63 227.058 136.387C227.349 136.144 227.522 135.726 227.577 135.132C227.614 134.731 227.574 134.353 227.456 133.998C227.339 133.643 227.15 133.333 226.89 133.07C226.63 132.807 226.297 132.604 225.89 132.462L227.096 129.361C227.716 129.612 228.241 129.93 228.67 130.314C229.113 130.713 229.46 131.172 229.712 131.689C229.979 132.208 230.15 132.785 230.227 133.421C230.317 134.073 230.329 134.755 230.264 135.468C230.155 136.656 229.873 137.603 229.419 138.31C228.964 139.032 228.319 139.534 227.484 139.817C226.663 140.116 225.636 140.209 224.404 140.096L222.578 139.929C222.043 139.88 221.501 139.837 220.95 139.802C220.413 139.783 219.875 139.763 219.338 139.744C218.8 139.739 218.253 139.742 217.698 139.751L217.988 136.588C218.35 136.561 218.771 136.54 219.252 136.524C219.747 136.51 220.248 136.518 220.754 136.55L220.795 136.104C220.248 135.86 219.756 135.515 219.318 135.071C218.893 134.642 218.573 134.134 218.357 133.545C218.14 132.971 218.064 132.328 218.13 131.615ZM220.52 133.474C220.495 133.741 220.515 134.012 220.58 134.288C220.658 134.58 220.774 134.86 220.929 135.128C221.084 135.397 221.279 135.647 221.512 135.878C221.745 136.109 222.013 136.291 222.315 136.424L224.034 136.536L223.878 137.016C223.726 136.718 223.613 136.393 223.541 136.042C223.467 135.706 223.416 135.357 223.39 134.995C223.362 134.648 223.326 134.3 223.283 133.952C223.254 133.62 223.199 133.315 223.12 133.039C223.039 132.777 222.917 132.556 222.754 132.376C222.589 132.211 222.351 132.115 222.039 132.086C221.624 132.048 221.277 132.158 220.998 132.417C220.72 132.676 220.56 133.028 220.52 133.474Z" fill="#2C2C2C"/>
<path d="M212.327 144.969C212.46 144.402 212.649 143.827 212.894 143.241C213.139 142.655 213.428 142.111 213.761 141.607C214.076 141.114 214.44 140.71 214.851 140.393L217.765 141.975C217.166 142.37 216.667 142.896 216.267 143.552C215.864 144.223 215.586 144.885 215.432 145.539C215.251 146.308 215.255 146.975 215.444 147.54C215.615 148.116 215.974 148.607 216.522 149.012C217.081 149.434 217.815 149.768 218.722 150.012L220.569 150.561L220.687 150.061C219.785 149.726 219.076 149.322 218.56 148.848C218.04 148.388 217.694 147.871 217.524 147.294C217.349 146.733 217.343 146.111 217.503 145.428C217.701 144.587 218.077 143.932 218.631 143.465C219.186 142.998 219.918 142.719 220.828 142.627C221.749 142.552 222.841 142.664 224.104 142.961L228.871 144.083L228.041 147.61L224.144 146.693C222.824 146.382 221.842 146.289 221.2 146.413C220.569 146.556 220.186 146.918 220.049 147.498C219.977 147.803 219.999 148.099 220.116 148.387C220.232 148.675 220.431 148.936 220.712 149.171C220.991 149.42 221.344 149.641 221.774 149.834C222.214 150.045 222.718 150.217 223.284 150.35L227.181 151.267L226.356 154.772L217.931 152.79C217.016 152.574 216.202 152.291 215.488 151.939C214.771 151.602 214.169 151.2 213.682 150.733C213.191 150.28 212.815 149.763 212.553 149.181C212.278 148.595 212.122 147.953 212.087 147.256C212.052 146.558 212.132 145.796 212.327 144.969Z" fill="#2C2C2C"/>
<path d="M217.131 164.828L219.894 163.207L220.919 166.269L221.122 166.309L222.722 163.495L225.242 165.601L222.556 167.549L222.605 167.717L225.824 168.396L224.485 171.448L221.805 169.54L221.64 169.638L222.062 172.852L218.75 172.498L219.747 169.443L219.581 169.321L216.642 170.621L215.972 167.47L219.236 167.436L219.316 167.252L217.131 164.828Z" fill="#2C2C2C"/>
<path d="M201.833 178.059C202.523 177.068 203.372 176.333 204.379 175.853C205.398 175.382 206.522 175.229 207.751 175.395C208.984 175.582 210.285 176.152 211.655 177.107C212.671 177.814 213.48 178.569 214.084 179.372C214.692 180.195 215.094 181.066 215.29 181.984C215.486 182.902 215.467 183.842 215.232 184.805C214.989 185.781 214.518 186.77 213.819 187.773C213.29 188.532 212.721 189.153 212.112 189.637C211.506 190.141 210.89 190.503 210.265 190.722C209.632 190.953 209.003 191.033 208.38 190.962C207.769 190.9 207.184 190.683 206.625 190.312L207.725 186.934C208.186 187.238 208.646 187.386 209.105 187.379C209.568 187.392 210.007 187.271 210.422 187.015C210.84 186.779 211.207 186.435 211.523 185.983C211.966 185.346 212.194 184.706 212.207 184.061C212.224 183.437 212.02 182.804 211.595 182.162C211.161 181.533 210.504 180.911 209.623 180.298C208.962 179.837 208.339 179.494 207.752 179.266C207.169 179.06 206.623 178.97 206.113 178.997C205.604 179.024 205.136 179.161 204.709 179.409C204.286 179.677 203.895 180.068 203.537 180.582C203.179 181.096 202.952 181.592 202.855 182.07C202.75 182.56 202.79 183.024 202.975 183.462C203.152 183.912 203.487 184.318 203.98 184.68L205.463 182.551L207.555 184.009L204.039 189.055L201.69 187.419L197.653 184.606L199.047 182.606L202.131 184.673L202.374 184.324C201.801 183.634 201.379 182.949 201.107 182.269C200.848 181.598 200.769 180.916 200.87 180.223C200.984 179.539 201.305 178.818 201.833 178.059Z" fill="#2C2C2C"/>
<path d="M191.892 190.172C192.573 189.461 193.278 188.919 194.008 188.544C194.738 188.17 195.472 187.964 196.209 187.927C196.946 187.89 197.688 188.021 198.432 188.321C199.167 188.632 199.878 189.118 200.568 189.778C201.246 190.427 201.773 191.117 202.147 191.847C202.522 192.598 202.744 193.358 202.814 194.127C202.873 194.906 202.757 195.673 202.468 196.428C202.168 197.194 201.694 197.916 201.044 198.594C200.384 199.283 199.694 199.778 198.972 200.079C198.252 200.4 197.511 200.516 196.75 200.427C195.989 200.36 195.229 200.107 194.471 199.67C193.703 199.244 192.946 198.622 192.2 197.806L198.524 191.103L199.881 192.403L195.012 197.618L195.232 196.095C195.687 196.675 196.149 197.055 196.617 197.235C197.085 197.436 197.529 197.479 197.949 197.364C198.358 197.26 198.717 197.047 199.026 196.724C199.387 196.347 199.604 195.915 199.678 195.428C199.742 194.953 199.657 194.448 199.424 193.915C199.191 193.383 198.794 192.848 198.234 192.312C197.351 191.466 196.53 191.041 195.77 191.037C195.001 191.043 194.332 191.342 193.765 191.935C193.487 192.225 193.292 192.504 193.182 192.77C193.083 193.046 193.036 193.3 193.041 193.532C193.046 193.785 193.093 194.016 193.182 194.225C193.271 194.434 193.37 194.632 193.48 194.82L190.814 196.633C190.509 196.176 190.282 195.691 190.134 195.177C189.986 194.685 189.944 194.169 190.006 193.63C190.068 193.091 190.251 192.533 190.555 191.957C190.858 191.381 191.304 190.786 191.892 190.172Z" fill="#2C2C2C"/>
<path d="M183.047 198.24C184.126 197.346 185.151 196.97 186.123 197.113C187.104 197.268 188.108 197.966 189.136 199.205L192.106 202.786L193.38 201.729L195.116 203.892L194.221 204.635C193.84 204.97 193.606 205.271 193.517 205.538C193.417 205.815 193.473 206.127 193.684 206.475L194.474 207.883L192.908 209.182L191.237 207.168L189.051 208.981L187.18 206.726L189.366 204.913L186.582 201.556C186.249 201.154 185.914 200.938 185.579 200.906C185.231 200.885 184.862 201.036 184.472 201.359C184.254 201.54 184.067 201.734 183.91 201.942C183.753 202.15 183.644 202.346 183.585 202.531L181.471 199.984C181.743 199.564 182.025 199.215 182.316 198.935C182.586 198.653 182.829 198.421 183.047 198.24Z" fill="#2C2C2C"/>
<path d="M175.097 204.387L182.39 217.221L179.259 219L171.967 206.166L175.097 204.387ZM176.158 209.829L177.605 212.377L170.119 216.63L168.671 214.083L176.158 209.829ZM179.34 215.43L180.853 218.094L172.667 222.745L171.153 220.081L179.34 215.43Z" fill="#2C2C2C"/>
<path d="M164.018 210.352L166.168 215.44L168.614 221.229L165.895 222.378L164.266 218.696L163.854 218.87C164.164 219.872 164.311 220.717 164.293 221.404C164.276 222.091 164.076 222.67 163.691 223.139C163.307 223.609 162.744 224.001 162.003 224.314C161.893 224.361 161.766 224.406 161.623 224.45C161.466 224.501 161.293 224.55 161.102 224.598L159.729 221.002C159.995 221.019 160.264 220.986 160.537 220.903C160.815 220.834 161.051 220.759 161.243 220.678C161.779 220.451 162.195 220.154 162.493 219.785C162.79 219.417 162.959 218.973 162.999 218.455C163.039 217.936 162.956 217.34 162.752 216.665L160.681 211.762L164.018 210.352Z" fill="#2C2C2C"/>
<path d="M150.139 215.082C151.085 214.81 151.967 214.695 152.786 214.738C153.606 214.782 154.343 214.972 155 215.311C155.656 215.649 156.23 216.136 156.723 216.769C157.202 217.407 157.573 218.185 157.838 219.102C158.098 220.004 158.206 220.865 158.163 221.685C158.11 222.522 157.92 223.291 157.594 223.99C157.253 224.693 156.768 225.298 156.138 225.806C155.494 226.317 154.721 226.703 153.819 226.963C152.902 227.227 152.056 227.308 151.282 227.205C150.497 227.121 149.798 226.849 149.185 226.39C148.561 225.949 148.031 225.349 147.595 224.59C147.145 223.835 146.803 222.918 146.569 221.837L155.405 219.221L155.925 221.026L149.094 223.087L150.05 221.881C150.152 222.612 150.36 223.173 150.674 223.563C150.978 223.972 151.34 224.232 151.76 224.344C152.166 224.46 152.584 224.456 153.014 224.332C153.515 224.188 153.92 223.923 154.229 223.54C154.523 223.16 154.703 222.682 154.769 222.104C154.835 221.526 154.761 220.865 154.547 220.12C154.208 218.945 153.712 218.165 153.057 217.779C152.389 217.398 151.661 217.32 150.873 217.547C150.486 217.659 150.178 217.802 149.949 217.977C149.724 218.166 149.556 218.362 149.443 218.565C149.321 218.786 149.246 219.009 149.218 219.235C149.189 219.46 149.176 219.681 149.176 219.898L145.96 220.127C145.926 219.578 145.974 219.044 146.104 218.526C146.224 218.026 146.446 217.559 146.77 217.124C147.095 216.689 147.534 216.299 148.086 215.953C148.638 215.608 149.322 215.318 150.139 215.082Z" fill="#2C2C2C"/>
<path d="M137.997 217.642C138.779 217.529 139.498 217.5 140.154 217.556C140.807 217.597 141.39 217.716 141.9 217.913C142.413 218.125 142.852 218.4 143.218 218.739C143.568 219.08 143.83 219.479 144.001 219.937L141.486 221.453C141.345 221.203 141.129 220.963 140.84 220.733C140.553 220.519 140.183 220.361 139.732 220.261C139.28 220.161 138.745 220.155 138.125 220.245C137.535 220.33 137.089 220.478 136.788 220.687C136.474 220.913 136.341 221.189 136.388 221.514C136.422 221.75 136.545 221.92 136.756 222.025C136.954 222.147 137.245 222.233 137.629 222.283C138.015 222.348 138.489 222.392 139.05 222.416C139.627 222.453 140.216 222.511 140.815 222.59C141.414 222.669 141.983 222.805 142.524 222.998C143.049 223.193 143.499 223.49 143.873 223.887C144.249 224.3 144.486 224.846 144.584 225.524C144.691 226.262 144.591 226.924 144.284 227.511C143.965 228.115 143.452 228.626 142.744 229.045C142.021 229.466 141.122 229.755 140.044 229.911C139.07 230.052 138.196 230.05 137.422 229.906C136.633 229.764 135.961 229.492 135.406 229.091C134.851 228.689 134.428 228.163 134.138 227.512L136.877 226.143C136.981 226.444 137.168 226.696 137.439 226.898C137.696 227.117 138.011 227.26 138.382 227.326C138.741 227.41 139.156 227.418 139.628 227.349C140.204 227.266 140.641 227.112 140.94 226.888C141.224 226.666 141.345 226.408 141.302 226.113C141.268 225.876 141.136 225.692 140.906 225.56C140.663 225.444 140.335 225.364 139.922 225.318C139.508 225.273 139.02 225.23 138.457 225.191C137.864 225.157 137.276 225.099 136.692 225.017C136.095 224.953 135.549 224.821 135.053 224.622C134.544 224.44 134.119 224.155 133.776 223.767C133.436 223.395 133.217 222.869 133.119 222.19C133.008 221.423 133.124 220.721 133.469 220.083C133.801 219.463 134.35 218.939 135.117 218.511C135.871 218.101 136.831 217.811 137.997 217.642Z" fill="#2C2C2C"/>
<path d="M130.515 218.861L130.553 226.308L130.598 234.941L126.997 234.96L126.978 231.314C126.977 231.016 126.99 230.696 127.018 230.353C127.031 230.024 127.067 229.689 127.125 229.345C127.168 229.002 127.218 228.652 127.276 228.294C127.319 227.95 127.377 227.615 127.449 227.286L126.935 227.289C126.73 228.035 126.473 228.685 126.162 229.239C125.852 229.792 125.444 230.226 124.939 230.542C124.434 230.858 123.786 231.018 122.996 231.022C121.594 231.029 120.548 230.55 119.857 229.584C119.166 228.619 118.815 227.122 118.805 225.094L118.773 218.921L122.396 218.903L122.425 224.494C122.431 225.687 122.607 226.573 122.953 227.153C123.299 227.747 123.823 228.043 124.523 228.039C125.075 228.036 125.529 227.863 125.885 227.518C126.241 227.173 126.507 226.71 126.683 226.127C126.859 225.56 126.945 224.911 126.941 224.18L126.914 218.879L130.515 218.861Z" fill="#2C2C2C"/>
<path d="M107.674 217.347L104.914 231.848L101.355 231.17L104.114 216.67L107.674 217.347ZM109.671 229.702L109.11 232.646L97.1362 230.368L97.6965 227.424L109.671 229.702Z" fill="#2C2C2C"/>
<path d="M95.0416 213.771C96.1733 214.148 97.1046 214.701 97.8356 215.432C98.5524 216.158 99.0123 217.042 99.2152 218.084C99.4182 219.126 99.3005 220.305 98.8623 221.62C98.424 222.936 97.8136 223.943 97.0311 224.641C96.2438 225.353 95.3409 225.775 94.3225 225.907C93.2994 226.054 92.222 225.938 91.0903 225.561C89.9586 225.184 89.0273 224.63 88.2963 223.9C87.5654 223.169 87.0984 222.283 86.8955 221.241C86.6878 220.213 86.8031 219.041 87.2414 217.726C87.689 216.382 88.3136 215.356 89.115 214.649C89.9164 213.941 90.8334 213.524 91.866 213.396C92.8797 213.278 93.9382 213.403 95.0416 213.771ZM94.1085 216.218C93.5992 216.048 93.1372 216.02 92.7223 216.133C92.3027 216.261 91.9279 216.537 91.5979 216.961C91.2679 217.385 90.9851 217.951 90.7495 218.659C90.4998 219.408 90.382 220.068 90.3963 220.639C90.4058 221.224 90.5497 221.712 90.828 222.103C91.0874 222.504 91.4929 222.796 92.0446 222.98C92.5397 223.145 93.0041 223.166 93.4379 223.043C93.8528 222.93 94.2252 222.661 94.5552 222.237C94.8852 221.812 95.1703 221.239 95.4107 220.518C95.7971 219.358 95.8747 218.417 95.6435 217.696C95.3982 216.97 94.8865 216.477 94.1085 216.218Z" fill="#2C2C2C"/>
<path d="M83.2492 208.919C84.1259 209.366 84.7847 209.978 85.2254 210.755C85.6461 211.538 85.8325 212.437 85.7846 213.45C85.7299 214.476 85.408 215.567 84.8189 216.723C84.2704 217.799 83.6269 218.668 82.8882 219.329C82.1496 219.99 81.3496 220.394 80.4882 220.54C79.6136 220.68 78.7113 220.513 77.7815 220.039C77.1173 219.701 76.6203 219.297 76.2905 218.827C75.9475 218.351 75.7485 217.79 75.6935 217.142C75.6317 216.508 75.6907 215.785 75.8704 214.973L75.4121 214.74C75.2683 215.219 75.1347 215.678 75.0113 216.117C74.8811 216.569 74.7511 216.988 74.6214 217.374C74.4785 217.753 74.3392 218.075 74.2038 218.341L72.4365 221.808L69.2085 220.163L73.9214 210.917L76.5115 205.836L79.1617 207.187L77.617 210.316L78.0354 210.529C78.5811 209.82 79.1353 209.291 79.6982 208.942C80.261 208.592 80.8425 208.42 81.4426 208.425C82.0226 208.436 82.6248 208.601 83.2492 208.919ZM80.773 210.92C80.3745 210.717 79.9918 210.631 79.6248 210.661C79.2445 210.685 78.8969 210.792 78.582 210.983C78.2671 211.174 77.9886 211.409 77.7464 211.687C77.5042 211.965 77.3086 212.25 77.1596 212.543L76.9564 212.941C76.821 213.207 76.7222 213.483 76.6599 213.769C76.5909 214.069 76.5619 214.372 76.5728 214.679C76.5705 214.979 76.6183 215.262 76.7163 215.53C76.8074 215.811 76.9521 216.069 77.1504 216.304C77.3353 216.532 77.5672 216.717 77.8462 216.859C78.2846 217.083 78.7275 217.149 79.175 217.059C79.6024 216.976 80.0142 216.759 80.4103 216.409C80.7932 216.052 81.1336 215.581 81.4315 214.996C81.7362 214.399 81.9174 213.83 81.9749 213.29C82.0257 212.764 81.9493 212.29 81.7459 211.868C81.5357 211.46 81.2114 211.144 80.773 210.92Z" fill="#2C2C2C"/>
<path d="M72.4807 202.681C73.0047 203.05 73.407 203.489 73.6875 203.996C73.9473 204.508 74.0512 205.046 73.9992 205.612C73.9473 206.177 73.7109 206.758 73.29 207.355C72.9034 207.904 72.482 208.282 72.0257 208.489C71.5486 208.7 71.036 208.767 70.4878 208.691C69.9188 208.618 69.3007 208.447 68.6334 208.178C67.9575 207.92 67.2275 207.597 66.4434 207.209C66.0226 207.003 65.6793 206.843 65.4134 206.729C65.1267 206.618 64.8794 206.58 64.6717 206.616C64.4639 206.652 64.2784 206.786 64.1152 207.018C63.9004 207.322 63.8254 207.662 63.8902 208.036C63.9549 208.41 64.231 208.769 64.7185 209.112C65.0476 209.344 65.3952 209.498 65.7614 209.574C66.1276 209.649 66.4898 209.64 66.848 209.546C67.2062 209.452 67.5482 209.264 67.8741 208.983L69.9599 211.575C69.4321 211.988 68.8949 212.284 68.3483 212.464C67.7809 212.648 67.2102 212.72 66.6363 212.68C66.0537 212.653 65.4678 212.513 64.8787 212.262C64.2687 212.015 63.6713 211.685 63.0863 211.273C62.1113 210.585 61.4308 209.869 61.0448 209.122C60.6466 208.367 60.5332 207.558 60.7046 206.693C60.8552 205.833 61.287 204.897 62 203.885L63.0566 202.386C63.3658 201.947 63.6732 201.498 63.9789 201.039C64.2638 200.583 64.5486 200.127 64.8335 199.671C65.1062 199.206 65.3771 198.732 65.6462 198.246L68.242 200.076C68.0846 200.403 67.8928 200.778 67.6667 201.203C67.4319 201.639 67.1746 202.069 66.8948 202.492L67.2604 202.75C67.7452 202.398 68.2896 202.143 68.8936 201.985C69.4767 201.831 70.0772 201.807 70.6949 201.914C71.3004 202.013 71.8957 202.268 72.4807 202.681ZM69.6773 203.824C69.4579 203.669 69.2128 203.551 68.9419 203.47C68.6502 203.392 68.3492 203.353 68.039 203.353C67.7287 203.353 67.4152 203.397 67.0986 203.484C66.7819 203.571 66.4908 203.712 66.2251 203.908L65.2695 205.341L64.9317 204.966C65.2663 204.983 65.6039 205.048 65.9443 205.16C66.2726 205.264 66.6001 205.395 66.927 205.552C67.2416 205.701 67.5606 205.843 67.8838 205.98C68.1863 206.12 68.4773 206.225 68.7568 206.294C69.0241 206.355 69.2763 206.36 69.5135 206.308C69.7384 206.248 69.9411 206.089 70.1215 205.833C70.362 205.492 70.4395 205.136 70.354 204.766C70.2685 204.396 70.0429 204.082 69.6773 203.824Z" fill="#2C2C2C"/>
<path d="M63.76 190.951C64.1842 191.349 64.5889 191.8 64.9743 192.304C65.3597 192.809 65.6876 193.331 65.9581 193.871C66.2279 194.39 66.3975 194.906 66.4667 195.421L63.6427 197.157C63.5986 196.441 63.3917 195.746 63.022 195.073C62.6414 194.389 62.2064 193.817 61.717 193.358C61.1406 192.818 60.5604 192.488 59.9764 192.37C59.3918 192.23 58.7874 192.297 58.1632 192.57C57.518 192.844 56.8632 193.313 56.1989 193.978L54.8016 195.305L55.1768 195.657C55.9166 195.042 56.6206 194.629 57.289 194.418C57.9464 194.196 58.5675 194.155 59.1521 194.295C59.7259 194.424 60.2683 194.728 60.7795 195.208C61.4103 195.799 61.7899 196.452 61.9183 197.165C62.0466 197.878 61.9238 198.652 61.5497 199.487C61.1546 200.322 60.5133 201.213 59.626 202.159L56.2754 205.732L53.6326 203.254L56.3712 200.333C57.2993 199.344 57.8695 198.54 58.0817 197.921C58.2729 197.303 58.1509 196.79 57.7159 196.382C57.4875 196.168 57.2197 196.039 56.9124 195.996C56.6051 195.954 56.2795 195.996 55.9354 196.123C55.5805 196.24 55.2124 196.436 54.8309 196.712C54.4284 196.989 54.0283 197.339 53.6305 197.763L50.8919 200.683L48.2654 198.22L54.1862 191.907C54.8288 191.221 55.4805 190.657 56.1414 190.214C56.7914 189.761 57.4404 189.439 58.0883 189.25C58.7254 189.05 59.3614 188.982 59.9964 189.046C60.6415 189.099 61.2751 189.285 61.8971 189.602C62.5191 189.92 63.1401 190.369 63.76 190.951Z" fill="#2C2C2C"/>
<path d="M44.1453 185.232L44.1799 188.435L41.0122 187.804L40.8771 187.96L42.5246 190.747L39.4447 191.887L39.0886 188.589L38.9189 188.547L36.7303 191.003L34.7467 188.326L37.734 186.948L37.7307 186.755L34.7321 185.525L36.685 182.826L38.8403 185.21L39.0287 185.126L39.3608 181.93L42.428 182.914L40.8365 185.763L40.9563 185.925L44.1453 185.232Z" fill="#2C2C2C"/>
<path d="M40.2605 165.393C40.7778 166.484 40.9947 167.586 40.9113 168.698C40.8144 169.817 40.3888 170.868 39.6344 171.853C38.8602 172.83 37.7186 173.676 36.2096 174.392C35.0913 174.922 34.034 175.25 33.0376 175.375C32.0213 175.494 31.066 175.411 30.1716 175.125C29.2772 174.84 28.4704 174.356 27.7511 173.674C27.0254 172.978 26.4007 172.078 25.877 170.973C25.4811 170.138 25.2245 169.335 25.1073 168.566C24.9702 167.789 24.9619 167.076 25.0823 166.424C25.1963 165.76 25.4387 165.175 25.8095 164.669C26.1668 164.17 26.6454 163.769 27.2453 163.469L29.6311 166.1C29.1389 166.35 28.7819 166.676 28.5601 167.078C28.3183 167.473 28.2057 167.914 28.2221 168.401C28.2187 168.881 28.3351 169.371 28.5714 169.869C28.9035 170.57 29.3462 171.086 29.8994 171.418C30.4328 171.743 31.0836 171.88 31.8516 171.829C32.6133 171.765 33.4792 171.503 34.4492 171.043C35.1768 170.698 35.7848 170.328 36.2734 169.931C36.7421 169.527 37.0912 169.098 37.3209 168.643C37.5506 168.187 37.6639 167.713 37.661 167.219C37.6382 166.718 37.4926 166.185 37.2244 165.619C36.9562 165.053 36.6387 164.61 36.272 164.289C35.8988 163.954 35.4761 163.758 35.0038 163.702C34.525 163.632 34.0063 163.721 33.4475 163.969L34.5587 166.314L32.2547 167.406L29.6204 161.848L32.2073 160.622L36.6535 158.514L37.6976 160.717L34.3715 162.368L34.5535 162.752C35.4372 162.597 36.2414 162.571 36.9662 162.673C37.6776 162.781 38.3089 163.051 38.86 163.483C39.3977 163.921 39.8645 164.558 40.2605 165.393Z" fill="#2C2C2C"/>
<path d="M34.7029 150.771C34.9806 151.715 35.1 152.597 35.0612 153.417C35.0225 154.236 34.8357 154.975 34.5007 155.633C34.1658 156.291 33.6828 156.868 33.0517 157.364C32.4164 157.847 31.641 158.222 30.7255 158.491C29.8243 158.756 28.9639 158.87 28.1444 158.831C27.3063 158.782 26.5368 158.596 25.8359 158.274C25.1308 157.937 24.5229 157.456 24.0122 156.829C23.4973 156.188 23.1073 155.416 22.8423 154.515C22.5731 153.6 22.4878 152.755 22.5863 151.98C22.6662 151.194 22.9343 150.494 23.3904 149.878C23.8279 149.252 24.425 148.719 25.1814 148.279C25.9337 147.825 26.8496 147.478 27.9292 147.238L30.5931 156.059L28.7907 156.589L26.6921 149.77L27.9038 150.719C27.1734 150.825 26.6138 151.036 26.2251 151.352C25.8178 151.659 25.5595 152.022 25.45 152.443C25.3364 152.849 25.3427 153.267 25.4689 153.696C25.6161 154.197 25.8824 154.6 26.2678 154.907C26.6489 155.199 27.1285 155.376 27.7066 155.439C28.2847 155.503 28.9456 155.425 29.6894 155.206C30.8624 154.861 31.6399 154.36 32.022 153.704C32.3998 153.034 32.4731 152.305 32.2417 151.518C32.1281 151.132 31.9834 150.825 31.8076 150.597C31.6174 150.373 31.4206 150.205 31.2169 150.094C30.9948 149.973 30.771 149.899 30.5455 149.872C30.32 149.845 30.0987 149.833 29.8816 149.834L29.6357 146.62C30.1843 146.583 30.7182 146.628 31.2373 146.755C31.738 146.872 32.2066 147.091 32.6433 147.414C33.08 147.736 33.4725 148.172 33.8208 148.723C34.1691 149.273 34.4632 149.956 34.7029 150.771Z" fill="#2C2C2C"/>
<path d="M32.115 139.059C32.3518 140.44 32.1655 141.516 31.5562 142.286C30.9322 143.058 29.8266 143.581 28.2394 143.853L23.6543 144.638L23.9338 146.27L21.1928 146.694L20.9964 145.548C20.8961 145.05 20.7523 144.697 20.565 144.487C20.3753 144.262 20.0769 144.155 19.6701 144.164L18.0558 144.145L17.7121 142.139L20.2912 141.697L19.8115 138.898L22.6993 138.403L23.179 141.203L27.4776 140.466C27.9919 140.378 28.3465 140.196 28.5414 139.921C28.7337 139.63 28.7871 139.236 28.7014 138.736C28.6536 138.457 28.5789 138.197 28.4773 137.957C28.3757 137.718 28.2596 137.526 28.129 137.382L31.3915 136.823C31.6191 137.268 31.7815 137.686 31.8789 138.078C31.9885 138.452 32.0672 138.779 32.115 139.059Z" fill="#2C2C2C"/>
<path d="M30.7609 129.029L16 128.941L16.0213 125.341L30.7821 125.428L30.7609 129.029ZM25.5155 127.231L22.5857 127.213L22.6366 118.603L25.5664 118.62L25.5155 127.231ZM19.0744 127.193L16.0104 127.175L16.066 117.759L19.13 117.777L19.0744 127.193Z" fill="#2C2C2C"/>
<path d="M31.1226 116.405L25.6393 115.734L19.4012 114.97L19.7599 112.04L23.7639 112.462L23.8183 112.018C22.795 111.788 21.9898 111.494 21.4026 111.137C20.8154 110.779 20.4138 110.317 20.1979 109.75C19.9819 109.183 19.9228 108.5 20.0206 107.7C20.0351 107.582 20.0588 107.45 20.0917 107.304C20.1265 107.143 20.1704 106.968 20.2236 106.779L24.0256 107.379C23.8782 107.602 23.7725 107.852 23.7085 108.129C23.6297 108.405 23.5776 108.647 23.5522 108.854C23.4816 109.431 23.5319 109.94 23.7031 110.382C23.8744 110.823 24.175 111.191 24.6048 111.484C25.0346 111.777 25.5927 112.003 26.2793 112.162L31.5628 112.809L31.1226 116.405Z" fill="#2C2C2C"/>
<path d="M33.9294 102.012C33.6949 102.967 33.355 103.79 32.9096 104.479C32.4642 105.168 31.9314 105.713 31.3111 106.113C30.6909 106.514 29.9832 106.77 29.1881 106.882C28.3966 106.979 27.5375 106.914 26.6107 106.687C25.6984 106.463 24.8977 106.129 24.2087 105.683C23.5087 105.22 22.9367 104.673 22.4928 104.042C22.0523 103.396 21.7689 102.674 21.6424 101.876C21.5195 101.063 21.57 100.2 21.7938 99.2876C22.0212 98.3608 22.3722 97.5872 22.8468 96.9667C23.3105 96.3282 23.8942 95.8574 24.5981 95.5541C25.291 95.2328 26.075 95.0721 26.9502 95.0718C27.8289 95.0571 28.7951 95.2174 29.8489 95.5527L27.7186 104.518L25.894 104.07L27.5071 97.1198L28.0775 98.5494C27.3928 98.2739 26.8029 98.1753 26.3078 98.2534C25.8018 98.3135 25.3958 98.4979 25.0897 98.8066C24.7873 99.1009 24.5827 99.4652 24.4762 99.8996C24.3518 100.406 24.3793 100.889 24.5585 101.348C24.7412 101.792 25.0666 102.186 25.5346 102.531C26.0027 102.876 26.6132 103.141 27.3662 103.326C28.5536 103.617 29.4774 103.575 30.1375 103.2C30.8012 102.81 31.2307 102.217 31.4261 101.42C31.522 101.029 31.5513 100.691 31.5139 100.406C31.462 100.117 31.3759 99.8729 31.2557 99.6745C31.1246 99.4581 30.9683 99.2816 30.7869 99.145C30.6055 99.0084 30.4205 98.8862 30.232 98.7786L31.635 95.8758C32.1279 96.1195 32.5668 96.4268 32.9518 96.7976C33.3258 97.1503 33.6206 97.5757 33.8361 98.0738C34.0517 98.5719 34.1717 99.1464 34.1963 99.7972C34.2209 100.448 34.1319 101.186 33.9294 102.012Z" fill="#2C2C2C"/>
<path d="M37.7607 90.2057C37.4693 90.9402 37.136 91.578 36.761 92.1189C36.3998 92.6654 36.0065 93.1109 35.5811 93.4554C35.1418 93.7945 34.6843 94.038 34.2085 94.1861C33.7382 94.3203 33.262 94.348 32.78 94.269L32.7178 91.3329C33.0058 91.3349 33.3212 91.2675 33.6641 91.1309C33.9932 90.9888 34.3137 90.747 34.6256 90.4055C34.9375 90.0641 35.209 89.6023 35.4399 89.0203C35.6599 88.4659 35.7541 88.006 35.7226 87.6406C35.6828 87.2559 35.5104 87.003 35.2055 86.882C34.9837 86.7941 34.7748 86.8154 34.5785 86.9461C34.374 87.0574 34.1544 87.2671 33.92 87.5751C33.6716 87.8776 33.3972 88.266 33.0967 88.7403C32.7769 89.2229 32.4336 89.7043 32.0667 90.1843C31.6998 90.6643 31.2981 91.0905 30.8617 91.4627C30.4308 91.8211 29.9497 92.0633 29.4184 92.1894C28.8733 92.31 28.282 92.2438 27.6445 91.9909C26.9515 91.716 26.4271 91.2994 26.0711 90.7411C25.7068 90.1634 25.5193 89.4634 25.5087 88.6412C25.5035 87.805 25.7017 86.8811 26.1031 85.8693C26.466 84.9546 26.9027 84.1975 27.4132 83.598C27.9293 82.9847 28.4998 82.5373 29.1247 82.2559C29.7497 81.9745 30.4167 81.8702 31.1257 81.9429L30.9474 85.0002C30.6343 84.9401 30.3229 84.977 30.0132 85.1108C29.6951 85.2252 29.4147 85.4267 29.1718 85.7153C28.9206 85.9846 28.707 86.341 28.5311 86.7845C28.3166 87.325 28.2321 87.7807 28.2774 88.1516C28.3283 88.5086 28.4923 88.7421 28.7695 88.8521C28.9912 88.9401 29.2168 88.9173 29.4463 88.7838C29.6673 88.6308 29.9006 88.3865 30.1461 88.0508C30.3916 87.7151 30.6715 87.3129 30.9858 86.8441C31.3111 86.3475 31.6544 85.8662 32.0158 85.4C32.3689 84.9145 32.7554 84.5064 33.1753 84.1757C33.5869 83.8257 34.0458 83.5988 34.5522 83.4949C35.0448 83.3855 35.6098 83.4573 36.2473 83.7102C36.968 83.9962 37.5189 84.4473 37.8999 85.0637C38.2726 85.6607 38.4533 86.3981 38.4419 87.2758C38.4222 88.1342 38.1951 89.1108 37.7607 90.2057Z" fill="#2C2C2C"/>
<path d="M40.4074 83.156L33.9349 79.4718L26.4321 75.2012L28.2134 72.0718L31.3816 73.8752C31.6408 74.0227 31.912 74.1942 32.1953 74.3898C32.473 74.565 32.7461 74.7634 33.0147 74.9848C33.2906 75.1933 33.5693 75.412 33.8508 75.6409C34.1267 75.8494 34.3887 76.0672 34.6369 76.2942L34.8914 75.8472C34.3467 75.297 33.9121 74.7494 33.5876 74.2043C33.263 73.6593 33.0901 73.0891 33.0687 72.4936C33.0474 71.8981 33.2322 71.257 33.6231 70.5702C34.3164 69.3522 35.2539 68.6848 36.4354 68.5682C37.617 68.4515 39.0889 68.8948 40.8512 69.8979L46.2159 72.9514L44.4235 76.1003L39.5643 73.3343C38.5276 72.7443 37.6718 72.4544 36.9968 72.4648C36.3088 72.4678 35.7915 72.7738 35.4448 73.3829C35.1719 73.8623 35.096 74.3424 35.217 74.823C35.338 75.3036 35.607 75.7655 36.0238 76.2087C36.4277 76.6445 36.9471 77.0431 37.5821 77.4045L42.1887 80.0266L40.4074 83.156Z" fill="#2C2C2C"/>
<path d="M53.1007 64.1658L41.9147 54.5343L44.2788 51.7887L55.4647 61.4202L53.1007 64.1658ZM41.3985 59.727L39.1274 57.7715L47.0807 48.5346L49.3518 50.4901L41.3985 59.727Z" fill="#2C2C2C"/>
<path d="M62.4627 55.0327C61.5727 55.8269 60.629 56.3594 59.6315 56.63C58.6452 56.8908 57.6495 56.85 56.6447 56.5078C55.6398 56.1655 54.6757 55.4771 53.7524 54.4425C52.8291 53.408 52.2594 52.3776 52.0431 51.3516C51.817 50.3144 51.8998 49.3212 52.2917 48.3719C52.6737 47.4115 53.3096 46.5342 54.1996 45.74C55.0896 44.9458 56.0333 44.4133 57.0308 44.1427C58.0282 43.872 59.0294 43.9078 60.0343 44.25C61.0292 44.5812 61.9884 45.264 62.9116 46.2986C63.8548 47.3554 64.4339 48.4074 64.6489 49.4545C64.8639 50.5016 64.77 51.5048 64.367 52.464C63.9651 53.4021 63.3304 54.2584 62.4627 55.0327ZM60.8038 53.0059C61.2043 52.6485 61.4586 52.2617 61.5667 51.8454C61.6649 51.418 61.612 50.9557 61.408 50.4583C61.2039 49.9609 60.8537 49.4341 60.3573 48.8779C59.8311 48.2883 59.317 47.8578 58.815 47.5864C58.3031 47.3038 57.8082 47.1859 57.3303 47.2327C56.8536 47.2584 56.3984 47.4648 55.9645 47.852C55.5752 48.1995 55.3258 48.5919 55.2165 49.0292C55.1083 49.4455 55.1563 49.9023 55.3603 50.3996C55.5644 50.897 55.9196 51.4294 56.4259 51.9967C57.24 52.9089 58.0174 53.4442 58.7582 53.6024C59.5101 53.7508 60.1919 53.5519 60.8038 53.0059Z" fill="#2C2C2C"/>
<path d="M72.548 47.1952C71.7249 47.7345 70.8667 48.0027 69.9735 47.9997C69.0845 47.9761 68.2121 47.692 67.3563 47.1476C66.4923 46.5907 65.7048 45.7697 64.9939 44.6846C64.332 43.6744 63.8974 42.6846 63.6901 41.7153C63.4828 40.7459 63.5293 39.851 63.8294 39.0304C64.1421 38.2017 64.7349 37.5013 65.6079 36.9293C66.2315 36.5207 66.8289 36.2898 67.4 36.2364C67.9836 36.1749 68.57 36.2809 69.1592 36.5544C69.7402 36.8155 70.3386 37.2255 70.9545 37.7846L71.3847 37.5027C71.0403 37.1401 70.708 36.7963 70.3881 36.4712C70.0599 36.1336 69.7606 35.8128 69.4901 35.5087C69.232 35.1965 69.0213 34.9157 68.8579 34.6662L66.7251 31.4111L69.7557 29.4255L75.443 38.1058L78.5686 42.8762L76.0805 44.5064L74.131 41.6125L73.7381 41.8699C74.083 42.6957 74.2673 43.4394 74.291 44.1013C74.3147 44.7632 74.1756 45.3534 73.8737 45.8721C73.5761 46.3701 73.1342 46.8112 72.548 47.1952ZM72.0396 44.0523C72.4138 43.8072 72.6787 43.5177 72.8344 43.184C73.0025 42.8421 73.0819 42.4871 73.0724 42.119C73.0629 41.7508 72.9975 41.3926 72.8763 41.0442C72.755 40.6959 72.6045 40.3845 72.4247 40.1101L72.1795 39.736C72.0161 39.4866 71.8256 39.2638 71.608 39.0677C71.3822 38.8591 71.1334 38.6834 70.8616 38.5407C70.6023 38.3897 70.3322 38.2904 70.0513 38.2426C69.7623 38.1824 69.4667 38.1801 69.1643 38.2356C68.8745 38.2829 68.5986 38.3923 68.3367 38.5639C67.9251 38.8336 67.6473 39.1849 67.5033 39.618C67.3635 40.0304 67.3474 40.4956 67.4549 41.0134C67.5749 41.523 67.8147 42.0522 68.1742 42.6009C68.5419 43.1622 68.9457 43.6017 69.3857 43.9195C69.8175 44.2248 70.2669 44.3938 70.734 44.4265C71.1928 44.4467 71.6281 44.322 72.0396 44.0523Z" fill="#2C2C2C"/>
<path d="M83.3169 40.9374C82.736 41.2088 82.1556 41.3402 81.5755 41.3315C81.0026 41.3029 80.4837 41.1257 80.0187 40.7999C79.5537 40.4741 79.1666 39.9802 78.8573 39.3183C78.5733 38.7104 78.4545 38.157 78.5011 37.6579C78.5549 37.1391 78.751 36.6607 79.0895 36.2227C79.4351 35.7649 79.8907 35.3134 80.4561 34.8682C81.0153 34.4094 81.6582 33.9362 82.3848 33.4485C82.772 33.1853 83.0813 32.9667 83.3127 32.7927C83.5513 32.5989 83.7066 32.4029 83.7786 32.2047C83.8505 32.0065 83.8266 31.7791 83.7066 31.5224C83.5488 31.1847 83.2915 30.9511 82.9348 30.8216C82.578 30.6921 82.1295 30.7535 81.5891 31.006C81.2244 31.1765 80.9183 31.4018 80.6707 31.6821C80.4231 31.9623 80.2513 32.2813 80.1551 32.6389C80.0589 32.9966 80.0518 33.3866 80.134 33.809L76.8483 34.3323C76.7525 33.6693 76.7621 33.0559 76.8771 32.492C76.9993 31.9082 77.2202 31.3771 77.5397 30.8986C77.8529 30.4067 78.2648 29.9673 78.7753 29.5807C79.2931 29.1741 79.8761 28.8194 80.5245 28.5164C81.6052 28.0114 82.5653 27.7767 83.4048 27.8124C84.2578 27.8416 85.0169 28.1453 85.6819 28.7232C86.3542 29.2813 86.9522 30.121 87.4762 31.2422L88.2526 32.9037C88.4798 33.39 88.717 33.8799 88.964 34.3734C89.2183 34.847 89.4725 35.3207 89.7268 35.7944C89.9945 36.2617 90.2722 36.7327 90.5598 37.2072L87.6826 38.5517C87.477 38.2528 87.2463 37.8998 86.9902 37.4928C86.7279 37.0723 86.4827 36.6355 86.2545 36.1826L85.8493 36.3719C85.9136 36.9673 85.8643 37.5663 85.7016 38.169C85.5461 38.7519 85.2684 39.2848 84.8688 39.7679C84.4826 40.2446 83.9653 40.6344 83.3169 40.9374ZM83.7167 37.9363C83.9598 37.8227 84.184 37.6685 84.3893 37.4739C84.6018 37.2594 84.7849 37.0174 84.9388 36.748C85.0927 36.4786 85.2106 36.1849 85.2924 35.8669C85.3742 35.5489 85.3961 35.226 85.3581 34.8981L84.5885 33.3568L85.0816 33.2498C84.9007 33.5319 84.677 33.7928 84.4105 34.0325C84.1575 34.2659 83.8815 34.4854 83.5826 34.6909C83.2971 34.8901 83.0149 35.0961 82.7357 35.3088C82.4638 35.5017 82.2284 35.7023 82.0294 35.9104C81.8439 36.1123 81.7148 36.329 81.642 36.5605C81.5826 36.7858 81.6192 37.0402 81.7518 37.3239C81.9285 37.7021 82.1989 37.9461 82.5628 38.0558C82.9268 38.1655 83.3114 38.1257 83.7167 37.9363Z" fill="#2C2C2C"/>
<path d="M97.7992 39.2121C97.2431 39.382 96.6503 39.5085 96.0209 39.5917C95.3915 39.6749 94.7754 39.6994 94.1726 39.6653C93.5883 39.6411 93.0558 39.531 92.5749 39.3349L92.4746 36.0214C93.1175 36.3395 93.8231 36.5059 94.5915 36.5205C95.3742 36.5309 96.0864 36.438 96.7281 36.242C97.4838 36.0111 98.0584 35.6718 98.4517 35.2242C98.8637 34.7866 99.1065 34.2291 99.1802 33.5518C99.2638 32.8558 99.1826 32.0543 98.9367 31.1472L98.4816 29.2751L97.9897 29.4254C98.1544 30.3729 98.1621 31.189 98.0128 31.8739C97.8777 32.5543 97.6041 33.1134 97.1922 33.5511C96.7945 33.9844 96.2605 34.3034 95.5903 34.5082C94.7633 34.7609 94.0085 34.7654 93.3261 34.5218C92.6436 34.2782 92.0334 33.7864 91.4956 33.0465C90.9676 32.2879 90.5141 31.2884 90.1351 30.0478L88.704 25.3635L92.169 24.3049L93.3388 28.1336C93.7352 29.4312 94.1489 30.326 94.5798 30.8179C95.0207 31.2913 95.5263 31.4408 96.0967 31.2666C96.3961 31.1751 96.6409 31.0068 96.831 30.7616C97.0212 30.5164 97.1467 30.213 97.2078 29.8514C97.283 29.4854 97.2959 29.0683 97.2464 28.6001C97.2068 28.1133 97.1021 27.5918 96.9322 27.0357L95.7624 23.207L99.2061 22.1549L101.735 30.4326C102.01 31.3309 102.175 32.177 102.23 32.9708C102.3 33.7602 102.255 34.4831 102.097 35.1394C101.954 35.7914 101.696 36.3768 101.324 36.8957C100.957 37.4288 100.481 37.8861 99.896 38.2675C99.3109 38.6489 98.612 38.9638 97.7992 39.2121Z" fill="#2C2C2C"/>
<path d="M112.519 25.0626L109.726 23.494L111.854 21.0643L111.787 20.8695L108.549 20.9057L109.098 17.6678L112.134 19.0057L112.255 18.8792L111.219 15.7568L114.529 15.3745L114.232 18.6508L114.4 18.7439L116.963 16.7594L118.327 19.7989L115.186 20.4769L115.165 20.6819L117.769 22.5651L115.385 24.7316L113.71 21.9306L113.51 21.9537L112.519 25.0626Z" fill="#2C2C2C"/>
<circle cx="124.769" cy="124.769" r="66.7692" fill="#2C2C2C"/>
<path d="M124.769 86.6152C103.731 86.6152 86.6152 103.731 86.6152 124.769C86.6152 145.807 103.731 162.923 124.769 162.923C145.807 162.923 162.923 145.807 162.923 124.769C162.923 103.731 145.807 86.6152 124.769 86.6152ZM88.7659 125.12C102.056 129.431 113.684 135.375 123.974 142.599C121.549 143.543 119.237 144.525 117.047 145.524C106.851 137.113 94.6941 132.368 89.2219 130.514C88.9386 128.755 88.7834 126.954 88.7659 125.12ZM89.6171 132.579C95.1941 134.541 105.942 138.942 115.208 146.377C113.201 147.329 111.309 148.289 109.531 149.236C103.554 144.206 95.8233 140.478 91.5352 138.624C90.7255 136.688 90.0806 134.668 89.6171 132.579ZM102.653 153.165C98.5304 149.947 95.1226 145.852 92.7148 141.163C96.897 143.092 102.927 146.229 107.794 150.176C105.932 151.204 104.217 152.208 102.653 153.165ZM152.57 147.628C138.886 150.205 126.505 155.93 118.58 160.243C117.819 160.111 117.067 159.953 116.323 159.774C124.39 155.217 138.446 148.383 153.981 145.797C153.529 146.422 153.059 147.034 152.57 147.628ZM156.997 140.816C136.479 142.617 117.453 153.068 110.023 157.617C109.392 157.333 108.772 157.029 108.161 156.711C115.484 152.426 123.302 148.454 131.381 145.346C142.709 140.988 150.368 139.705 157.785 139.132C157.537 139.701 157.274 140.262 156.997 140.816ZM160.553 128.777C144.17 124.039 127.836 125.931 117.521 128.157C117.689 128.259 118.688 129.173 118.923 129.582C119.157 129.561 127.813 128.174 132.672 127.854C141.035 127.303 150.67 127.778 160.302 130.607C160.218 131.115 160.126 131.621 160.022 132.122C147.749 130.192 134.667 131.681 124.683 134.137C125.078 134.625 125.348 135.199 125.48 135.818C135.181 133.47 147.775 132.066 159.602 133.903C159.547 134.113 159.49 134.323 159.431 134.532C146.96 135.377 135.668 138.253 126.039 141.816C125.776 141.629 125.514 141.447 125.252 141.262C125.315 140.138 124.729 139.076 123.7 138.55C125.125 136.939 124.287 134.329 122.147 133.863C122.341 131.731 120.216 130.136 118.219 130.938C118.137 130.593 117.585 129.034 115.993 128.792C114.985 128.639 113.913 128.942 113.223 129.774C113.015 129.601 112.026 128.85 110.651 129.213C109.862 129.422 109.176 129.862 108.753 130.867C108.611 130.973 106.956 130.457 106.582 130.276C106.582 130.276 107.436 130.125 107.804 130.138C108.563 128.657 110.205 127.729 111.988 127.998C111.705 127.424 111.222 126.945 110.584 126.682C111.437 124.606 109.546 122.452 107.384 123.016C107.165 120.993 104.889 119.913 103.184 121.029C101.867 119.473 99.3648 119.867 98.5898 121.752C98.5819 121.773 98.5762 121.794 98.568 121.815C96.5246 120.388 93.7985 122.244 94.3619 124.662C94.1633 124.698 93.9738 124.765 93.7889 124.844C93.3361 124.685 92.8865 124.532 92.4405 124.384C92.6748 124.186 92.923 124.006 93.1966 123.871C93.2159 123.308 93.3547 122.755 93.6118 122.24C93.5972 122.19 93.6093 122.149 93.6705 122.13C94.5603 120.474 96.4456 119.75 98.1295 120.281C98.5329 119.764 99.058 119.369 99.6517 119.12L99.363 117.874C98.9914 117.898 98.6241 117.995 98.422 117.717C98.1752 117.376 98.2815 117.482 101.034 110.627C101.19 110.238 101.108 110.393 108.914 108.944C108.628 108.64 108.252 108.505 107.876 108.526C107.721 107.642 106.796 107.132 105.982 107.514C105.162 106.668 103.828 106.787 103.14 107.707C102.223 107.427 101.33 108.178 101.409 109.142C100.265 109.07 99.5494 110.396 100.249 111.351C99.2976 111.734 98.8384 112.768 99.142 113.743C98.7353 113.75 98.3391 113.889 98.0129 114.146C97.0758 112.447 94.5639 113.063 94.4781 115.006C93.1551 114.215 91.1461 115.114 91.5914 117.372C90.7663 117.372 90.1944 118.198 90.4676 118.998C90.0238 118.888 89.5871 118.968 89.1954 119.179C91.8883 101.969 106.815 88.7605 124.769 88.7605C142.439 88.7605 157.178 101.555 160.206 118.367C159.902 117.551 159.325 116.868 158.567 116.486C158.718 114.516 157.345 112.722 155.449 112.658C155.454 112.638 155.454 112.618 155.464 112.601C156.481 110.868 155.772 108.742 154.027 108.333C153.305 108.165 152.589 108.279 151.97 108.601C151.644 107.399 150.699 106.574 149.547 106.145C148.909 105.908 147.969 106.126 147.71 106.136L149.95 109.375C150.485 110.149 149.937 111.207 148.996 111.216C148.383 111.221 147.889 111.72 147.889 112.332V116.632C147.889 117.122 147.889 116.857 147.813 117.504C147.532 117.438 147.059 117.46 146.779 117.398V110.88H131.819V116.633C131.57 116.628 131.019 116.628 130.391 116.63V116.395C130.391 115.57 129.146 115.572 129.146 116.395V116.638C128.803 116.641 128.478 116.645 128.208 116.648C127.953 116.652 125.362 116.757 124.713 116.8V116.395C124.713 115.57 123.468 115.572 123.468 116.395V116.889C122.5 116.966 121.62 117.054 120.84 117.142V110.594L125.804 102.293L131.17 109.419H148.507L142.048 100.367H123.793L117.585 110.15H118.914V117.386C118.908 117.387 118.902 117.388 118.896 117.389C118.197 117.488 117.626 117.58 117.183 117.657L116.632 114.688L107.545 116.376L108.42 121.087L108.425 121.168L107.9 121.266C108.014 121.447 108.116 121.635 108.2 121.833C108.425 121.841 108.649 121.869 108.868 121.916C109.478 122.204 110.171 122.61 110.667 123.136C117.335 121.764 124.081 121.036 130.489 121.036C138.873 121.036 146.484 122.233 153.225 124.603C155.12 125.269 158.186 126.565 160.655 127.725C160.626 128.077 160.592 128.427 160.553 128.777ZM144.083 120.357C142.714 120.114 141.319 119.91 139.898 119.745V116.276C139.898 114.813 140.835 113.627 141.99 113.627C143.146 113.627 144.083 114.813 144.083 116.276V120.357ZM137.388 112.193V116.92C136.454 116.84 135.535 116.777 134.638 116.731V112.193H137.388ZM129.249 117.72V118.924H127.743V117.751C128.233 117.736 128.736 117.726 129.249 117.72ZM130.345 117.712C130.827 117.712 131.32 117.718 131.82 117.727V118.793L131.803 118.923H130.345V117.712ZM126.647 117.792V118.924H124.714V117.897C125.33 117.857 125.974 117.82 126.647 117.792ZM123.468 117.988V118.924H120.84V118.245C121.616 118.156 122.496 118.066 123.468 117.988ZM118.914 119.942C118.489 119.994 118.064 120.049 117.638 120.107L117.383 118.734C117.71 118.678 118.11 118.613 118.576 118.543L118.914 119.942ZM111.599 119.363L109.928 119.673L109.388 116.762L111.058 116.451L111.599 119.363ZM159.33 125.171C159.883 124.761 160.12 124.13 159.997 123.517C159.884 122.958 159.549 122.534 158.875 122.354C159.039 121.996 159.367 121.428 158.966 120.745C158.297 119.605 157.314 119.941 156.944 120.021C156.919 119.663 156.927 118.857 156.121 118.433C155.674 118.198 155.068 118.187 154.374 118.602C153.832 117.905 153.197 117.722 152.66 117.842C151.838 118.027 151.611 118.691 151.468 119.067C151.315 118.966 150.998 118.746 150.86 118.682C150.245 118.399 149.591 118.562 149.163 118.966C148.501 119.593 148.702 120.31 148.771 120.667C148.413 120.719 148.07 120.735 147.669 121.092C147.31 121.008 146.946 120.93 146.583 120.851C146.583 120.851 146.874 120.142 147.631 120.024C147.533 118.232 149.445 117.022 151.015 117.864C151.818 116.604 153.574 116.432 154.603 117.481C155.932 116.88 157.492 117.651 157.806 119.091C158.953 119.013 160.007 119.795 160.227 120.975C160.227 120.975 160.425 121.05 160.619 121.449C161.047 123.115 160.848 124.321 160.758 125.883C160.286 125.64 159.811 125.403 159.33 125.171Z" fill="#EECE38"/>
<path d="M127.463 110.148H124.712V114.941H127.463V110.148Z" fill="#EECE38"/>
<path d="M104.8 116.329L103.13 116.639L103.671 119.55L105.341 119.24L104.8 116.329Z" fill="#EECE38"/>
<path d="M114.461 103.813C116.387 103.813 117.949 102.252 117.949 100.324C117.949 98.3975 116.387 96.8359 114.461 96.8359C112.534 96.8359 110.972 98.3975 110.972 100.324C110.972 102.252 112.534 103.813 114.461 103.813Z" fill="#EECE38"/>
<path d="M112.854 109.031L101.804 111.213L99.5078 116.931L99.697 116.918C99.9223 116.901 100.129 117.056 100.181 117.279L100.582 119.012C100.755 118.988 100.93 118.971 101.107 118.971C101.115 118.971 101.121 118.971 101.128 118.971L100.827 117.348L102.906 111.746L106.885 115.387C106.889 115.387 106.892 115.383 106.896 115.383L117.412 113.43L112.854 109.031Z" fill="#EECE38"/>
</svg>
