<svg width="40" height="40" viewBox="0 0 40 40" fill="none" xmlns="http://www.w3.org/2000/svg">
<path d="M20 38.2575C21.876 38.2575 23.7337 37.888 25.4669 37.1701C27.2001 36.4521 28.775 35.3999 30.1015 34.0733C31.4281 32.7468 32.4804 31.1719 33.1983 29.4387C33.9162 27.7055 34.2857 25.8478 34.2857 23.9718V16.0289C34.2859 12.5195 32.9943 9.13271 30.6571 6.51465" stroke="#2C2C2C" stroke-width="1.5" stroke-linecap="round" stroke-linejoin="round"/>
<path d="M5.71436 19.2002V23.9716C5.7134 26.7839 6.54251 29.5339 8.09777 31.8769C9.65304 34.22 11.8653 36.0519 14.4572 37.1431" stroke="#2C2C2C" stroke-width="1.5" stroke-linecap="round" stroke-linejoin="round"/>
<path d="M27.1429 3.65706C23.8617 1.76274 19.9625 1.24939 16.3029 2.22993C12.6433 3.21047 9.52303 5.60459 7.62857 8.88563C6.84851 10.2329 6.29813 11.7005 6 13.2285" stroke="#2C2C2C" stroke-width="1.5" stroke-linecap="round" stroke-linejoin="round"/>
<path d="M18.5142 10.0286C19.565 9.81047 20.6514 9.83095 21.6933 10.0886C22.7352 10.3462 23.706 10.8344 24.534 11.5171C25.3621 12.1999 26.0264 13.0598 26.4779 14.0335C26.9294 15.0072 27.1566 16.0697 27.1427 17.1429V21.7429" stroke="#2C2C2C" stroke-width="1.5" stroke-linecap="round" stroke-linejoin="round"/>
<path d="M25.3145 27.7423C24.3424 28.8252 23.0627 29.5853 21.6467 29.9209C20.2307 30.2565 18.746 30.1516 17.3913 29.6203C16.0365 29.089 14.8764 28.1565 14.0661 26.9478C13.2559 25.739 12.8341 24.3116 12.8574 22.8566V17.1423C12.8519 16.161 13.0463 15.1889 13.4288 14.2852" stroke="#2C2C2C" stroke-width="1.5" stroke-linecap="round" stroke-linejoin="round"/>
<path d="M20 17.457V22.2285" stroke="#2C2C2C" stroke-width="1.5" stroke-linecap="round" stroke-linejoin="round"/>
</svg>
