<svg width="40" height="40" viewBox="0 0 40 40" fill="none" xmlns="http://www.w3.org/2000/svg">
<path d="M14.9428 6.42871L16.1714 3.25728C16.3786 2.72032 16.7431 2.25846 17.2173 1.93217C17.6914 1.60589 18.253 1.43041 18.8286 1.42871H21.1714C21.747 1.43041 22.3086 1.60589 22.7827 1.93217C23.2568 2.25846 23.6214 2.72032 23.8286 3.25728L25.0571 6.42871L29.2286 8.82871L32.6 8.31443C33.1614 8.23823 33.7327 8.33064 34.2415 8.57992C34.7502 8.8292 35.1733 9.2241 35.4571 9.71443L36.6 11.7144C36.8928 12.2126 37.0278 12.7878 36.987 13.3642C36.9461 13.9406 36.7315 14.4911 36.3714 14.943L34.2857 17.6001V22.4001L36.4286 25.0573C36.7887 25.5092 37.0033 26.0597 37.0441 26.6361C37.0849 27.2125 36.95 27.7877 36.6571 28.2859L35.5143 30.2859C35.2305 30.7762 34.8073 31.1711 34.2986 31.4204C33.7899 31.6696 33.2185 31.7621 32.6571 31.6859L29.2857 31.1716L25.1143 33.5716L23.8857 36.743C23.6785 37.28 23.314 37.7418 22.8398 38.0681C22.3657 38.3944 21.8041 38.5699 21.2286 38.5716H18.8286C18.253 38.5699 17.6914 38.3944 17.2173 38.0681C16.7431 37.7418 16.3786 37.28 16.1714 36.743L14.9428 33.5716L10.7714 31.1716L7.39998 31.6859C6.8386 31.7621 6.26724 31.6696 5.7585 31.4204C5.24976 31.1711 4.82662 30.7762 4.54284 30.2859L3.39998 28.2859C3.10713 27.7877 2.9722 27.2125 3.01301 26.6361C3.05382 26.0597 3.26844 25.5092 3.62855 25.0573L5.71427 22.4001V17.6001L3.57141 14.943C3.2113 14.4911 2.99667 13.9406 2.95587 13.3642C2.91506 12.7878 3.04998 12.2126 3.34284 11.7144L4.48569 9.71443C4.76948 9.2241 5.19262 8.8292 5.70136 8.57992C6.2101 8.33064 6.78146 8.23823 7.34284 8.31443L10.7143 8.82871L14.9428 6.42871ZM14.2857 20.0001C14.2857 21.1303 14.6208 22.2351 15.2487 23.1748C15.8766 24.1145 16.7691 24.847 17.8132 25.2795C18.8574 25.712 20.0063 25.8251 21.1148 25.6046C22.2232 25.3841 23.2414 24.8399 24.0406 24.0407C24.8397 23.2416 25.384 22.2234 25.6045 21.1149C25.825 20.0065 25.7118 18.8575 25.2793 17.8134C24.8468 16.7692 24.1144 15.8768 23.1747 15.2489C22.235 14.621 21.1302 14.2859 20 14.2859C18.4845 14.2859 17.031 14.8879 15.9594 15.9595C14.8877 17.0312 14.2857 18.4846 14.2857 20.0001V20.0001Z" stroke="#2C2C2C" stroke-width="1.5" stroke-linecap="round" stroke-linejoin="round"/>
</svg>
