<svg width="24" height="24" viewBox="0 0 24 24" fill="none" xmlns="http://www.w3.org/2000/svg">
<g clip-path="url(#clip0_368_2861)">
<path d="M7.71408 22.2856C11.5012 22.2856 14.5712 19.2155 14.5712 15.4284C14.5712 11.6413 11.5012 8.57129 7.71408 8.57129C3.92698 8.57129 0.856934 11.6413 0.856934 15.4284C0.856934 19.2155 3.92698 22.2856 7.71408 22.2856Z" stroke="#2C2C2C" stroke-width="1.5" stroke-linecap="round" stroke-linejoin="round"/>
<path d="M16.2854 22.2856C20.0725 22.2856 23.1425 19.2155 23.1425 15.4284C23.1425 11.6413 20.0725 8.57129 16.2854 8.57129C12.4983 8.57129 9.42822 11.6413 9.42822 15.4284C9.42822 19.2155 12.4983 22.2856 16.2854 22.2856Z" stroke="#2C2C2C" stroke-width="1.5" stroke-linecap="round" stroke-linejoin="round"/>
<path d="M11.9997 15.4282C15.7868 15.4282 18.8569 12.3581 18.8569 8.57101C18.8569 4.78391 15.7868 1.71387 11.9997 1.71387C8.21263 1.71387 5.14258 4.78391 5.14258 8.57101C5.14258 12.3581 8.21263 15.4282 11.9997 15.4282Z" stroke="#2C2C2C" stroke-width="1.5" stroke-linecap="round" stroke-linejoin="round"/>
</g>
<defs>
<clipPath id="clip0_368_2861">
<rect width="24" height="24" fill="white"/>
</clipPath>
</defs>
</svg>
