<svg width="34" height="34" viewBox="0 0 34 34" fill="none" xmlns="http://www.w3.org/2000/svg">
<g clip-path="url(#clip0_247_2104)">
<path d="M30.3566 3.64282L22.0752 11.9243" stroke="#2C2C2C" stroke-width="1.5" stroke-linecap="round" stroke-linejoin="round"/>
<path d="M3.64258 3.64282L11.924 11.9243" stroke="#2C2C2C" stroke-width="1.5" stroke-linecap="round" stroke-linejoin="round"/>
<path d="M3.64258 30.3571L11.924 22.0757" stroke="#2C2C2C" stroke-width="1.5" stroke-linecap="round" stroke-linejoin="round"/>
<path d="M30.3566 30.3571L22.0752 22.0757" stroke="#2C2C2C" stroke-width="1.5" stroke-linecap="round" stroke-linejoin="round"/>
<path d="M16.9996 32.7858C25.7178 32.7858 32.7853 25.7183 32.7853 17.0001C32.7853 8.28186 25.7178 1.21436 16.9996 1.21436C8.28137 1.21436 1.21387 8.28186 1.21387 17.0001C1.21387 25.7183 8.28137 32.7858 16.9996 32.7858Z" stroke="#2C2C2C" stroke-width="1.5" stroke-linecap="round" stroke-linejoin="round"/>
<path d="M16.9992 24.1643C20.956 24.1643 24.1635 20.9567 24.1635 17C24.1635 13.0433 20.956 9.83569 16.9992 9.83569C13.0425 9.83569 9.83496 13.0433 9.83496 17C9.83496 20.9567 13.0425 24.1643 16.9992 24.1643Z" stroke="#2C2C2C" stroke-width="1.5" stroke-linecap="round" stroke-linejoin="round"/>
</g>
<defs>
<clipPath id="clip0_247_2104">
<rect width="34" height="34" fill="white"/>
</clipPath>
</defs>
</svg>
