<svg width="34" height="34" viewBox="0 0 34 34" fill="none" xmlns="http://www.w3.org/2000/svg">
<path d="M17 24.3342V26.7871" stroke="#2C2C2C" stroke-width="1.5" stroke-linecap="round" stroke-linejoin="round"/>
<path d="M17 12.167V14.4498" stroke="#2C2C2C" stroke-width="1.5" stroke-linecap="round" stroke-linejoin="round"/>
<path d="M17.0001 32.7614C25.5001 32.7614 31.5716 29.7499 31.5716 23.0471C31.5716 15.7614 27.9287 10.9042 20.643 7.26136L23.5087 3.56993C23.6543 3.32773 23.7333 3.05134 23.7376 2.76879C23.7419 2.48623 23.6715 2.20755 23.5334 1.96099C23.3954 1.71443 23.1946 1.50876 22.9514 1.36482C22.7082 1.22088 22.4313 1.14379 22.1487 1.14136H11.8516C11.569 1.14379 11.2921 1.22088 11.0489 1.36482C10.8057 1.50876 10.6049 1.71443 10.4668 1.96099C10.3288 2.20755 10.2583 2.48623 10.2627 2.76879C10.267 3.05134 10.346 3.32773 10.4916 3.56993L13.3573 7.28564C6.07157 10.9528 2.42871 15.8099 2.42871 23.0956C2.42871 29.7499 8.50014 32.7614 17.0001 32.7614Z" stroke="#2C2C2C" stroke-width="1.5" stroke-linecap="round" stroke-linejoin="round"/>
<path d="M14.5718 23.2171C14.8681 23.5689 15.2411 23.8481 15.662 24.0333C16.083 24.2185 16.5408 24.3049 17.0004 24.2857C17.7027 24.3336 18.3963 24.1073 18.9352 23.6544C19.4742 23.2015 19.8166 22.5572 19.8904 21.8571C19.8166 21.157 19.4742 20.5128 18.9352 20.0599C18.3963 19.607 17.7027 19.3807 17.0004 19.4286C16.298 19.4764 15.6044 19.2501 15.0655 18.7972C14.5265 18.3443 14.1841 17.7001 14.1104 17C14.1782 16.2974 14.5189 15.6495 15.0593 15.1954C15.5997 14.7413 16.2966 14.5173 17.0004 14.5714C17.4518 14.5438 17.9037 14.6166 18.3237 14.7846C18.7436 14.9525 19.1211 15.2115 19.4289 15.5429" stroke="#2C2C2C" stroke-width="1.5" stroke-linecap="round" stroke-linejoin="round"/>
</svg>
