<svg width="24" height="24" viewBox="0 0 24 24" fill="none" xmlns="http://www.w3.org/2000/svg">
<path d="M9.47998 18.5996L10.92 22.6282" stroke="#2C2C2C" stroke-width="1.5" stroke-linecap="round" stroke-linejoin="round"/>
<path d="M3.39404 1.66211L3.9769 3.27354" stroke="#2C2C2C" stroke-width="1.5" stroke-linecap="round" stroke-linejoin="round"/>
<path d="M9.47998 18.5985L6.47998 17.8613" stroke="#2C2C2C" stroke-width="1.5" stroke-linecap="round" stroke-linejoin="round"/>
<path d="M9.47998 18.599L11.3143 16.1133" stroke="#2C2C2C" stroke-width="1.5" stroke-linecap="round" stroke-linejoin="round"/>
<path d="M8.02246 14.5707L5.02246 13.8164" stroke="#2C2C2C" stroke-width="1.5" stroke-linecap="round" stroke-linejoin="round"/>
<path d="M8.02246 14.5717L9.87389 12.0859" stroke="#2C2C2C" stroke-width="1.5" stroke-linecap="round" stroke-linejoin="round"/>
<path d="M6.58252 10.5243L3.58252 9.78711" stroke="#2C2C2C" stroke-width="1.5" stroke-linecap="round" stroke-linejoin="round"/>
<path d="M6.58252 10.5252L8.41681 8.05664" stroke="#2C2C2C" stroke-width="1.5" stroke-linecap="round" stroke-linejoin="round"/>
<path d="M5.12549 6.49691L2.12549 5.75977" stroke="#2C2C2C" stroke-width="1.5" stroke-linecap="round" stroke-linejoin="round"/>
<path d="M5.12549 6.49548L6.97692 4.00977" stroke="#2C2C2C" stroke-width="1.5" stroke-linecap="round" stroke-linejoin="round"/>
<path d="M16.3028 17.5703L15.3428 21.4275" stroke="#2C2C2C" stroke-width="1.5" stroke-linecap="round" stroke-linejoin="round"/>
<path d="M20.3142 1.37109L19.937 2.91395" stroke="#2C2C2C" stroke-width="1.5" stroke-linecap="round" stroke-linejoin="round"/>
<path d="M16.3029 17.571L14.3657 15.4453" stroke="#2C2C2C" stroke-width="1.5" stroke-linecap="round" stroke-linejoin="round"/>
<path d="M16.3027 17.5713L18.9942 16.6113" stroke="#2C2C2C" stroke-width="1.5" stroke-linecap="round" stroke-linejoin="round"/>
<path d="M17.2457 13.7136L15.3257 11.5879" stroke="#2C2C2C" stroke-width="1.5" stroke-linecap="round" stroke-linejoin="round"/>
<path d="M17.2456 13.7135L19.9542 12.7363" stroke="#2C2C2C" stroke-width="1.5" stroke-linecap="round" stroke-linejoin="round"/>
<path d="M18.2056 9.85618L16.2856 7.73047" stroke="#2C2C2C" stroke-width="1.5" stroke-linecap="round" stroke-linejoin="round"/>
<path d="M18.2056 9.85605L20.9141 8.87891" stroke="#2C2C2C" stroke-width="1.5" stroke-linecap="round" stroke-linejoin="round"/>
<path d="M19.1656 5.99876L17.2456 3.87305" stroke="#2C2C2C" stroke-width="1.5" stroke-linecap="round" stroke-linejoin="round"/>
<path d="M19.1655 6.00058L21.8741 5.02344" stroke="#2C2C2C" stroke-width="1.5" stroke-linecap="round" stroke-linejoin="round"/>
</svg>
