<svg width="24" height="24" viewBox="0 0 24 24" fill="none" xmlns="http://www.w3.org/2000/svg">
<g clip-path="url(#clip0_259_403)">
<path d="M23.1426 23.1102H22.2855C21.3762 23.1102 20.5041 22.749 19.8611 22.106C19.2182 21.463 18.8569 20.591 18.8569 19.6816C18.8569 20.591 18.4957 21.463 17.8527 22.106C17.2097 22.749 16.3377 23.1102 15.4284 23.1102C14.519 23.1102 13.647 22.749 13.004 22.106C12.361 21.463 11.9998 20.591 11.9998 19.6816C11.9998 20.591 11.6386 21.463 10.9956 22.106C10.3526 22.749 9.48053 23.1102 8.57122 23.1102C7.66191 23.1102 6.78983 22.749 6.14685 22.106C5.50387 21.463 5.14265 20.591 5.14265 19.6816C5.14265 20.591 4.78142 21.463 4.13844 22.106C3.49546 22.749 2.62339 23.1102 1.71408 23.1102H0.856934" stroke="#2C2C2C" stroke-width="1.5" stroke-linecap="round" stroke-linejoin="round"/>
<path d="M17.1426 16.2513C16.2597 15.1778 15.15 14.3133 13.8933 13.7197C12.6365 13.1262 11.2639 12.8184 9.87404 12.8184C8.48417 12.8184 7.11156 13.1262 5.85481 13.7197C4.59806 14.3133 3.48837 15.1778 2.60547 16.2513" stroke="#2C2C2C" stroke-width="1.5" stroke-linecap="round" stroke-linejoin="round"/>
<path d="M11.1426 12.9087C11.2454 9.03438 12.4283 5.50295 14.9997 4.23438" stroke="#2C2C2C" stroke-width="1.5" stroke-linecap="round" stroke-linejoin="round"/>
<path d="M9.87402 0.977873C10.9853 0.759058 12.1381 0.974892 13.095 1.58089C14.0518 2.18689 14.7397 3.13686 15.0169 4.23502" stroke="#2C2C2C" stroke-width="1.5" stroke-linecap="round" stroke-linejoin="round"/>
<path d="M21.2743 4.8693C20.4853 4.01734 19.4124 3.48277 18.2571 3.36597C17.1018 3.24918 15.9436 3.55821 15 4.23502" stroke="#2C2C2C" stroke-width="1.5" stroke-linecap="round" stroke-linejoin="round"/>
<path d="M8.7085 6.06902C9.38024 5.07937 10.3759 4.35481 11.5242 4.02002C12.6725 3.68523 13.9016 3.76116 14.9999 4.23473C16.1016 4.50417 17.0555 5.19126 17.6601 6.15088C18.2646 7.1105 18.4725 8.26752 18.2399 9.37759" stroke="#2C2C2C" stroke-width="1.5" stroke-linecap="round" stroke-linejoin="round"/>
</g>
<defs>
<clipPath id="clip0_259_403">
<rect width="24" height="24" fill="white"/>
</clipPath>
</defs>
</svg>
