<svg width="25" height="25" viewBox="0 0 25 25" fill="none" xmlns="http://www.w3.org/2000/svg">
<g clip-path="url(#clip0_368_2756)">
<path d="M23.0539 9.82183H1.94679C0.946789 9.82183 0.518218 8.73254 1.30393 8.21468L11.8575 1.30397C12.0523 1.18935 12.2743 1.12891 12.5004 1.12891C12.7264 1.12891 12.9484 1.18935 13.1432 1.30397L23.6968 8.21468C24.4825 8.73254 24.0539 9.82183 23.0539 9.82183Z" stroke="#2C2C2C" stroke-width="1.5" stroke-linecap="round" stroke-linejoin="round"/>
<path d="M23.2145 19.6436H1.78592C1.29281 19.6436 0.893066 20.0433 0.893066 20.5364V23.215C0.893066 23.7081 1.29281 24.1078 1.78592 24.1078H23.2145C23.7076 24.1078 24.1074 23.7081 24.1074 23.215V20.5364C24.1074 20.0433 23.7076 19.6436 23.2145 19.6436Z" stroke="#2C2C2C" stroke-width="1.5" stroke-linecap="round" stroke-linejoin="round"/>
<path d="M3.57178 9.82227V19.6437" stroke="#2C2C2C" stroke-width="1.5" stroke-linecap="round" stroke-linejoin="round"/>
<path d="M8.03613 9.82227V19.6437" stroke="#2C2C2C" stroke-width="1.5" stroke-linecap="round" stroke-linejoin="round"/>
<path d="M12.5 9.82227V19.6437" stroke="#2C2C2C" stroke-width="1.5" stroke-linecap="round" stroke-linejoin="round"/>
<path d="M16.9644 9.82227V19.6437" stroke="#2C2C2C" stroke-width="1.5" stroke-linecap="round" stroke-linejoin="round"/>
<path d="M21.4287 9.82227V19.6437" stroke="#2C2C2C" stroke-width="1.5" stroke-linecap="round" stroke-linejoin="round"/>
</g>
<defs>
<clipPath id="clip0_368_2756">
<rect width="25" height="25" fill="white"/>
</clipPath>
</defs>
</svg>
