<svg width="24" height="24" viewBox="0 0 24 24" fill="none" xmlns="http://www.w3.org/2000/svg">
<g clip-path="url(#clip0_441_1379)">
<path d="M23.1431 18C23.1431 20.8457 18.1546 23.1429 12.0003 23.1429C5.84599 23.1429 0.857422 20.8457 0.857422 18" stroke="#2C2C2C" stroke-width="1.5" stroke-linecap="round" stroke-linejoin="round"/>
<path d="M16.2863 9.42885C16.2863 11.7946 12.8577 15.4289 12.0006 15.4289C11.1434 15.4289 7.71484 11.7946 7.71484 9.42885C7.71484 6.00028 12.0006 0.857422 12.0006 0.857422C12.0006 0.857422 16.2863 6.00028 16.2863 9.42885Z" stroke="#2C2C2C" stroke-width="1.5" stroke-linecap="round" stroke-linejoin="round"/>
<path d="M8.36627 6.66927C6.22285 5.88054 3.98774 5.36785 1.71484 5.14355C1.71484 5.14355 2.31484 11.8121 4.74913 14.2293C6.46342 15.9436 11.4177 16.0464 12.0177 15.4464" stroke="#2C2C2C" stroke-width="1.5" stroke-linecap="round" stroke-linejoin="round"/>
<path d="M15.6339 6.66927C17.7773 5.88054 20.0124 5.36785 22.2853 5.14355C22.2853 5.14355 21.6853 11.8121 19.251 14.2293C17.5367 15.9436 12.5824 16.0464 11.9824 15.4464" stroke="#2C2C2C" stroke-width="1.5" stroke-linecap="round" stroke-linejoin="round"/>
</g>
<defs>
<clipPath id="clip0_441_1379">
<rect width="24" height="24" fill="white"/>
</clipPath>
</defs>
</svg>
