<svg width="24" height="24" viewBox="0 0 24 24" fill="none" xmlns="http://www.w3.org/2000/svg">
<g clip-path="url(#clip0_73_584)">
<path d="M8.96551 3.85715L9.70265 1.95429C9.82697 1.63211 10.0457 1.35499 10.3302 1.15923C10.6146 0.963457 10.9516 0.858167 11.2969 0.857147H12.7026C13.048 0.858167 13.3849 0.963457 13.6694 1.15923C13.9539 1.35499 14.1726 1.63211 14.2969 1.95429L15.0341 3.85715L17.5369 5.29715L19.5598 4.98858C19.8966 4.94286 20.2394 4.9983 20.5447 5.14787C20.8499 5.29744 21.1038 5.53438 21.2741 5.82858L21.9598 7.02858C22.1355 7.32746 22.2165 7.6726 22.192 8.01844C22.1675 8.36428 22.0387 8.69457 21.8226 8.96572L20.5712 10.56V13.44L21.8569 15.0343C22.073 15.3054 22.2018 15.6357 22.2263 15.9816C22.2507 16.3274 22.1698 16.6725 21.9941 16.9714L21.3084 18.1714C21.1381 18.4656 20.8842 18.7026 20.579 18.8521C20.2737 19.0017 19.9309 19.0572 19.5941 19.0114L17.5712 18.7029L15.0684 20.1429L14.3312 22.0457C14.2069 22.3679 13.9882 22.645 13.7037 22.8408C13.4192 23.0366 13.0823 23.1418 12.7369 23.1429H11.2969C10.9516 23.1418 10.6146 23.0366 10.3302 22.8408C10.0457 22.645 9.82697 22.3679 9.70265 22.0457L8.96551 20.1429L6.46265 18.7029L4.43979 19.0114C4.10296 19.0572 3.76015 19.0017 3.45491 18.8521C3.14966 18.7026 2.89578 18.4656 2.72551 18.1714L2.03979 16.9714C1.86408 16.6725 1.78313 16.3274 1.80761 15.9816C1.83209 15.6357 1.96087 15.3054 2.17694 15.0343L3.42836 13.44V10.56L2.14265 8.96572C1.92658 8.69457 1.79781 8.36428 1.77332 8.01844C1.74884 7.6726 1.8298 7.32746 2.00551 7.02858L2.69122 5.82858C2.86149 5.53438 3.11538 5.29744 3.42062 5.14787C3.72586 4.9983 4.06868 4.94286 4.40551 4.98858L6.42836 5.29715L8.96551 3.85715ZM8.57122 12C8.57122 12.6781 8.7723 13.341 9.14904 13.9048C9.52578 14.4686 10.0612 14.9081 10.6877 15.1676C11.3142 15.4271 12.0036 15.495 12.6687 15.3627C13.3338 15.2304 13.9447 14.9039 14.4242 14.4244C14.9037 13.9449 15.2302 13.334 15.3625 12.6689C15.4948 12.0038 15.4269 11.3144 15.1674 10.6879C14.9079 10.0615 14.4684 9.52599 13.9046 9.14925C13.3408 8.77252 12.6779 8.57143 11.9998 8.57143C11.0905 8.57143 10.2184 8.93266 9.57543 9.57564C8.93244 10.2186 8.57122 11.0907 8.57122 12V12Z" stroke="#2C2C2C" stroke-width="1.5" stroke-linecap="round" stroke-linejoin="round"/>
</g>
<defs>
<clipPath id="clip0_73_584">
<rect width="24" height="24" fill="white"/>
</clipPath>
</defs>
</svg>
