<svg width="24" height="24" viewBox="0 0 24 24" fill="none" xmlns="http://www.w3.org/2000/svg">
<g clip-path="url(#clip0_73_413)">
<path d="M14.5712 8.57139C15.518 8.57139 16.2855 7.80388 16.2855 6.85711C16.2855 5.91033 15.518 5.14282 14.5712 5.14282C13.6244 5.14282 12.8569 5.91033 12.8569 6.85711C12.8569 7.80388 13.6244 8.57139 14.5712 8.57139Z" stroke="#2C2C2C" stroke-width="1.5" stroke-linecap="round" stroke-linejoin="round"/>
<path d="M7.71408 17.1428C8.18746 17.1428 8.57122 16.7591 8.57122 16.2857C8.57122 15.8123 8.18746 15.4285 7.71408 15.4285C7.24069 15.4285 6.85693 15.8123 6.85693 16.2857C6.85693 16.7591 7.24069 17.1428 7.71408 17.1428Z" stroke="#2C2C2C" stroke-width="1.5" stroke-linecap="round" stroke-linejoin="round"/>
<path d="M7.71429 11.1428C8.66106 11.1428 9.42857 10.3753 9.42857 9.42852C9.42857 8.48175 8.66106 7.71423 7.71429 7.71423C6.76751 7.71423 6 8.48175 6 9.42852C6 10.3753 6.76751 11.1428 7.71429 11.1428Z" stroke="#2C2C2C" stroke-width="1.5" stroke-linecap="round" stroke-linejoin="round"/>
<path d="M16.32 21.0514C16.3009 20.7189 16.1853 20.3991 15.9874 20.1312C15.7895 19.8633 15.5179 19.6589 15.2057 19.5428C14.4303 19.288 13.7713 18.7649 13.3471 18.0676C12.9229 17.3704 12.7614 16.5446 12.8915 15.7389C13.0217 14.9332 13.435 14.2003 14.0571 13.6721C14.6793 13.1438 15.4695 12.8549 16.2857 12.8571H19.4914C20.0412 12.8587 20.5833 12.7279 21.072 12.476C21.5607 12.224 21.9817 11.8582 22.2993 11.4095C22.617 10.9607 22.8221 10.4421 22.8973 9.89745C22.9725 9.35279 22.9156 8.79803 22.7314 8.27998C22.0495 6.35478 20.8517 4.65401 19.2687 3.36348C17.6857 2.07296 15.7785 1.24232 13.7554 0.96233C11.7323 0.682336 9.67121 0.963754 7.79722 1.77584C5.92324 2.58792 4.3085 3.89943 3.12941 5.56708C1.95033 7.23472 1.25226 9.19435 1.11147 11.2319C0.970684 13.2694 1.3926 15.3064 2.33111 17.1204C3.26963 18.9343 4.68864 20.4555 6.43312 21.5176C8.1776 22.5797 10.1804 23.1419 12.2228 23.1428C13.2314 23.1457 14.2355 23.0072 15.2057 22.7314C15.562 22.6316 15.8706 22.407 16.0751 22.0986C16.2797 21.7902 16.3666 21.4185 16.32 21.0514V21.0514Z" stroke="#2C2C2C" stroke-width="1.5" stroke-linecap="round" stroke-linejoin="round"/>
</g>
<defs>
<clipPath id="clip0_73_413">
<rect width="24" height="24" fill="white"/>
</clipPath>
</defs>
</svg>
