<svg width="20" height="20" viewBox="0 0 20 20" fill="none" xmlns="http://www.w3.org/2000/svg">
<g clip-path="url(#clip0_312_1561)">
<path d="M6.07129 16.4286L6.78557 15" stroke="#2C2C2C" stroke-width="1.5" stroke-linecap="round" stroke-linejoin="round"/>
<path d="M12.5 16.4286L13.2143 15" stroke="#2C2C2C" stroke-width="1.5" stroke-linecap="round" stroke-linejoin="round"/>
<path d="M8.57129 19.284L9.28557 17.8555" stroke="#2C2C2C" stroke-width="1.5" stroke-linecap="round" stroke-linejoin="round"/>
<path d="M2.14258 19.284L2.85686 17.8555" stroke="#2C2C2C" stroke-width="1.5" stroke-linecap="round" stroke-linejoin="round"/>
<path d="M15 19.284L15.7143 17.8555" stroke="#2C2C2C" stroke-width="1.5" stroke-linecap="round" stroke-linejoin="round"/>
<path d="M15.7141 11.4278C16.2217 11.4293 16.7238 11.3226 17.1868 11.1147C17.6499 10.9069 18.0634 10.6028 18.3997 10.2226C18.736 9.84235 18.9874 9.39483 19.1371 8.90982C19.2868 8.42482 19.3314 7.91347 19.268 7.40986C19.2045 6.90625 19.0344 6.42196 18.7691 5.98926C18.5037 5.55656 18.1491 5.1854 17.729 4.90051C17.3089 4.61563 16.8329 4.42356 16.3328 4.33713C15.8326 4.25069 15.3197 4.27186 14.8284 4.39923C14.5428 3.33697 13.9149 2.39852 13.042 1.72926C12.1691 1.05999 11.0998 0.697266 9.99981 0.697266C8.89983 0.697266 7.83056 1.05999 6.95762 1.72926C6.08468 2.39852 5.45679 3.33697 5.17123 4.39923C4.67988 4.27186 4.16703 4.25069 3.66685 4.33713C3.16668 4.42356 2.69067 4.61563 2.27057 4.90051C1.85047 5.1854 1.49591 5.55656 1.23055 5.98926C0.965183 6.42196 0.7951 6.90625 0.731638 7.40986C0.668175 7.91347 0.712791 8.42482 0.86251 8.90982C1.01223 9.39483 1.26361 9.84235 1.59991 10.2226C1.9362 10.6028 2.34967 10.9069 2.81276 11.1147C3.27586 11.3226 3.77793 11.4293 4.28552 11.4278H15.7141Z" stroke="#2C2C2C" stroke-width="1.5" stroke-linecap="round" stroke-linejoin="round"/>
</g>
<defs>
<clipPath id="clip0_312_1561">
<rect width="20" height="20" fill="white"/>
</clipPath>
</defs>
</svg>
