<svg width="24" height="24" viewBox="0 0 24 24" fill="none" xmlns="http://www.w3.org/2000/svg">
<g clip-path="url(#clip0_225_61)">
<path d="M0.856934 19.7137C0.856934 19.7137 4.28551 16.2852 11.9998 16.2852C19.7141 16.2852 23.1426 19.7137 23.1426 19.7137" stroke="#2C2C2C" stroke-width="1.5" stroke-linecap="round" stroke-linejoin="round"/>
<path d="M12 16.2852V23.1423" stroke="#2C2C2C" stroke-width="1.5" stroke-linecap="round" stroke-linejoin="round"/>
<path d="M4.28564 23.1436L10.2856 16.3379" stroke="#2C2C2C" stroke-width="1.5" stroke-linecap="round" stroke-linejoin="round"/>
<path d="M19.7139 23.1436L13.7139 16.3379" stroke="#2C2C2C" stroke-width="1.5" stroke-linecap="round" stroke-linejoin="round"/>
<path d="M6.06842 12.8571C6.0423 12.572 6.0423 12.2851 6.06842 12C6.06842 10.4087 6.70056 8.88258 7.82578 7.75736C8.951 6.63214 10.4771 6 12.0684 6C13.6597 6 15.1858 6.63214 16.3111 7.75736C17.4363 8.88258 18.0684 10.4087 18.0684 12C18.0945 12.2851 18.0945 12.572 18.0684 12.8571" stroke="#2C2C2C" stroke-width="1.5" stroke-linecap="round" stroke-linejoin="round"/>
<path d="M0.856934 12H2.57122" stroke="#2C2C2C" stroke-width="1.5" stroke-linecap="round" stroke-linejoin="round"/>
<path d="M4.28564 4.28516L5.14279 5.1423" stroke="#2C2C2C" stroke-width="1.5" stroke-linecap="round" stroke-linejoin="round"/>
<path d="M12 0.857422V2.57171" stroke="#2C2C2C" stroke-width="1.5" stroke-linecap="round" stroke-linejoin="round"/>
<path d="M19.7141 4.28516L18.8569 5.1423" stroke="#2C2C2C" stroke-width="1.5" stroke-linecap="round" stroke-linejoin="round"/>
<path d="M23.1425 12H21.4282" stroke="#2C2C2C" stroke-width="1.5" stroke-linecap="round" stroke-linejoin="round"/>
</g>
<defs>
<clipPath id="clip0_225_61">
<rect width="24" height="24" fill="white"/>
</clipPath>
</defs>
</svg>
