<svg width="20" height="20" viewBox="0 0 20 20" fill="none" xmlns="http://www.w3.org/2000/svg">
<g clip-path="url(#clip0_312_1582)">
<path d="M19.2858 19.2556H18.5715C17.8137 19.2556 17.087 18.9546 16.5512 18.4187C16.0154 17.8829 15.7144 17.1562 15.7144 16.3984C15.7144 17.1562 15.4133 17.8829 14.8775 18.4187C14.3417 18.9546 13.615 19.2556 12.8572 19.2556C12.0995 19.2556 11.3727 18.9546 10.8369 18.4187C10.3011 17.8829 10.0001 17.1562 10.0001 16.3984C10.0001 17.1562 9.69905 17.8829 9.16323 18.4187C8.62741 18.9546 7.90069 19.2556 7.14293 19.2556C6.38517 19.2556 5.65844 18.9546 5.12262 18.4187C4.5868 17.8829 4.28578 17.1562 4.28578 16.3984C4.28578 17.1562 3.98476 17.8829 3.44895 18.4187C2.91313 18.9546 2.1864 19.2556 1.42864 19.2556H0.714355" stroke="#2C2C2C" stroke-width="1.5" stroke-linecap="round" stroke-linejoin="round"/>
<path d="M14.2857 13.5424C13.5499 12.6479 12.6252 11.9274 11.5779 11.4328C10.5306 10.9382 9.38675 10.6816 8.22853 10.6816C7.07031 10.6816 5.92646 10.9382 4.87917 11.4328C3.83188 11.9274 2.90714 12.6479 2.17139 13.5424" stroke="#2C2C2C" stroke-width="1.5" stroke-linecap="round" stroke-linejoin="round"/>
<path d="M9.28564 10.7559C9.37136 7.52734 10.3571 4.58449 12.4999 3.52734" stroke="#2C2C2C" stroke-width="1.5" stroke-linecap="round" stroke-linejoin="round"/>
<path d="M8.22852 0.813592C9.15456 0.631246 10.1153 0.811108 10.9126 1.31611C11.71 1.8211 12.2833 2.61275 12.5142 3.52788" stroke="#2C2C2C" stroke-width="1.5" stroke-linecap="round" stroke-linejoin="round"/>
<path d="M17.7286 4.05612C17.0711 3.34616 16.177 2.90068 15.2142 2.80335C14.2515 2.70602 13.2863 2.96355 12.5 3.52755" stroke="#2C2C2C" stroke-width="1.5" stroke-linecap="round" stroke-linejoin="round"/>
<path d="M7.25732 5.05654C7.81711 4.23183 8.64685 3.62803 9.60376 3.34904C10.5607 3.07005 11.5849 3.13332 12.5002 3.52797C13.4183 3.7525 14.2132 4.32507 14.717 5.12476C15.2208 5.92444 15.394 6.88862 15.2002 7.81368" stroke="#2C2C2C" stroke-width="1.5" stroke-linecap="round" stroke-linejoin="round"/>
</g>
<defs>
<clipPath id="clip0_312_1582">
<rect width="20" height="20" fill="white"/>
</clipPath>
</defs>
</svg>
