<svg width="34" height="34" viewBox="0 0 34 34" fill="none" xmlns="http://www.w3.org/2000/svg">
<path d="M10.9286 31.5714C16.2937 31.5714 20.6429 27.2222 20.6429 21.8571C20.6429 16.4921 16.2937 12.1428 10.9286 12.1428C5.56359 12.1428 1.21436 16.4921 1.21436 21.8571C1.21436 27.2222 5.56359 31.5714 10.9286 31.5714Z" stroke="#2C2C2C" stroke-width="1.5" stroke-linecap="round" stroke-linejoin="round"/>
<path d="M23.0717 31.5714C28.4368 31.5714 32.786 27.2222 32.786 21.8571C32.786 16.4921 28.4368 12.1428 23.0717 12.1428C17.7067 12.1428 13.3574 16.4921 13.3574 21.8571C13.3574 27.2222 17.7067 31.5714 23.0717 31.5714Z" stroke="#2C2C2C" stroke-width="1.5" stroke-linecap="round" stroke-linejoin="round"/>
<path d="M16.9999 21.8572C22.365 21.8572 26.7142 17.5079 26.7142 12.1429C26.7142 6.77782 22.365 2.42859 16.9999 2.42859C11.6349 2.42859 7.28564 6.77782 7.28564 12.1429C7.28564 17.5079 11.6349 21.8572 16.9999 21.8572Z" stroke="#2C2C2C" stroke-width="1.5" stroke-linecap="round" stroke-linejoin="round"/>
</svg>
