<svg width="24" height="24" viewBox="0 0 24 24" fill="none" xmlns="http://www.w3.org/2000/svg">
<g clip-path="url(#clip0_259_394)">
<path d="M7.28564 19.7143L8.14279 18" stroke="#2C2C2C" stroke-width="1.5" stroke-linecap="round" stroke-linejoin="round"/>
<path d="M15 19.7143L15.8571 18" stroke="#2C2C2C" stroke-width="1.5" stroke-linecap="round" stroke-linejoin="round"/>
<path d="M10.2856 23.144L11.1428 21.4297" stroke="#2C2C2C" stroke-width="1.5" stroke-linecap="round" stroke-linejoin="round"/>
<path d="M2.57178 23.144L3.42892 21.4297" stroke="#2C2C2C" stroke-width="1.5" stroke-linecap="round" stroke-linejoin="round"/>
<path d="M18 23.144L18.8571 21.4297" stroke="#2C2C2C" stroke-width="1.5" stroke-linecap="round" stroke-linejoin="round"/>
<path d="M18.8573 13.7145C19.4664 13.7163 20.0689 13.5882 20.6246 13.3389C21.1803 13.0895 21.6765 12.7245 22.08 12.2682C22.4836 11.812 22.7852 11.275 22.9649 10.693C23.1446 10.111 23.1981 9.49733 23.122 8.89301C23.0458 8.28868 22.8417 7.70752 22.5233 7.18829C22.2048 6.66905 21.7794 6.22365 21.2752 5.88179C20.7711 5.53993 20.1999 5.30945 19.5997 5.20572C18.9995 5.102 18.3841 5.1274 17.7944 5.28025C17.4518 4.00554 16.6983 2.8794 15.6508 2.07628C14.6033 1.27316 13.3201 0.837891 12.0002 0.837891C10.6802 0.837891 9.39706 1.27316 8.34953 2.07628C7.302 2.8794 6.54854 4.00554 6.20587 5.28025C5.61625 5.1274 5.00083 5.102 4.40062 5.20572C3.8004 5.30945 3.2292 5.53993 2.72507 5.88179C2.22095 6.22365 1.79549 6.66905 1.47705 7.18829C1.15861 7.70752 0.954511 8.28868 0.878356 8.89301C0.802201 9.49733 0.855739 10.111 1.0354 10.693C1.21507 11.275 1.51673 11.812 1.92028 12.2682C2.32383 12.7245 2.82 13.0895 3.37571 13.3389C3.93142 13.5882 4.53391 13.7163 5.14301 13.7145H18.8573Z" stroke="#2C2C2C" stroke-width="1.5" stroke-linecap="round" stroke-linejoin="round"/>
</g>
<defs>
<clipPath id="clip0_259_394">
<rect width="24" height="24" fill="white"/>
</clipPath>
</defs>
</svg>
