<svg width="34" height="34" viewBox="0 0 34 34" fill="none" xmlns="http://www.w3.org/2000/svg">
<g clip-path="url(#clip0_247_2113)">
<path d="M30.3567 1.21436H3.64244C2.30118 1.21436 1.21387 2.30166 1.21387 3.64293V30.3572C1.21387 31.6985 2.30118 32.7858 3.64244 32.7858H30.3567C31.698 32.7858 32.7853 31.6985 32.7853 30.3572V3.64293C32.7853 2.30166 31.698 1.21436 30.3567 1.21436Z" stroke="#2C2C2C" stroke-width="1.5" stroke-linecap="round" stroke-linejoin="round"/>
<path d="M13.332 25.6457V16.3443C13.3388 16.2014 13.3806 16.0623 13.4537 15.9392C13.5268 15.8162 13.6289 15.713 13.7512 15.6387C13.8735 15.5643 14.0122 15.5212 14.155 15.5129C14.2979 15.5047 14.4406 15.5316 14.5706 15.5914L22.6335 20.23C22.764 20.3105 22.8718 20.423 22.9466 20.5569C23.0214 20.6908 23.0606 20.8416 23.0606 20.995C23.0606 21.1484 23.0214 21.2992 22.9466 21.4331C22.8718 21.567 22.764 21.6795 22.6335 21.76L14.5706 26.4229C14.4383 26.4772 14.295 26.4992 14.1525 26.4871C14.01 26.4749 13.8725 26.4289 13.7514 26.3529C13.6303 26.2769 13.529 26.1731 13.4561 26.0501C13.3831 25.9271 13.3406 25.7885 13.332 25.6457V25.6457Z" stroke="#2C2C2C" stroke-width="1.5" stroke-linecap="round" stroke-linejoin="round"/>
<path d="M1.21387 9.71436H32.7853" stroke="#2C2C2C" stroke-width="1.5" stroke-linecap="round" stroke-linejoin="round"/>
<path d="M9.71387 9.71436L13.3567 1.21436" stroke="#2C2C2C" stroke-width="1.5" stroke-linecap="round" stroke-linejoin="round"/>
<path d="M20.6426 9.71436L24.2854 1.21436" stroke="#2C2C2C" stroke-width="1.5" stroke-linecap="round" stroke-linejoin="round"/>
</g>
<defs>
<clipPath id="clip0_247_2113">
<rect width="34" height="34" fill="white"/>
</clipPath>
</defs>
</svg>
