<svg width="34" height="34" viewBox="0 0 34 34" fill="none" xmlns="http://www.w3.org/2000/svg">
<g clip-path="url(#clip0_73_310)">
<path d="M7.89293 14.5714C11.5814 14.5714 14.5715 11.5813 14.5715 7.89281C14.5715 4.20433 11.5814 1.21423 7.89293 1.21423C4.20445 1.21423 1.21436 4.20433 1.21436 7.89281C1.21436 11.5813 4.20445 14.5714 7.89293 14.5714Z" stroke="#2C2C2C" stroke-width="1.5" stroke-linecap="round" stroke-linejoin="round"/>
<path d="M26.1073 14.5714C29.7958 14.5714 32.7859 11.5813 32.7859 7.89281C32.7859 4.20433 29.7958 1.21423 26.1073 1.21423C22.4188 1.21423 19.4287 4.20433 19.4287 7.89281C19.4287 11.5813 22.4188 14.5714 26.1073 14.5714Z" stroke="#2C2C2C" stroke-width="1.5" stroke-linecap="round" stroke-linejoin="round"/>
<path d="M7.89293 32.7856C11.5814 32.7856 14.5715 29.7955 14.5715 26.107C14.5715 22.4186 11.5814 19.4285 7.89293 19.4285C4.20445 19.4285 1.21436 22.4186 1.21436 26.107C1.21436 29.7955 4.20445 32.7856 7.89293 32.7856Z" stroke="#2C2C2C" stroke-width="1.5" stroke-linecap="round" stroke-linejoin="round"/>
<path d="M26.1073 32.7856C29.7958 32.7856 32.7859 29.7955 32.7859 26.107C32.7859 22.4186 29.7958 19.4285 26.1073 19.4285C22.4188 19.4285 19.4287 22.4186 19.4287 26.107C19.4287 29.7955 22.4188 32.7856 26.1073 32.7856Z" stroke="#2C2C2C" stroke-width="1.5" stroke-linecap="round" stroke-linejoin="round"/>
</g>
<defs>
<clipPath id="clip0_73_310">
<rect width="34" height="34" fill="white"/>
</clipPath>
</defs>
</svg>
