<svg width="20" height="20" viewBox="0 0 20 20" fill="none" xmlns="http://www.w3.org/2000/svg">
<path d="M10 19.1273C10.938 19.1273 11.8668 18.9425 12.7335 18.5836C13.6001 18.2246 14.3875 17.6985 15.0508 17.0352C15.714 16.3719 16.2402 15.5845 16.5991 14.7179C16.9581 13.8513 17.1429 12.9224 17.1429 11.9844V8.013C17.143 6.25827 16.4971 4.56489 15.3286 3.25586" stroke="#2C2C2C" stroke-width="1.5" stroke-linecap="round" stroke-linejoin="round"/>
<path d="M2.85693 9.59961V11.9853C2.85646 13.3915 3.27101 14.7664 4.04864 15.938C4.82627 17.1095 5.93239 18.0255 7.22836 18.571" stroke="#2C2C2C" stroke-width="1.5" stroke-linecap="round" stroke-linejoin="round"/>
<path d="M13.5714 1.82804C11.9309 0.880881 9.98124 0.624205 8.15144 1.11448C6.32163 1.60475 4.76152 2.8018 3.81429 4.44233C3.42425 5.11594 3.14907 5.84978 3 6.61375" stroke="#2C2C2C" stroke-width="1.5" stroke-linecap="round" stroke-linejoin="round"/>
<path d="M9.25684 5.01431C9.78226 4.90523 10.3255 4.91548 10.8464 5.04429C11.3673 5.1731 11.8527 5.41719 12.2668 5.75857C12.6808 6.09995 13.013 6.52991 13.2387 7.01674C13.4645 7.50358 13.578 8.03487 13.5711 8.57146V10.8715" stroke="#2C2C2C" stroke-width="1.5" stroke-linecap="round" stroke-linejoin="round"/>
<path d="M12.6568 13.8711C12.1707 14.4126 11.5308 14.7926 10.8229 14.9604C10.1149 15.1283 9.37252 15.0758 8.69515 14.8102C8.01778 14.5445 7.43771 14.0783 7.03258 13.4739C6.62745 12.8695 6.41658 12.1558 6.42819 11.4283V8.57115C6.42547 8.0805 6.52269 7.59444 6.7139 7.14258" stroke="#2C2C2C" stroke-width="1.5" stroke-linecap="round" stroke-linejoin="round"/>
<path d="M10 8.72852V11.1142" stroke="#2C2C2C" stroke-width="1.5" stroke-linecap="round" stroke-linejoin="round"/>
</svg>
