<svg width="50" height="50" viewBox="0 0 50 50" fill="none" xmlns="http://www.w3.org/2000/svg">
<circle cx="25" cy="25" r="25" fill="#EECE38"/>
<path d="M25.0004 4.99658C13.9726 4.99658 5.00049 13.9685 5.00049 24.9964C5.00049 36.0245 13.9724 44.9966 25.0004 44.9966C36.0284 44.9966 45.0005 36.0247 45.0005 24.9964C45.0005 13.9685 36.0286 4.99658 25.0004 4.99658ZM6.12783 25.1803C13.0942 27.4401 19.1897 30.5563 24.5836 34.3429C23.3123 34.8377 22.1006 35.3527 20.9524 35.876C15.608 31.4673 9.23539 28.9799 6.36687 28.0082C6.21839 27.0859 6.13702 26.1417 6.12783 25.1803ZM6.57404 29.0907C9.49749 30.1191 15.1316 32.4261 19.9886 36.3235C18.9366 36.8224 17.9448 37.3254 17.0128 37.8219C13.8798 35.1855 9.82727 33.2309 7.57952 32.259C7.15506 31.2445 6.81702 30.1854 6.57404 29.0907ZM13.4075 39.8814C11.2463 38.1944 9.45999 36.0483 8.19785 33.5904C10.3901 34.6011 13.5511 36.2455 16.1024 38.3146C15.1261 38.8536 14.2273 39.3799 13.4075 39.8814ZM39.5734 36.9793C32.4004 38.33 25.9103 41.3311 21.756 43.5918C21.3574 43.5224 20.9631 43.4399 20.5733 43.346C24.8017 40.957 32.1698 37.3749 40.3132 36.0192C40.0762 36.3471 39.83 36.6677 39.5734 36.9793ZM41.8941 33.4081C31.1388 34.3521 21.1652 39.8308 17.2706 42.2151C16.9399 42.0662 16.6148 41.9072 16.2947 41.7402C20.1335 39.4941 24.2313 37.4121 28.4666 35.7828C34.4042 33.4983 38.4192 32.826 42.3073 32.5254C42.177 32.8237 42.0392 33.1181 41.8941 33.4081ZM43.758 27.0974C35.1705 24.6139 26.6081 25.6059 21.2008 26.7726C21.2893 26.8261 21.8126 27.3051 21.9361 27.5196C22.0588 27.5085 26.5961 26.7816 29.1431 26.6136C33.5272 26.3251 38.5776 26.5739 43.6264 28.0565C43.5827 28.3233 43.5344 28.5882 43.4796 28.8509C37.0463 27.839 30.189 28.6195 24.9554 29.907C25.1622 30.1631 25.3041 30.4637 25.3733 30.7886C30.4583 29.5574 37.0601 28.8217 43.2597 29.7844C43.2308 29.8946 43.201 30.0045 43.1701 30.114C36.6327 30.557 30.7138 32.065 25.666 33.9327C25.5283 33.8345 25.3909 33.739 25.2535 33.6423C25.2865 33.053 24.9796 32.4964 24.44 32.2202C25.1869 31.376 24.7479 30.0077 23.6261 29.7638C23.7276 28.6462 22.6135 27.8098 21.567 28.2301C21.5241 28.0492 21.2348 27.2323 20.4003 27.1054C19.8719 27.025 19.3097 27.1842 18.9482 27.6201C18.8393 27.5295 18.3205 27.1358 17.5996 27.3263C17.186 27.4356 16.8266 27.666 16.605 28.1928C16.5308 28.2487 15.6631 27.9782 15.4672 27.8831C15.4672 27.8831 15.9147 27.8042 16.1076 27.8109C16.5053 27.0347 17.3658 26.5484 18.3006 26.6892C18.1523 26.3881 17.8994 26.1371 17.5646 25.9993C18.0117 24.9109 17.0209 23.7822 15.8871 24.0775C15.7728 23.0171 14.5793 22.4513 13.6859 23.0362C12.9952 22.2207 11.6837 22.4267 11.2775 23.4151C11.2733 23.4262 11.2703 23.4371 11.266 23.4481C10.1949 22.7001 8.76593 23.6731 9.06121 24.9403C8.95716 24.9595 8.85779 24.9943 8.76086 25.036C8.5235 24.9525 8.28784 24.8725 8.05405 24.7947C8.17685 24.691 8.30696 24.5967 8.45039 24.526C8.46051 24.2309 8.53325 23.9409 8.66806 23.6711C8.66037 23.6446 8.66674 23.6233 8.6988 23.6131C9.16527 22.7451 10.1535 22.3656 11.0362 22.6438C11.2477 22.3731 11.5229 22.1661 11.8341 22.0353L11.6828 21.3822C11.488 21.3948 11.2955 21.4456 11.1895 21.3001C11.0602 21.1213 11.1159 21.1766 12.5585 17.5836C12.6405 17.3796 12.5977 17.461 16.6896 16.7009C16.5394 16.5419 16.3422 16.4712 16.1455 16.4821C16.0641 16.0185 15.5793 15.7515 15.1526 15.9517C14.7225 15.5083 14.0236 15.5706 13.6626 16.0528C13.1819 15.906 12.7138 16.2999 12.755 16.8048C12.1556 16.7671 11.7805 17.4625 12.147 17.9629C11.6485 18.1639 11.4078 18.7057 11.5669 19.217C11.3538 19.2203 11.146 19.2933 10.9751 19.4283C10.4838 18.5373 9.16714 18.8602 9.12214 19.879C8.42864 19.4643 7.37554 19.9356 7.60896 21.1188C7.17643 21.1188 6.87664 21.5521 7.01988 21.9713C6.78721 21.9136 6.55829 21.9558 6.353 22.0664C7.76457 13.0451 15.5889 6.12112 25.0002 6.12112C34.2631 6.12112 41.9889 12.828 43.5764 21.6408C43.417 21.2129 43.1144 20.8547 42.7173 20.6544C42.796 19.6218 42.0767 18.6817 41.0828 18.6481C41.0854 18.6376 41.0854 18.627 41.0903 18.618C41.6235 17.7096 41.2519 16.5952 40.3374 16.3811C39.959 16.2926 39.5835 16.3524 39.2592 16.5211C39.0882 15.8915 38.5928 15.4588 37.9891 15.2342C37.6543 15.1095 37.1619 15.2241 37.026 15.2293L38.2001 16.9272C38.4807 17.3329 38.1933 17.8875 37.6998 17.892C37.3787 17.895 37.1198 18.1562 37.1198 18.4773V20.7311C37.1198 20.9878 37.1196 20.849 37.0798 21.1882C36.9327 21.1535 36.6848 21.1651 36.5382 21.1327V17.716H28.6961V20.7315C28.5654 20.7292 28.2765 20.7289 27.9475 20.7304V20.6072C27.9475 20.1745 27.2946 20.1756 27.2946 20.6072V20.7345C27.1148 20.736 26.9448 20.7379 26.8032 20.7395C26.6696 20.7414 25.3112 20.7969 24.9713 20.819V20.6072C24.9713 20.1745 24.3185 20.1756 24.3185 20.6072V20.8657C23.8108 20.9064 23.3496 20.9521 22.9409 20.9983V17.5663L25.5432 13.2146L28.3558 16.9503H37.4435L34.058 12.205H24.4889L21.2348 17.3331H21.9313V21.1263C21.9283 21.1267 21.9249 21.1273 21.9217 21.1278C21.5556 21.1798 21.2561 21.2279 21.024 21.2682L20.7349 19.7121L15.9719 20.5969L16.4307 23.0666L16.4331 23.1092L16.1577 23.1604C16.2175 23.255 16.2713 23.3536 16.315 23.4577C16.4331 23.4616 16.5503 23.4763 16.6654 23.5008C16.9849 23.6519 17.348 23.8649 17.6084 24.1407C21.1037 23.4213 24.6399 23.0398 27.999 23.0398C32.3938 23.0398 36.3835 23.6671 39.9168 24.9096C40.9101 25.2587 42.5173 25.9378 43.8115 26.546C43.7965 26.7304 43.7785 26.914 43.758 27.0974ZM35.1246 22.6838C34.4069 22.5566 33.6757 22.4496 32.9308 22.3628V20.5444C32.9308 19.7776 33.422 19.1558 34.0278 19.1558C34.6333 19.1558 35.1246 19.7776 35.1246 20.5444V22.6838ZM31.6154 18.4044V20.8824C31.1257 20.8402 30.644 20.8072 30.1737 20.7828V18.4044H31.6154ZM27.3488 21.3014V21.9325H26.5593V21.3177C26.8162 21.3101 27.0798 21.3046 27.3488 21.3014ZM27.9233 21.2975C28.176 21.2975 28.4345 21.3005 28.6965 21.3052V21.8637L28.6878 21.9323H27.9233V21.2975ZM25.9849 21.3391V21.9325H24.9715V21.3942C25.2944 21.3731 25.6322 21.3541 25.9849 21.3391ZM24.3187 21.4422V21.9325H22.9411V21.5767C23.3477 21.5298 23.8089 21.4829 24.3187 21.4422ZM21.9313 22.4661C21.7084 22.4933 21.4856 22.5225 21.2625 22.5525L21.1288 21.8331C21.3 21.8035 21.5096 21.7694 21.7541 21.733L21.9313 22.4661ZM18.097 22.1626L17.2211 22.3251L16.9376 20.7992L17.8132 20.6364L18.097 22.1626ZM43.117 25.2075C43.4071 24.9925 43.5314 24.6615 43.4667 24.3404C43.4076 24.0473 43.2319 23.8248 42.8787 23.7309C42.9646 23.5432 43.1367 23.2455 42.9263 22.8872C42.5758 22.2897 42.0605 22.4655 41.8663 22.5079C41.8534 22.3202 41.8575 21.8974 41.4351 21.6753C41.2006 21.5519 40.8828 21.5461 40.5192 21.7638C40.2352 21.3986 39.9024 21.3024 39.6206 21.3656C39.19 21.4623 39.0709 21.8103 38.9961 22.0075C38.9159 21.9544 38.7496 21.8395 38.6772 21.8058C38.3545 21.6577 38.012 21.7428 37.7876 21.9548C37.4404 22.2831 37.5461 22.659 37.5819 22.8465C37.3944 22.8737 37.2144 22.8819 37.0045 23.0692C36.8162 23.0252 36.6256 22.9841 36.4351 22.9425C36.4351 22.9425 36.5879 22.5713 36.9846 22.5094C36.9334 21.5699 37.9355 20.9358 38.7582 21.3768C39.1791 20.7167 40.0996 20.6265 40.6392 21.1762C41.3361 20.8612 42.1537 21.2654 42.3181 22.0203C42.9196 21.9794 43.4721 22.3892 43.587 23.0079C43.587 23.0079 43.6909 23.0469 43.7925 23.2563C44.0169 24.1296 43.9131 24.7615 43.8656 25.5806C43.6184 25.4531 43.369 25.3286 43.117 25.2075Z" fill="#2C2C2C"/>
<path d="M26.4122 17.334H24.9702V19.8461H26.4122V17.334Z" fill="#2C2C2C"/>
<path d="M14.5326 20.5733L13.6572 20.7358L13.9406 22.2618L14.816 22.0992L14.5326 20.5733Z" fill="#2C2C2C"/>
<path d="M19.5967 14.0171C20.6065 14.0171 21.4252 13.1988 21.4252 12.1884C21.4252 11.1784 20.6065 10.3599 19.5967 10.3599C18.5863 10.3599 17.7676 11.1784 17.7676 12.1884C17.7676 13.1988 18.5863 14.0171 19.5967 14.0171Z" fill="#2C2C2C"/>
<path d="M18.7543 16.748L12.9619 17.8919L11.7583 20.889L11.8575 20.8823C11.9756 20.8733 12.084 20.9547 12.1111 21.0713L12.3215 21.98C12.4121 21.9673 12.5035 21.9583 12.5967 21.9583C12.6007 21.9583 12.604 21.9586 12.6078 21.9586L12.4497 21.1076L13.5396 18.1709L15.6252 20.0799C15.6276 20.0795 15.6293 20.0778 15.6312 20.0774L21.1438 19.0537L18.7543 16.748Z" fill="#2C2C2C"/>
</svg>
