<svg width="147" height="50" viewBox="0 0 147 50" fill="none" xmlns="http://www.w3.org/2000/svg">
<path d="M71.184 34.392C69.9707 34.392 68.8787 34.2707 67.908 34.028C66.956 33.804 66.1347 33.4587 65.444 32.992C64.772 32.5067 64.24 31.9093 63.848 31.2C63.4747 30.472 63.26 29.6413 63.204 28.708L66.732 27.56C66.7693 28.4 66.9747 29.1 67.348 29.66C67.74 30.22 68.2907 30.6307 69 30.892C69.7093 31.1533 70.5027 31.284 71.38 31.284C72.22 31.284 72.9293 31.1813 73.508 30.976C74.0867 30.7707 74.5253 30.5 74.824 30.164C75.1227 29.8093 75.272 29.4267 75.272 29.016C75.272 28.5307 75.0853 28.1387 74.712 27.84C74.3387 27.5413 73.8253 27.2893 73.172 27.084C72.5373 26.8787 71.8093 26.6827 70.988 26.496C70.0733 26.2907 69.168 26.0573 68.272 25.796C67.3947 25.5347 66.592 25.1987 65.864 24.788C65.1547 24.3773 64.5853 23.8453 64.156 23.192C63.7453 22.5387 63.54 21.7173 63.54 20.728C63.54 19.5893 63.82 18.6093 64.38 17.788C64.9587 16.948 65.7987 16.2947 66.9 15.828C68.0013 15.3613 69.3267 15.128 70.876 15.128C72.444 15.128 73.7787 15.3613 74.88 15.828C76 16.276 76.868 16.92 77.484 17.76C78.1 18.5813 78.436 19.5613 78.492 20.7L74.852 21.708C74.852 21.1293 74.7587 20.6253 74.572 20.196C74.3853 19.7667 74.124 19.412 73.788 19.132C73.452 18.8333 73.032 18.6093 72.528 18.46C72.0427 18.3107 71.4827 18.236 70.848 18.236C70.12 18.236 69.4853 18.3293 68.944 18.516C68.4213 18.7027 68.02 18.9547 67.74 19.272C67.4787 19.5893 67.348 19.9627 67.348 20.392C67.348 20.896 67.5533 21.316 67.964 21.652C68.3933 21.9693 68.9533 22.2307 69.644 22.436C70.3533 22.6413 71.128 22.8373 71.968 23.024C72.7707 23.192 73.5827 23.4067 74.404 23.668C75.244 23.9107 76.0187 24.2373 76.728 24.648C77.456 25.04 78.0347 25.5813 78.464 26.272C78.912 26.944 79.136 27.7933 79.136 28.82C79.136 29.94 78.8373 30.92 78.24 31.76C77.6427 32.6 76.7467 33.2533 75.552 33.72C74.376 34.168 72.92 34.392 71.184 34.392ZM88.7776 34.392C87.303 34.392 86.0056 34.1027 84.8856 33.524C83.7656 32.9267 82.8883 32.0587 82.2536 30.92C81.619 29.7627 81.3016 28.3253 81.3016 26.608C81.3016 24.8907 81.619 23.4627 82.2536 22.324C82.907 21.1853 83.7936 20.336 84.9136 19.776C86.0523 19.1973 87.3403 18.908 88.7776 18.908C90.2523 18.908 91.5496 19.1973 92.6696 19.776C93.8083 20.3547 94.695 21.2227 95.3296 22.38C95.983 23.5187 96.3096 24.9467 96.3096 26.664C96.3096 28.4 95.9736 29.8467 95.3016 31.004C94.6483 32.1427 93.7523 32.992 92.6136 33.552C91.4936 34.112 90.215 34.392 88.7776 34.392ZM88.9176 31.396C89.6456 31.396 90.2523 31.228 90.7376 30.892C91.2416 30.556 91.615 30.052 91.8576 29.38C92.119 28.6893 92.2496 27.8587 92.2496 26.888C92.2496 25.8613 92.1096 24.9933 91.8296 24.284C91.5683 23.556 91.1763 23.0053 90.6536 22.632C90.131 22.24 89.4683 22.044 88.6656 22.044C87.975 22.044 87.3776 22.212 86.8736 22.548C86.3696 22.8653 85.987 23.3693 85.7256 24.06C85.4643 24.732 85.3336 25.5627 85.3336 26.552C85.3336 28.1387 85.651 29.3427 86.2856 30.164C86.9203 30.9853 87.7976 31.396 88.9176 31.396ZM99.1761 34V19.3H103.208V34H99.1761ZM101.22 17.088C100.436 17.088 99.8295 16.9293 99.4001 16.612C98.9895 16.276 98.7841 15.7907 98.7841 15.156C98.7841 14.5027 98.9895 14.008 99.4001 13.672C99.8295 13.336 100.436 13.168 101.22 13.168C102.023 13.168 102.629 13.336 103.04 13.672C103.469 14.008 103.684 14.5027 103.684 15.156C103.684 15.772 103.469 16.248 103.04 16.584C102.629 16.92 102.023 17.088 101.22 17.088ZM106.942 34V13.98H110.918V34H106.942ZM119.609 34.392C117.892 34.392 116.595 33.8133 115.717 32.656C114.859 31.48 114.429 29.6973 114.429 27.308V19.3H118.461V26.804C118.461 28.2413 118.676 29.3147 119.105 30.024C119.535 30.7147 120.188 31.06 121.065 31.06C121.588 31.06 122.045 30.9293 122.437 30.668C122.829 30.4067 123.165 30.0427 123.445 29.576C123.725 29.1093 123.931 28.5587 124.061 27.924C124.211 27.2893 124.295 26.608 124.313 25.88V19.3H128.345V28.008V34H125.097L125.069 29.408H124.565C124.285 30.5653 123.931 31.5173 123.501 32.264C123.091 32.992 122.559 33.5333 121.905 33.888C121.271 34.224 120.505 34.392 119.609 34.392ZM130.587 34L135.459 26.636L130.587 19.3H135.235L137.923 24.844H138.399L141.087 19.3H145.707L140.835 26.636L145.763 34H141.143L138.399 28.428H137.923L135.235 34H130.587Z" fill="white"/>
<circle cx="25" cy="25" r="25" fill="#EECE38"/>
<path d="M24.9999 5C13.9721 5 5 13.9719 5 24.9998C5 36.0279 13.9719 45 24.9999 45C36.0279 45 45 36.0281 45 24.9998C45 13.9719 36.0281 5 24.9999 5ZM6.12734 25.1837C13.0937 27.4435 19.1892 30.5597 24.5831 34.3463C23.3118 34.8411 22.1001 35.3561 20.9519 35.8794C15.6075 31.4707 9.2349 28.9833 6.36639 28.0116C6.2179 27.0893 6.13653 26.1452 6.12734 25.1837ZM6.57355 29.0941C9.497 30.1225 15.1311 32.4295 19.9881 36.3269C18.9361 36.8258 17.9443 37.3288 17.0123 37.8253C13.8793 35.1889 9.82678 33.2344 7.57903 32.2624C7.15457 31.248 6.81653 30.1888 6.57355 29.0941ZM13.407 39.8848C11.2459 38.1978 9.4595 36.0517 8.19736 33.5938C10.3896 34.6045 13.5506 36.2489 16.1019 38.318C15.1257 38.857 14.2269 39.3833 13.407 39.8848ZM39.5729 36.9828C32.3999 38.3334 25.9098 41.3345 21.7555 43.5952C21.3569 43.5258 20.9626 43.4433 20.5728 43.3494C24.8012 40.9604 32.1693 37.3783 40.3127 36.0226C40.0757 36.3506 39.8296 36.6712 39.5729 36.9828ZM41.8936 33.4115C31.1383 34.3555 21.1647 39.8342 17.2701 42.2185C16.9394 42.0696 16.6143 41.9106 16.2943 41.7436C20.133 39.4975 24.2308 37.4155 28.4661 35.7862C34.4038 33.5017 38.4187 32.8294 42.3068 32.5288C42.1765 32.8271 42.0387 33.1215 41.8936 33.4115ZM43.7575 27.1008C35.17 24.6173 26.6076 25.6093 21.2003 26.776C21.2888 26.8295 21.8121 27.3085 21.9357 27.523C22.0583 27.5119 26.5956 26.7851 29.1426 26.6171C33.5267 26.3285 38.5772 26.5773 43.6259 28.0599C43.5822 28.3267 43.5339 28.5917 43.4791 28.8543C37.0458 27.8425 30.1885 28.623 24.9549 29.9104C25.1617 30.1665 25.3036 30.4671 25.3728 30.792C30.4578 29.5608 37.0597 28.8251 43.2592 29.7878C43.2303 29.8981 43.2005 30.0079 43.1696 30.1174C36.6322 30.5604 30.7133 32.0684 25.6655 33.9361C25.5279 33.8379 25.3904 33.7424 25.253 33.6457C25.286 33.0564 24.9791 32.4998 24.4395 32.2236C25.1864 31.3794 24.7474 30.0111 23.6256 29.7672C23.7271 28.6496 22.613 27.8132 21.5665 28.2336C21.5236 28.0526 21.2343 27.2358 20.3998 27.1088C19.8715 27.0284 19.3092 27.1876 18.9477 27.6235C18.8388 27.5329 18.32 27.1392 17.5991 27.3297C17.1856 27.439 16.8261 27.6694 16.6045 28.1963C16.5303 28.2521 15.6626 27.9816 15.4667 27.8865C15.4667 27.8865 15.9142 27.8076 16.1071 27.8143C16.5048 27.0382 17.3654 26.5518 18.3002 26.6926C18.1518 26.3915 17.8989 26.1405 17.5641 26.0027C18.0112 24.9143 17.0204 23.7857 15.8867 24.0809C15.7723 23.0205 14.5788 22.4547 13.6854 23.0397C12.9947 22.2241 11.6833 22.4301 11.277 23.4186C11.2729 23.4296 11.2699 23.4405 11.2655 23.4516C10.1944 22.7035 8.76544 23.6765 9.06073 24.9438C8.95667 24.9629 8.8573 24.9978 8.76037 25.0394C8.52302 24.9559 8.28735 24.8759 8.05356 24.7981C8.17636 24.6944 8.30648 24.6001 8.4499 24.5294C8.46003 24.2343 8.53277 23.9443 8.66757 23.6745C8.65988 23.648 8.66626 23.6267 8.69832 23.6165C9.16478 22.7485 10.153 22.369 11.0357 22.6472C11.2472 22.3765 11.5224 22.1695 11.8336 22.0387L11.6823 21.3857C11.4875 21.3982 11.295 21.449 11.189 21.3035C11.0597 21.1247 11.1154 21.18 12.5581 17.587C12.64 17.383 12.5972 17.4644 16.6891 16.7043C16.5389 16.5453 16.3417 16.4747 16.145 16.4855C16.0636 16.0219 15.5788 15.7549 15.1521 15.9551C14.722 15.5117 14.0231 15.574 13.6622 16.0562C13.1814 15.9094 12.7133 16.3033 12.7545 16.8082C12.1552 16.7705 11.78 17.4659 12.1465 17.9663C11.648 18.1673 11.4073 18.7091 11.5665 19.2204C11.3533 19.2238 11.1455 19.2967 10.9746 19.4317C10.4834 18.5408 9.16665 18.8636 9.12165 19.8824C8.42815 19.4677 7.37505 19.939 7.60847 21.1222C7.17594 21.1222 6.87616 21.5555 7.01939 21.9747C6.78673 21.917 6.55781 21.9592 6.35251 22.0698C7.76408 13.0486 15.5884 6.12454 24.9997 6.12454C34.2626 6.12454 41.9884 12.8315 43.5759 21.6442C43.4165 21.2164 43.1139 20.8581 42.7168 20.6578C42.7956 19.6252 42.0762 18.6851 41.0823 18.6516C41.0849 18.6411 41.085 18.6304 41.0898 18.6214C41.623 17.713 41.2514 16.5986 40.3369 16.3845C39.9585 16.296 39.583 16.3558 39.2587 16.5245C39.0877 15.895 38.5923 15.4622 37.9886 15.2376C37.6538 15.113 37.1615 15.2275 37.0255 15.2328L38.1996 16.9306C38.4802 17.3363 38.1928 17.8909 37.6994 17.8954C37.3782 17.8984 37.1193 18.1596 37.1193 18.4808V20.7345C37.1193 20.9912 37.1191 20.8525 37.0793 21.1916C36.9322 21.1569 36.6843 21.1685 36.5377 21.1361V17.7194H28.6956V20.7349C28.5649 20.7326 28.276 20.7323 27.947 20.7338V20.6106C27.947 20.1779 27.2942 20.179 27.2942 20.6106V20.7379C27.1144 20.7394 26.9443 20.7413 26.8028 20.743C26.6691 20.7448 25.3108 20.8003 24.9708 20.8225V20.6106C24.9708 20.1779 24.318 20.179 24.318 20.6106V20.8691C23.8103 20.9098 23.3491 20.9556 22.9404 21.0017V17.5698L25.5427 13.218L28.3553 16.9537H37.4431L34.0575 12.2084H24.4884L21.2343 17.3365H21.9308V21.1297C21.9278 21.1301 21.9244 21.1307 21.9212 21.1312C21.5551 21.1832 21.2556 21.2314 21.0235 21.2717L20.7344 19.7155L15.9714 20.6003L16.4302 23.07L16.4326 23.1126L16.1572 23.1638C16.217 23.2584 16.2708 23.3571 16.3145 23.4611C16.4326 23.4651 16.5498 23.4797 16.6649 23.5042C16.9844 23.6554 17.3475 23.8683 17.608 24.1441C21.1032 23.4247 24.6394 23.0432 27.9985 23.0432C32.3934 23.0432 36.383 23.6705 39.9164 24.913C40.9097 25.2621 42.5168 25.9412 43.811 26.5494C43.796 26.7339 43.778 26.9174 43.7575 27.1008ZM35.1241 22.6872C34.4064 22.5601 33.6752 22.453 32.9303 22.3662V20.5478C32.9303 19.781 33.4215 19.1593 34.0273 19.1593C34.6329 19.1593 35.1241 19.781 35.1241 20.5478V22.6872ZM31.6149 18.4078V20.8858C31.1252 20.8436 30.6436 20.8106 30.1732 20.7863V18.4078H31.6149ZM27.3483 21.3049V21.9359H26.5588V21.3212C26.8157 21.3135 27.0793 21.308 27.3483 21.3049ZM27.9228 21.3009C28.1755 21.3009 28.4341 21.3039 28.696 21.3086V21.8671L28.6874 21.9357H27.9228V21.3009ZM25.9844 21.3425V21.9359H24.971V21.3977C25.2939 21.3765 25.6317 21.3575 25.9844 21.3425ZM24.3182 21.4457V21.9359H22.9406V21.5801C23.3472 21.5332 23.8084 21.4863 24.3182 21.4457ZM21.9308 22.4695C21.7079 22.4967 21.4851 22.5259 21.262 22.5559L21.1284 21.8366C21.2995 21.8069 21.5091 21.7728 21.7536 21.7364L21.9308 22.4695ZM18.0965 22.166L17.2206 22.3285L16.9371 20.8026L17.8127 20.6398L18.0965 22.166ZM43.1165 25.2109C43.4066 24.9959 43.5309 24.665 43.4662 24.3438C43.4071 24.0508 43.2315 23.8282 42.8782 23.7343C42.9641 23.5466 43.1362 23.2489 42.9259 22.8906C42.5753 22.2931 42.0601 22.4689 41.8658 22.5113C41.8529 22.3236 41.857 21.9009 41.4346 21.6787C41.2001 21.5553 40.8823 21.5495 40.5187 21.7672C40.2347 21.402 39.9019 21.3058 39.6201 21.369C39.1895 21.4657 39.0704 21.8137 38.9956 22.0109C38.9154 21.9579 38.7491 21.8429 38.6767 21.8092C38.3541 21.6611 38.0115 21.7462 37.7871 21.9582C37.4399 22.2865 37.5456 22.6624 37.5814 22.8499C37.3939 22.8771 37.214 22.8854 37.004 23.0726C36.8157 23.0286 36.6251 22.9875 36.4346 22.9459C36.4346 22.9459 36.5874 22.5747 36.9841 22.5128C36.9329 21.5733 37.935 20.9393 38.7577 21.3802C39.1786 20.7201 40.0992 20.6299 40.6387 21.1796C41.3356 20.8646 42.1532 21.2689 42.3177 22.0237C42.9191 21.9828 43.4716 22.3926 43.5866 23.0113C43.5866 23.0113 43.6904 23.0503 43.792 23.2598C44.0165 24.1331 43.9126 24.7649 43.8652 25.584C43.6179 25.4565 43.3685 25.332 43.1165 25.2109Z" fill="#2C2C2C"/>
<path d="M26.4122 17.3369H24.9702V19.849H26.4122V17.3369Z" fill="#2C2C2C"/>
<path d="M14.5326 20.5762L13.6572 20.7388L13.9406 22.2647L14.816 22.1021L14.5326 20.5762Z" fill="#2C2C2C"/>
<path d="M19.5967 14.0152C20.6065 14.0152 21.4252 13.1968 21.4252 12.1865C21.4252 11.1765 20.6065 10.3579 19.5967 10.3579C18.5863 10.3579 17.7676 11.1765 17.7676 12.1865C17.7676 13.1968 18.5863 14.0152 19.5967 14.0152Z" fill="#2C2C2C"/>
<path d="M18.7543 16.75L12.9619 17.8939L11.7583 20.891L11.8575 20.8842C11.9756 20.8752 12.084 20.9566 12.1111 21.0732L12.3215 21.982C12.4121 21.9692 12.5035 21.9602 12.5967 21.9602C12.6007 21.9602 12.604 21.9606 12.6078 21.9606L12.4497 21.1096L13.5396 18.1728L15.6252 20.0818C15.6276 20.0814 15.6293 20.0797 15.6312 20.0794L21.1438 19.0557L18.7543 16.75Z" fill="#2C2C2C"/>
</svg>
