<svg width="21" height="15" viewBox="0 0 21 15" fill="none" xmlns="http://www.w3.org/2000/svg">
<path fill-rule="evenodd" clip-rule="evenodd" d="M16.5681 4.11386C17.3279 3.04935 18.7641 1.90337 20.7193 0.949356C21.2274 0.701432 20.9982 -0.0669975 20.4373 0.00395203C16.3292 0.523598 13.6665 2.32281 12.2124 4.99844C11.6716 5.99359 11.3318 7.05282 11.1509 8.13409C11.0316 8.84702 11.0001 9.38205 11.0001 10C11.0001 12.7614 13.2386 15 16.0001 15C18.7615 15 21.0001 12.7614 21.0001 10C21.0001 7.23858 18.7258 4.99844 16.1122 4.99844C16.2501 4.61987 16.2832 4.51289 16.5681 4.11386ZM5.56805 4.11386C6.32788 3.04935 7.76408 1.90337 9.71931 0.949356C10.2274 0.701432 9.99822 -0.0669975 9.43731 0.00395203C5.32917 0.523598 2.66645 2.32281 1.21239 4.99844C0.671587 5.99359 0.331814 7.05282 0.150869 8.13409C0.0315666 8.84702 5.91278e-05 9.38205 5.91278e-05 10C5.91278e-05 12.7614 2.23864 15 5.00006 15C7.76148 15 10.0001 12.7614 10.0001 10C10.0001 7.23858 7.72577 4.99844 5.11224 4.99844C5.25012 4.61987 5.28324 4.51289 5.56805 4.11386Z" fill="#2C2C2C"/>
</svg>
