<svg width="147" height="36" viewBox="0 0 147 36" fill="none" xmlns="http://www.w3.org/2000/svg">
<g clip-path="url(#clip0_312_1148)">
<path d="M42.8066 25.2822H53.3273V22.1212H46.5459V10.2148H42.8066V25.2822Z" fill="white"/>
<path d="M59.5603 23.1764C58.0604 23.1764 57.2787 21.8699 57.2787 19.91C57.2787 17.9502 58.0604 16.6226 59.5603 16.6226C61.0602 16.6226 61.863 17.9502 61.863 19.91C61.863 21.8699 61.0602 23.1764 59.5603 23.1764ZM59.5814 25.6209C63.0672 25.6209 65.3488 23.1553 65.3488 19.91C65.3488 16.6648 63.0672 14.1992 59.5814 14.1992C56.1168 14.1992 53.793 16.6648 53.793 19.91C53.793 23.1553 56.1168 25.6209 59.5814 25.6209Z" fill="white"/>
<path d="M71.3825 29.0113C72.988 29.0113 74.4035 28.653 75.3541 27.8101C76.2203 27.0304 76.7907 25.8503 76.7907 24.2277V14.4919H73.495V15.6509H73.4528C72.819 14.7448 71.8472 14.1758 70.4107 14.1758C67.7277 14.1758 65.8687 16.4095 65.8687 19.5705C65.8687 22.879 68.1291 24.6913 70.5586 24.6913C71.8684 24.6913 72.6923 24.1645 73.326 23.448H73.4105V24.5227C73.4105 25.8292 72.7979 26.5879 71.3402 26.5879C70.1994 26.5879 69.629 26.1032 69.4389 25.5342H66.101C66.439 27.7891 68.4037 29.0113 71.3825 29.0113ZM71.3613 22.1414C70.0727 22.1414 69.2276 21.0878 69.2276 19.4651C69.2276 17.8214 70.0727 16.7678 71.3613 16.7678C72.7979 16.7678 73.5584 17.99 73.5584 19.4441C73.5584 20.9613 72.8613 22.1414 71.3613 22.1414Z" fill="white"/>
<path d="M83.5671 23.1764C82.0672 23.1764 81.2856 21.8699 81.2856 19.91C81.2856 17.9502 82.0672 16.6226 83.5671 16.6226C85.0671 16.6226 85.8698 17.9502 85.8698 19.91C85.8698 21.8699 85.0671 23.1764 83.5671 23.1764ZM83.5883 25.6209C87.074 25.6209 89.3559 23.1553 89.3559 19.91C89.3559 16.6648 87.074 14.1992 83.5883 14.1992C80.1236 14.1992 77.7998 16.6648 77.7998 19.91C77.7998 23.1553 80.1236 25.6209 83.5883 25.6209Z" fill="white"/>
<path d="M90.3608 25.2822H93.8043V14.4927H90.3608V25.2822ZM90.3608 12.9965H93.8043V10.2148H90.3608V12.9965Z" fill="white"/>
<path d="M95.2983 28.8427H98.7418V24.1645H98.7841C99.4601 25.0706 100.453 25.6185 101.847 25.6185C104.678 25.6185 106.558 23.3848 106.558 19.8866C106.558 16.6413 104.805 14.1758 101.932 14.1758C100.453 14.1758 99.3967 14.8291 98.6573 15.7984H98.594V14.4919H95.2983V28.8427ZM100.96 22.9633C99.4812 22.9633 98.6362 21.7621 98.6362 20.0131C98.6362 18.264 99.3967 16.9364 100.897 16.9364C102.375 16.9364 103.073 18.1586 103.073 20.0131C103.073 21.8464 102.27 22.9633 100.96 22.9633Z" fill="white"/>
<path d="M112.166 25.6185C114.996 25.6185 117.088 24.3963 117.088 22.0361C117.088 19.2755 114.849 18.7908 112.947 18.4747C111.574 18.2218 110.349 18.1165 110.349 17.3578C110.349 16.6835 111.004 16.3674 111.849 16.3674C112.799 16.3674 113.454 16.6624 113.581 17.6318H116.75C116.581 15.5034 114.933 14.1758 111.87 14.1758C109.314 14.1758 107.201 15.3559 107.201 17.6318C107.201 20.1606 109.208 20.6663 111.088 20.9824C112.525 21.2353 113.835 21.3407 113.835 22.31C113.835 23.0054 113.18 23.3848 112.144 23.3848C111.004 23.3848 110.285 22.8579 110.159 21.7832H106.905C107.011 24.1645 108.997 25.6185 112.166 25.6185Z" fill="white"/>
<path d="M121.765 25.5977C123.264 25.5977 124.215 25.0077 124.997 23.954H125.06V25.2817H128.356V14.4922H124.912V20.5191C124.912 21.8046 124.194 22.6897 123.011 22.6897C121.912 22.6897 121.384 22.0364 121.384 20.8563V14.4922H117.962V21.5728C117.962 23.9751 119.272 25.5977 121.765 25.5977Z" fill="white"/>
<path d="M129.854 25.2813H133.298V19.2333C133.298 17.9479 133.931 17.0417 135.009 17.0417C136.044 17.0417 136.53 17.7161 136.53 18.8751V25.2813H139.973V19.2333C139.973 17.9479 140.586 17.0417 141.684 17.0417C142.72 17.0417 143.205 17.7161 143.205 18.8751V25.2813H146.649V18.264C146.649 15.8406 145.424 14.1758 142.973 14.1758C141.579 14.1758 140.417 14.7658 139.572 16.0724H139.53C138.98 14.9133 137.903 14.1758 136.487 14.1758C134.924 14.1758 133.889 14.9133 133.213 16.0302H133.15V14.4919H129.854V25.2813Z" fill="white"/>
<path fill-rule="evenodd" clip-rule="evenodd" d="M7.61781 3.41691C6.35848 4.29528 5.21972 5.33379 4.23116 6.50284C8.27085 6.12873 13.4031 6.73961 19.3616 9.71148C25.7245 12.8849 30.8482 12.9922 34.4141 12.3061C34.0905 11.3289 33.6831 10.3898 33.2007 9.49697C29.1187 9.92642 23.8857 9.35798 17.7871 6.31633C13.9144 4.3848 10.5006 3.58913 7.61781 3.41691ZM30.8162 6.11145C27.5927 2.51878 22.9081 0.257812 17.6941 0.257812C16.1629 0.257812 14.6773 0.452833 13.261 0.819307C15.1792 1.3414 17.2169 2.10521 19.3616 3.17492C23.8267 5.40188 27.6817 6.11892 30.8162 6.11145ZM35.1765 15.7361C30.8686 16.5847 24.9198 16.4104 17.7871 12.8529C11.1187 9.527 5.81129 9.56888 2.23177 10.3624C2.04701 10.4033 1.86659 10.4463 1.69054 10.4911C1.22189 11.5078 0.8478 12.5769 0.579387 13.6871C0.866067 13.6107 1.16231 13.5381 1.46795 13.4703C5.81053 12.5077 11.9462 12.5495 19.3616 16.248C26.0301 19.5739 31.3375 19.532 34.9171 18.7385C35.0397 18.7114 35.1605 18.6833 35.2794 18.6543C35.2924 18.3775 35.2989 18.0989 35.2989 17.8188C35.2989 17.1141 35.2574 16.4192 35.1765 15.7361ZM34.7046 22.3603C30.4385 23.1043 24.663 22.8187 17.7871 19.3894C11.1187 16.0635 5.81129 16.1054 2.23177 16.8989C1.43722 17.075 0.722458 17.2895 0.0919346 17.5159C0.0902155 17.6166 0.0893555 17.7176 0.0893555 17.8188C0.0893555 27.5174 7.97128 35.3797 17.6941 35.3797C25.8426 35.3797 32.6981 29.8576 34.7046 22.3603Z" fill="#EECE38"/>
</g>
<defs>
<clipPath id="clip0_312_1148">
<rect width="147" height="36" fill="white"/>
</clipPath>
</defs>
</svg>
