<svg width="40" height="34" viewBox="0 0 40 34" fill="none" xmlns="http://www.w3.org/2000/svg">
<path d="M26.154 15.3847H31.5386C32.1797 15.3847 32.7247 15.1604 33.1735 14.7117C33.622 14.2629 33.8465 13.7181 33.8465 13.0768V12.308C33.8465 10.6091 33.2455 9.15894 32.0434 7.95687C30.8414 6.75523 29.391 6.15415 27.6923 6.15415H26.154C25.7374 6.15415 25.3769 6.00184 25.0723 5.69747C24.7679 5.39293 24.6156 5.03249 24.6156 4.6158V1.5386C24.6156 1.122 24.7679 0.761218 25.0723 0.45668C25.3768 0.152564 25.7373 0 26.154 0H27.6923C29.3591 0 30.9494 0.324829 32.464 0.973561C33.9784 1.62271 35.2883 2.50021 36.3942 3.60612C37.5001 4.71153 38.3773 6.02154 39.0264 7.53615C39.6754 9.05058 40 10.6412 40 12.3079V29.2306C40 30.5133 39.5515 31.6024 38.654 32.5002C37.7565 33.3975 36.6665 33.8461 35.3845 33.8461H26.1534C24.8715 33.8461 23.7818 33.3975 22.8842 32.5002C21.9869 31.6024 21.5382 30.5133 21.5382 29.2306V20.0002C21.5382 18.7177 21.9869 17.6286 22.8848 16.7307C23.782 15.8335 24.8721 15.3847 26.154 15.3847Z" fill="#EECE38"/>
<path d="M1.34533 16.7307C2.24252 15.8335 3.33227 15.3847 4.61449 15.3847H9.99907C10.6398 15.3847 11.1853 15.1604 11.6333 14.7117C12.0823 14.2629 12.3064 13.7181 12.3064 13.0768V12.308C12.3064 10.6091 11.7053 9.15894 10.5038 7.95687C9.30227 6.75523 7.85191 6.15415 6.15241 6.15415H4.6144C4.19772 6.15415 3.83702 6.00184 3.53265 5.69747C3.22845 5.39293 3.07564 5.03249 3.07564 4.6158V1.5386C3.07564 1.122 3.22837 0.761218 3.53265 0.45668C3.83694 0.152564 4.19763 0 4.6144 0H6.15241C7.82016 0 9.41004 0.324829 10.9251 0.973561C12.4392 1.62271 13.7487 2.50021 14.8547 3.60612C15.9606 4.71153 16.8382 6.02154 17.487 7.53615C18.1359 9.05058 18.4609 10.6412 18.4609 12.3079V29.2306C18.4609 30.5133 18.012 31.6024 17.1148 32.5002C16.2175 33.3975 15.1278 33.8461 13.8457 33.8461H4.61499C3.33277 33.8461 2.24311 33.3975 1.34591 32.5002C0.448048 31.6024 4.19617e-05 30.5133 4.19617e-05 29.2306V20.0002C-4.19617e-05 18.7177 0.44805 17.6286 1.34533 16.7307Z" fill="#EECE38"/>
</svg>
